<?xml version="1.0" standalone="no"?>
<!DOCTYPE svg PUBLIC "-//W3C//DTD SVG 1.1//EN" "http://www.w3.org/Graphics/SVG/1.1/DTD/svg11.dtd" >
<svg xmlns="http://www.w3.org/2000/svg" xmlns:xlink="http://www.w3.org/1999/xlink" version="1.1">
<metadata>
Created by FontForge 20170731 at Mon Mar 13 11:11:52 2017
 By Aleksey,,,
Comedy Central 1998 All rights reserved.
</metadata>
<defs>
<font id="SouthParkExt-Regular" horiz-adv-x="1411" >
  <font-face 
    font-family="South Park Ext"
    font-weight="400"
    font-stretch="normal"
    units-per-em="2048"
    panose-1="2 11 10 4 2 1 2 2 2 4"
    ascent="1638"
    descent="-410"
    x-height="1559"
    cap-height="1569"
    bbox="-679 -558 2818 2130"
    underline-thickness="123"
    underline-position="-439"
    unicode-range="U+0020-E026"
  />
<missing-glyph horiz-adv-x="1024" 
 />
    <glyph glyph-name=".notdef" horiz-adv-x="1024" 
 />
    <glyph glyph-name=".null" horiz-adv-x="0" 
 />
    <glyph glyph-name="nonmarkingreturn" horiz-adv-x="682" 
 />
    <glyph glyph-name="space" unicode=" " horiz-adv-x="682" 
 />
    <glyph glyph-name="exclam" unicode="!" horiz-adv-x="618" 
d="M261 1425l-91 -971l270 -24l123 955zM145 257l-24 -226l282 -26l26 239z" />
    <glyph glyph-name="quotedbl" unicode="&#x22;" horiz-adv-x="859" 
d="M402 1565h-69l289 -443h77zM177 1497l-47 -35l276 -465l99 58z" />
    <glyph glyph-name="numbersign" unicode="#" horiz-adv-x="1614" 
d="M444 932l-82 -395l-215 -13l-61 -190l215 -4l-74 -350l232 -3l71 351l295 10l-86 -352l209 -11l86 353l260 14l72 219l-289 -10l86 385l289 12l49 223l-303 -38l70 358l-211 2l-72 -358l-293 -2l74 358h-188l-99 -361l-370 3l14 -205zM856 541h-274l65 391l301 4z" />
    <glyph glyph-name="dollar" unicode="$" horiz-adv-x="1309" 
d="M1165 477q0 -143 -78.5 -260.5t-218.5 -179.5q-32 -13 -49 -21q-14 -7 -27.5 -9.5t-35.5 -2.5l2 -196h-194v197q-100 5 -151 19q-42 11 -75 31.5t-72 57.5q-38 37 -57 61.5t-29 51.5q-9 24 -13.5 57.5t-8.5 95.5l248 8q5 -27 9 -41q10 -34 26 -50l18 -23q19 -23 39 -32
q25 -12 66 -12v478q-96 13 -146 36q-33 15 -59.5 34t-59.5 51q-59 56 -88 141.5t-29 177.5q3 77 7.5 124.5t18 96.5t40.5 88q39 57 115.5 91t200.5 41v198h170l3 -206q94 -11 154.5 -28.5t100.5 -48.5q48 -37 76.5 -104.5t49.5 -181.5h-252q-13 56 -42 91q-37 43 -85 62
l6 -457l50 -10l20 -5q34 -10 54.5 -18t50.5 -24q126 -66 186 -161q59 -94 59 -218zM564 958v429q-18 -4 -26 -7q-30 -11 -54.5 -29.5t-37.5 -39.5q-15 -24 -21 -52t-9 -65q-1 -10 -1 -28q0 -42 7 -60q14 -61 82 -111q27 -21 60 -37zM885 487q0 72 -25 97l-28 30
q-19 19 -42 34q-25 15 -42 22l5 -415q35 17 64 45q31 28 48.5 62t17.5 64q0 23 1 38q1 8 1 23z" />
    <glyph glyph-name="percent" unicode="%" horiz-adv-x="1511" 
d="M1129 1550l-959 -1208l205 -199l975 1264zM150 1258q0 -80 19 -147q10 -40 45 -67l30 -23q39 -31 61 -45.5t50 -23t66 -8.5q16 0 25 1l24 1q15 0 30 1.5t31 6.5q72 19 108 56q38 39 59.5 89.5t26.5 105.5l2 29l1 20q0 71 -32 134t-90 104l-3 2q-53 29 -81 40t-53 11
q-17 0 -36.5 -4.5t-59.5 -16.5l-41 -12q-6 -2 -26 -11t-43.5 -21.5t-35.5 -23.5q-25 -21 -46 -56.5t-27 -76.5q-4 -29 -4 -65zM313 1300q16 31 29 48.5t35.5 29t60.5 16.5q91 -11 126.5 -37.5t35.5 -79.5q0 -11 -4 -43q-22 -126 -152 -126q-62 0 -94 13t-43 37t-11 66z
M769 464q0 -80 19 -147q10 -40 45 -67l30 -23q39 -31 61 -45.5t50 -23t66 -8.5q16 0 25 1l24 1q15 0 30 1.5t31 6.5q72 19 108 56q38 38 59.5 88.5t26.5 106.5l2 29l1 20q0 71 -32 134t-90 104l-3 2q-53 29 -81 40t-53 11q-17 0 -36.5 -4.5t-59.5 -16.5l-41 -12
q-6 -2 -26 -11t-43.5 -21.5t-35.5 -23.5q-25 -21 -46 -56.5t-27 -76.5q-4 -29 -4 -65zM932 506q16 31 29 48.5t35.5 29t60.5 15.5q91 -10 126.5 -37t35.5 -80q0 -12 -4 -42q-22 -126 -152 -126q-62 0 -94 13t-43 37t-11 66z" />
    <glyph glyph-name="ampersand" unicode="&#x26;" horiz-adv-x="1684" 
d="M1535 1124l-21 -144q-1 -9 -5.5 -64.5t-20.5 -107.5t-41 -83q-83 -106 -217 -126l-14 -2l21 -171q2 -12 2 -37q0 -74 -39.5 -150t-108.5 -129.5t-153 -64.5l-340 -43q-49 -6 -64 -6q-20 0 -88 62l-113 92q-57 45 -72 99l-66 223q-8 24 -8 43q0 17 61 121q120 203 245 218
q-117 -1 -176 15t-88.5 64.5t-41.5 151.5q-3 19 -29 97q-23 63 -23 95q0 36 21 61q141 186 253 198l342 41q10 2 45 2q82 0 156.5 -40.5t123.5 -109t58 -150.5l20 -171l-325 18l-37 111q-26 77 -67.5 113.5t-100.5 36.5q-50 0 -89.5 -23t-61.5 -62.5t-22 -86.5q0 -14 1 -21
l10 -84q20 -152 192 -148l20 -171q-154 -41 -154 -155q0 -11 4 -37l39 -175l4 -25q13 -71 21.5 -109t18.5 -53q20 -27 65 -27l134 17q11 2 35 2q1 1 6 7t15 15q30 31 45 233l19 247l269 37q67 10 109.5 58t42.5 113q0 13 -1 20l-21 169z" />
    <glyph glyph-name="quotesingle" unicode="'" horiz-adv-x="569" 
d="M85 1224v242h406v-242l-64 -297h-276z" />
    <glyph glyph-name="parenleft" unicode="(" horiz-adv-x="797" 
d="M717 1673q-129 -286 -183.5 -513.5t-54.5 -468.5q0 -458 238 -940h-254q-129 183 -206 340.5t-111 307.5t-34 316q0 254 83 482t268 476h254z" />
    <glyph glyph-name="parenright" unicode=")" horiz-adv-x="797" 
d="M602 1197q83 -228 83 -482q0 -166 -34 -316t-111 -307.5t-206 -340.5h-254q238 482 238 940q0 241 -54.5 468.5t-183.5 513.5h254q185 -248 268 -476z" />
    <glyph glyph-name="asterisk" unicode="*" horiz-adv-x="1139" 
d="M453 1491h221l-18 -151q-6 -57 -25 -125l25 13l25 13q45 24 64 33l139 66l69 -211l-154 -32q-45 -8 -125 -11q56 -44 89 -80l104 -113l-180 -135l-74 135q-14 24 -52 113q-41 -95 -52 -113l-75 -135l-185 135l112 113q47 47 92 80q-45 4 -121 18l-155 25l72 211l139 -63
q28 -13 109 -62q-19 84 -24 125z" />
    <glyph glyph-name="plus" unicode="+" horiz-adv-x="1352" 
d="M127 570v324h383v385h323v-385h385v-324h-385v-383h-323v383h-383z" />
    <glyph glyph-name="comma" unicode="," horiz-adv-x="682" 
d="M125 -211q97 4 153 44q73 54 78 170l-242 11l19 401l427 -22l-18 -391q-16 -140 -45.5 -218t-83.5 -115q-33 -23 -63 -34t-73 -16t-118 -6l-56 175q7 1 22 1z" />
    <glyph glyph-name="hyphen" unicode="-" horiz-adv-x="682" 
d="M45 377v315h592v-315h-592z" />
    <glyph glyph-name="period" unicode="." horiz-adv-x="682" 
d="M120 423l-19 -401l426 -20l20 399z" />
    <glyph glyph-name="slash" unicode="/" horiz-adv-x="569" 
d="M1 -24l366 1515h208l-368 -1515h-206z" />
    <glyph glyph-name="zero" unicode="0" horiz-adv-x="1366" 
d="M113.5 428q29.5 -139 83.5 -221q73 -117 189 -173.5t296 -56.5q220 0 351 80.5t190 247.5t59 438q0 89 -8 203q-7 103 -29 195q-21 87 -56 151.5t-95 120.5q-64 64 -159.5 98.5t-238.5 34.5q-310 0 -458 -168q-73 -82 -114 -257q-40 -171 -40 -382q0 -172 29.5 -311z
M500 1001q13 126 37 173q47 102 147 102q98 0 147 -100q21 -42 35 -176q11 -110 11 -273q0 -182 -23 -293q-20 -91 -64.5 -135.5t-107.5 -44.5q-92 0 -145 102q-50 102 -50 381q0 137 13 264z" />
    <glyph glyph-name="one" unicode="1" horiz-adv-x="956" 
d="M817 1577l-293 4q-37 -19 -67 -32t-38 -17l-19 -8l-49 -20q-38 -14 -144 -66l-123 -64l-4 -301q31 9 58.5 20t49.5 21l42 21q45 24 86 42l34 15l39 18q29 12 53 25l-10 -1235h412z" />
    <glyph glyph-name="two" unicode="2" horiz-adv-x="1366" 
d="M1276 0l-10 205h-908q-3 30 34 71t102 90q52 39 106 72.5t80 44.5q35 17 119 71l31 20q83 52 126 81q17 11 49 30q85 49 161 109q38 30 57.5 60.5t28.5 70.5q13 60 11 158q-1 26 -1 74q0 60 -18 106.5t-56 102.5q-47 70 -113.5 114t-165.5 65.5t-241 21.5
q-160 -4 -251.5 -22.5t-145.5 -61.5q-52 -42 -80.5 -115.5t-53.5 -210.5h180l3 23q9 66 19.5 99.5t37.5 56.5q33 29 102 42q67 13 197 15q37 0 82 -18.5t85 -49.5q42 -33 69.5 -68.5t31.5 -66.5l5 -66q3 -39 3 -80q0 -40 -6 -73.5t-18 -50.5q-12 -16 -46 -37t-93 -51
l-37 -19q-12 -6 -70 -36.5t-100 -59.5l-139 -90q-159 -100 -236 -168q-90 -79 -116 -171q-21 -74 -28 -194q-5 -60 -10 -94h1223z" />
    <glyph glyph-name="three" unicode="3" horiz-adv-x="1366" 
d="M170 1313h123h170h192q130 0 188 1t152 1q59 0 95 2h2q-31 -21 -44 -32l-23 -17l-104 -79l-120 -91q-128 -98 -204 -149q-35 -25 -40 -25v-152h227q43 0 67.5 -33t34.5 -89q9 -52 9 -113v-111q0 -57 -4.5 -99.5t-17.5 -73.5q-16 -36 -41 -56.5t-64 -22.5q-36 -2 -52 -2
q-130 -6 -165 -6q-83 0 -121 13q-38 12 -54 38.5t-16 76.5q0 10 2 40l-188 -2q15 -73 20 -119q6 -56 14.5 -91t23.5 -58q17 -25 49.5 -39.5t88.5 -19.5q62 -5 146 -5h125q148 0 286 16q65 8 111.5 31t86.5 68q77 88 96 215q8 66 8 125q0 134 -20 225q-30 127 -87 170
q-52 40 -129 60q-51 12 -95 12q-14 0 -32 -2q100 76 196 163t167 146q5 5 5 50q0 32 -1 50q-6 104 -6 162l-563 2h-125h-60q-24 0 -31 -1q-8 -1 -40 -1q-45 0 -80 1q-36 1 -158 1v-180z" />
    <glyph glyph-name="four" unicode="4" horiz-adv-x="1366" 
d="M41 426h741l2 -426h355l-2 426h184l2 164h-184v901h-355l-741 -883zM784 1229v-639h-532z" />
    <glyph glyph-name="five" unicode="5" horiz-adv-x="1366" 
d="M123 1456v-641q36 0 53 -1l176 -1h152q84 0 123 1q38 1 137 1q43 0 67.5 -26t35.5 -76q10 -44 10 -109v-125l1 -200q0 -66 -13.5 -97.5t-48.5 -38.5q-36 -8 -127 -8q-95 0 -166.5 5t-131.5 24q-66 21 -103 61t-37 107q0 21 5 51h-158q2 -74 2 -107q0 -108 29 -176
q17 -38 53 -63q84 -24 181.5 -30.5t254.5 -6.5h54q135 0 200 1h55l121 -1q85 0 133.5 40.5t70.5 114.5q15 52 19.5 117.5t4.5 159.5v68v106q0 124 -31 206q-18 46 -53 79t-81 49q-90 31 -208 31h-110h-435l4 334h891l-4 151h-1126z" />
    <glyph glyph-name="six" unicode="6" horiz-adv-x="1366" 
d="M1190.5 617.5q1.5 -51.5 1.5 -125.5l-3 -112q-2 -64 -10 -119q-11 -68 -30 -118t-54 -83q-68 -65 -183 -65q-28 0 -66 5q-132 -2 -188 -2q-104 0 -184 5.5t-144 19.5q-106 24 -160.5 79.5t-54.5 157.5q0 57 -1 93q-1 35 -1 114q0 84 -1 129t-1 135q0 172 4 271.5
t19 173.5q17 84 51 138.5t96 87.5q54 29 135 42t196 13q44 0 68 -1h135h74h35h16h18h41v-227h-294q-80 0 -147 -14q-98 -22 -120 -68l-16 -33q-7 -14 -11 -37q-4 -24 -9 -76q-7 -70 -10 -138q4 47 49 72q81 45 247 45l139 -1l100 1q21 0 55 -4q33 -5 61 -21.5t63 -51.5
q62 -67 77 -186q6 -48 7.5 -99.5zM899 446q0 94 -8.5 157.5t-31.5 105.5q-25 46 -73.5 69t-126.5 23q-117 0 -182 -61q-70 -65 -70 -201q0 -26 3 -56q1 -125 34 -190q56 -113 168 -113h90q39 0 75 18.5t64 53.5q58 76 58 194z" />
    <glyph glyph-name="seven" unicode="7" horiz-adv-x="1333" 
d="M90 1466l4 -170h809l3 -20q2 -18 2 -31q0 -35 -8 -67t-26 -52q-11 -20 -22 -39t-21 -37l-55 -99l-108 -191q-43 -73 -100 -174l-72 -127q-3 -6 -14 -22l-15 -27v-410h309q1 29 1 78q0 54 -2 130v37q0 72 5 134l22 38l56 101l176 308q96 167 195 317v327z" />
    <glyph glyph-name="eight" unicode="8" horiz-adv-x="1313" 
d="M94 434q0 -84 15 -149q10 -46 20.5 -79.5t26.5 -58.5q32 -53 72 -82.5t99 -44.5q53 -14 126 -18t211 -4h118q122 0 209 26q46 14 82 37q68 50 105 160q30 89 30 215q0 119 -59 211.5t-176 149.5q92 62 131 123q57 84 57 186q0 105 -20 176q-27 92 -92 145q-46 37 -104 55
t-129 23.5t-183 5.5q-121 0 -213.5 -18t-157.5 -61q-79 -55 -107 -134t-28 -186q0 -110 59 -199q47 -61 142 -112q-234 -91 -234 -367zM540 1316q46 46 122 46q72 0 118.5 -47.5t46.5 -124.5q0 -65 -3.5 -106t-18.5 -74q-18 -39 -52.5 -60.5t-93.5 -21.5q-47 0 -77 10
t-50 37q-20 26 -29 70.5t-9 115.5v33q0 76 46 122zM523 626q46 46 122 46q73 0 119.5 -47.5t46.5 -124.5q0 -65 -3.5 -106.5t-18.5 -73.5q-18 -39 -52.5 -60.5t-93.5 -21.5q-46 0 -76.5 10t-50.5 37q-39 51 -39 188v31q0 76 46 122z" />
    <glyph glyph-name="nine" unicode="9" horiz-adv-x="1366" 
d="M338 25l49 -2h23h18q18 0 34 1q15 1 68 1h125q150 0 257.5 41t176.5 130q71 89 105.5 229.5t34.5 338.5q0 120 -6 219.5t-17 222.5q-16 177 -173 235q-98 35 -272 35q-60 0 -126 -3q-279 4 -398 -110q-99 -95 -99 -292q0 -31 1 -47v-111q0 -121 31 -217q17 -49 51 -84
q67 -68 142 -96.5t176 -28.5l135 -1q118 0 188 14q41 8 53 24q-6 -95 -19 -151q-5 -22 -11.5 -38t-18.5 -34q-26 -46 -79.5 -71t-106.5 -25h-350zM908 974q0 -85 -16.5 -135t-48.5 -76q-29 -24 -68 -30t-105 -6t-99 7t-55 36q-25 32 -35 97q-12 65 -12 186q0 119 51 181
t135 62q67 0 105.5 -5.5t70.5 -28.5q37 -28 56.5 -85t19.5 -153q1 -18 1 -50z" />
    <glyph glyph-name="colon" unicode=":" horiz-adv-x="682" 
d="M157 1060l-20 -401l428 -22l21 401zM125 417l-19 -401l426 -20l20 399z" />
    <glyph glyph-name="semicolon" unicode=";" horiz-adv-x="682" 
d="M140 1059l-20 -401l428 -22l21 401zM115 -209q97 4 153 44q73 54 78 170l-242 11l19 401l427 -22l-18 -391q-16 -140 -45.5 -218t-83.5 -115q-33 -23 -63 -34t-73 -16t-118 -6l-56 175q7 1 22 1z" />
    <glyph glyph-name="less" unicode="&#x3c;" horiz-adv-x="1352" 
d="M1244 465v-353l-1137 473v296l1137 472v-355l-691 -266z" />
    <glyph glyph-name="equal" unicode="=" horiz-adv-x="1352" 
d="M126 816v325h1092v-325h-1092zM126 325v324h1092v-324h-1092z" />
    <glyph glyph-name="greater" unicode="&#x3e;" horiz-adv-x="1352" 
d="M108 465l691 267l-691 266v355l1137 -472v-296l-1137 -473v353z" />
    <glyph glyph-name="question" unicode="?" horiz-adv-x="1194" 
d="M727 461q7 39 7 67q0 56 3 91t15 66q11 30 47 54t83 39q49 16 84.5 34t67.5 48q36 35 64 96q13 34 27 137q10 76 10 136q0 110 -39 205q-46 107 -129 163q-31 22 -73.5 31t-101.5 12q-17 1 -53 1t-55 -1q-74 -2 -111 -2q-157 0 -240 -10.5t-134 -45.5q-54 -37 -83.5 -115
t-45.5 -218l186 -4q4 118 78 173q30 22 68 31.5t85 12.5q14 1 40 1q25 0 37 -1q48 -2 63 -2q66 0 112 -24.5t72 -66.5q42 -68 42 -191q0 -25 -4 -59q-7 -41 -13.5 -60t-28.5 -38q-23 -20 -52 -33.5t-68 -26.5l-56 -19q-87 -33 -132.5 -61t-72.5 -80q-27 -55 -34 -121.5
t-7 -183.5v-37zM741 358h-360v-358h360v358z" />
    <glyph glyph-name="at" unicode="@" horiz-adv-x="2026" 
d="M1869 248q-100 -145 -205.5 -211t-234.5 -94l-177 -20q-105 -16 -248 -16q-66 0 -121 4q-554 36 -664 338l-47 134l-19 72l1 151l32 417l30 131l22 125l45 110l19 48l131 98l283 116l170 -5l168 -10l192 -44l397 -115l152 -175l39 -206l23 -157l-13 -187l-63 -208
q-99 -146 -182 -212l-150 -48l-94 -10q-6 0 -23.5 1t-28.5 4l-185 31l21 121q0 -3 -31.5 -25.5t-78.5 -42t-103 -19.5q-24 0 -44 4q-100 16 -174.5 91.5t-111.5 164.5q-30 74 -30 200q0 107 19 202q16 80 53 129t108 99q38 27 82 38.5t98 11.5q62 0 160 -15l196 -35l236 -80
l-137 -735q53 37 83 61l119 139l38 96l30 262l-13 132l-40 92l-135 130l-77 60l-154 10l-151 32l-293 -18l-164 -45l-133 -108l-42 -124l-35 -144l-20 -122l-6 -323l2 -133q106 -205 236 -231l98 -35l148 -23l159 -18l204 3l264 51l125 76zM1173 1005l-72 14q-37 8 -77 8
q-65 0 -109 -28q-49 -32 -69 -114q-5 -30 -5 -67q0 -67 18 -107q19 -42 57.5 -72t97.5 -41l89 -7z" />
    <glyph glyph-name="A" unicode="A" 
d="M434 175l520 -31l33 -145l322 -13l-371 1590l-236 4l-636 -1544l299 -17zM780 1080l135 -672l-387 25z" />
    <glyph glyph-name="B" unicode="B" horiz-adv-x="1346" 
d="M125 1574l35 -1602l565 17q60 2 203 24q29 5 40 10q10 5 14 9t9 12q4 6 19 16q94 57 143.5 148.5t46.5 206.5q-4 141 -48 248.5t-112 142.5q29 33 48 52l20 21q6 5 9 9l13 20q18 26 24 71.5t6 108.5q0 22 -2 66q-2 38 -2 52l-1 26q-7 151 -125 256q-32 29 -58 47.5
t-54 31.5q-63 28 -162 25zM406 921l-13 417l297 8q96 3 141.5 -40t47.5 -115v-94q0 -98 -69 -142q-38 -24 -112 -26zM412 216l-4 412l278 16q56 4 105 -15.5t85 -53.5q33 -31 52.5 -68t19.5 -68q0 -37 -15.5 -73t-45.5 -66q-32 -32 -78 -51t-102 -21z" />
    <glyph glyph-name="C" unicode="C" horiz-adv-x="1325" 
d="M903 449q-14 -66 -34.5 -99t-51.5 -46q-28 -12 -68 -12l-118 1q-28 0 -56 -2l-19 -1q-29 0 -50 10q-22 9 -40 23.5t-30 45.5q-25 65 -28 186q-2 74 -2 117q0 59 -3 141q-2 52 -2 79q0 147 23 250q17 76 55 116q40 38 97 55q52 15 151 15q64 0 90.5 -11t44.5 -37
q13 -16 18 -27t10 -26q2 -7 4 -21q2 -13 7 -28l258 6q-10 138 -41 216.5t-93 117.5q-48 30 -122 41t-191 11q-67 0 -104 -1q-174 -4 -272 -56t-143 -152q-27 -61 -39.5 -140.5t-15.5 -167.5t-3 -231v-162q0 -201 30 -365q15 -79 45 -126.5t84 -82.5q93 -61 237 -81
q72 -10 118 -9q155 4 252.5 25.5t158.5 70.5q62 50 90 136t26 219z" />
    <glyph glyph-name="D" unicode="D" horiz-adv-x="1317" 
d="M166 1586v-1606h391q65 0 158 17q119 22 172 37q99 28 161 106q29 36 47 77t23 81q22 167 25 250q2 59 1 87t-1 101v170q0 209 -39 361q-19 74 -54.5 124t-86.5 94q-81 70 -221 91q-69 10 -171 10h-405zM453 1281q29 3 81 3q45 0 69 -2q47 -3 85 -15t55 -31
q22 -28 35.5 -50.5t24.5 -58.5q28 -89 43 -256q2 -32 2 -50q0 -56 -10 -121q-12 -77 -29 -138q-25 -92 -70 -139q-18 -19 -38 -31l-33 -18q-28 -15 -102 -32q-31 -7 -60 -12q-24 -4 -43 -8z" />
    <glyph glyph-name="E" unicode="E" horiz-adv-x="1288" 
d="M1075 1582l-907 -29l31 -1568l925 20l-8 164l-581 -19l-35 486l504 -4l-17 248l-508 -41l-41 503l629 4z" />
    <glyph glyph-name="F" unicode="F" horiz-adv-x="1249" 
d="M1110 1602l-965 -63l78 -1563l246 19l-35 718l582 45l-21 285l-575 -37l-17 314l717 53z" />
    <glyph glyph-name="G" unicode="G" horiz-adv-x="1452" 
d="M911 511q102 0 102 -57q0 -26 -19 -58.5t-52 -64.5l-45 -25q-42 -15 -66 -21t-43 -6h-36q-20 0 -47 -4q-33 -5 -56 -5q-42 0 -72.5 14.5t-53.5 46.5q-30 42 -49.5 124t-31.5 216l-3 39q-16 169 -20 207q-7 57 -7 115q0 138 54 208q31 39 83.5 55t133.5 27l29 4q24 4 52 4
q82 0 127 -49q31 -34 37 -111l289 29q-11 93 -22.5 148.5t-35.5 99.5q-13 24 -27.5 40t-35.5 29q-40 24 -144 48q-61 14 -137 14q-78 0 -207 -14q-133 -14 -201 -43q-76 -32 -141 -86q-71 -60 -101 -143t-30 -194q0 -81 13 -192q17 -139 26 -231q9 -144 32 -269
q31 -170 91 -233q42 -47 71 -86q29 -38 70.5 -60.5t104.5 -28.5q16 -2 57 -2q71 0 161 9.5t154 24.5q102 24 176 56t131 100q64 74 91 192l-27 348l-391 -45z" />
    <glyph glyph-name="H" unicode="H" horiz-adv-x="1468" 
d="M436 1553l-286 -4l81 -1569l287 3l-14 647l446 30l37 -655l320 16l-82 1569l-320 -16l17 -627l-433 -37z" />
    <glyph glyph-name="I" unicode="I" horiz-adv-x="752" 
d="M537 1578h-330v-1638h354z" />
    <glyph glyph-name="J" unicode="J" horiz-adv-x="1217" 
d="M827 1586l-61 -1078q-5 -87 -35.5 -150.5t-77.5 -96t-98 -29.5q-16 0 -77 9l-33 5q-5 1 -6.5 1.5t1.5 0.5q2 0 -12 8q-42 22 -66 73q-16 30 -14 81l-209 37q-12 -63 -12 -112q0 -79 35 -150q42 -55 68 -82t66 -46q44 -22 111.5 -34t180.5 -18q33 -3 57 -3q38 0 78 8
q19 4 43 14q6 3 53 22q63 26 105 78q31 39 57 110q28 64 33 166q4 96 12 227l51 942z" />
    <glyph glyph-name="K" unicode="K" horiz-adv-x="1448" 
d="M1319 44l-342 -31l-467 506l16 -529l-282 -12l-94 1565l282 14l27 -555l448 578l299 12l-553 -776z" />
    <glyph glyph-name="L" unicode="L" horiz-adv-x="1341" 
d="M385 1569l-260 -4l70 -1571l1030 47l-17 277l-706 -33z" />
    <glyph glyph-name="M" unicode="M" horiz-adv-x="1589" 
d="M387 1511l-252 -17l103 -1503l251 12l-30 740l360 -662l277 678l45 -694l291 20l-103 1499l-254 -22l-301 -803z" />
    <glyph glyph-name="N" unicode="N" horiz-adv-x="1366" 
d="M524 1563l-278 30l-131 -1552l299 -29l65 709l342 -717l240 -47l133 1553l-305 26l-68 -702z" />
    <glyph glyph-name="O" unicode="O" horiz-adv-x="1419" 
d="M240 1344q-25 -49 -45.5 -136.5t-31.5 -195.5q-10 -93 -10 -205q0 -142 17 -267q16 -123 53 -228.5t94 -180.5q109 -145 282 -145q32 0 60 4q17 -1 50 -1q175 0 284 41t169 126q59 84 79.5 216.5t20.5 345.5q0 281 -24 444.5t-88 254.5q-44 63 -111 99.5t-161.5 52
t-230.5 15.5q-159 0 -278 -79q-48 -32 -80.5 -72t-48.5 -81v-8zM412 853q0 156 23 251t76 141t144 46q71 0 111 -3.5t74.5 -18.5t59.5 -49q41 -55 59 -169q18 -115 18 -329q0 -143 -17 -231q-11 -55 -24 -93.5t-33 -60.5q-72 -82 -252 -82q-55 0 -93 33t-65 90
q-21 45 -38 107q-12 43 -29 99z" />
    <glyph glyph-name="P" unicode="P" horiz-adv-x="1217" 
d="M193 1582l-29 -1590h239l21 660l186 2q106 1 190.5 33.5t143.5 90.5q57 56 88 131t33 161q2 100 -16.5 189t-59.5 156q-45 72 -115.5 113t-168.5 43zM485 924l2 410l88 -2q60 -1 103.5 -24.5t68.5 -61.5q22 -33 31.5 -72.5t9.5 -77.5q-5 -83 -50 -124q-58 -53 -179 -50z
" />
    <glyph glyph-name="Q" unicode="Q" horiz-adv-x="1436" 
d="M1242 573q3 62 3 124q0 47 -1 70q-3 98 -3 178q0 149 -15.5 253t-50.5 174q-36 71 -91 114.5t-136 66.5q-67 19 -129.5 29t-142.5 10q-20 0 -70 -2q-100 -5 -140 -16q-55 -15 -77 -26q-27 -14 -38 -26q-10 -11 -21 -16q-61 -27 -97.5 -106.5t-57.5 -201.5
q-28 -164 -28 -434q0 -236 19 -382q28 -215 110 -283q47 -38 91 -59.5t91 -33.5q40 -10 83 -10h82q42 0 96 -2q84 -4 118 -4l35 1q57 2 89 5q39 10 55 23q14 13 17 21q1 2 2 6t3 4t15 -9l42 -29q14 -11 28 -19q16 -9 61 -38l135 195l-43 27q-33 19 -57 39q-11 8 -56 49
q68 86 79 308zM842 451l-30 18l-21 11q-13 6 -50 28v-211q2 -8 11 -14.5t19.5 -12t13.5 -7.5q15 -10 23 -14q4 -2 4.5 -3.5t-3.5 -1.5q-73 -5 -116 -10q-44 -4 -63 -4q-76 0 -126 29q-39 23 -64 79.5t-37 153.5q-9 72 -9 178q0 88 5.5 176t15.5 150q16 104 30.5 163.5
t36.5 96.5q42 73 105 90q29 8 60 12q32 5 71 5q86 0 136.5 -37t75.5 -109q22 -64 28.5 -153.5t6.5 -234.5v-77v-45q0 -110 -7 -167q-14 -103 -43 -134z" />
    <glyph glyph-name="R" unicode="R" 
d="M135 81l260 -25l58 614l41 -4q17 0 22 -1q7 0 11.5 -1.5t10.5 -6.5q6 -6 17 -13q7 -7 22.5 -33t32.5 -56l33 -64q22 -42 29 -52l276 -446l309 -21q-187 333 -312 535l-36 58q-5 9 -31 51l-28 44q66 10 107 13q54 4 83 18q99 47 156 133.5t64 206.5q2 34 2 57q0 58 -6 116
q-5 47 -15 89t-24 66q-60 102 -170 145q-32 13 -45 20q-34 16 -92 25q-38 5 -83 8l-575 31zM481 986l29 344l223 -14l55 -6q73 -7 115 -26q24 -11 43.5 -31t30.5 -42q19 -37 17 -71l-3 -37q-4 -50 -38.5 -85.5t-80.5 -39.5q-41 -7 -114 -7q-22 0 -52 2l-32 1z" />
    <glyph glyph-name="S" unicode="S" horiz-adv-x="1309" 
d="M158 371q4 -62 8.5 -95.5t13.5 -57.5q10 -27 29 -51.5t57 -61.5q39 -37 72 -57.5t75 -31.5q43 -11 103.5 -15.5t155.5 -4.5h78q25 0 39.5 2.5t29.5 9.5q17 8 49 21q140 62 218.5 179.5t78.5 260.5q0 124 -59 218q-60 95 -186 161q-30 16 -50.5 24t-54.5 18q-40 10 -72 16
q-33 6 -63 13l-53 11q-62 12 -123 57q-68 50 -82 111q-7 18 -7 60q0 18 1 28q3 37 9 65t21 52q13 21 37.5 39.5t54.5 29.5q39 14 84 14q31 0 60 -7q12 -4 29 -7q66 -17 113 -72q29 -35 42 -91h252q-21 114 -49.5 181.5t-76.5 104.5t-127 56t-218 31q-162 2 -258 -33
t-141 -101q-27 -39 -40.5 -88t-18 -96.5t-7.5 -124.5q0 -92 29 -177.5t88 -141.5q33 -32 59.5 -51t59.5 -34q34 -15 83.5 -25t133.5 -19q92 -10 155 -51q23 -15 42 -34l28 -30q20 -20 24 -75q1 -7 1 -22t-1 -23q-1 -15 -1 -38q0 -30 -17.5 -64t-48.5 -62q-73 -68 -162 -68
q-23 0 -61 -2l-28 -1q-41 0 -68 12q-20 9 -39 32l-18 23q-16 16 -26 50q-4 14 -9 41z" />
    <glyph glyph-name="T" unicode="T" horiz-adv-x="1374" 
d="M1202 1586l-1059 -88l13 -258l379 43l120 -1303l244 17l-84 1304l397 29z" />
    <glyph glyph-name="U" unicode="U" horiz-adv-x="1395" 
d="M862 1562l86 -1055q1 -10 1 -30q0 -115 -69.5 -178t-192.5 -63q-99 0 -143 57t-52 177l-74 1057l-273 -18l56 -945q2 -40 19 -170q15 -118 40 -186q16 -44 32 -72.5t37 -51.5q20 -21 48.5 -38.5t75.5 -40.5q41 -19 78.5 -26.5t105.5 -12.5q14 -1 39 -1q34 0 59 3
q16 1 40 8q25 8 119 28q38 8 67 20q11 5 47 18q20 9 37 17.5t29 17.5q15 12 61 59q73 83 93 229q9 65 9 130q0 74 -4 133l-66 952z" />
    <glyph glyph-name="V" unicode="V" horiz-adv-x="1276" 
d="M418 1579l-268 7l389 -1588l77 -2l504 1567l-293 8l-227 -755z" />
    <glyph glyph-name="W" unicode="W" horiz-adv-x="1581" 
d="M406 1574l-252 8l211 -1557l151 -10l213 657l141 -677l127 -9l433 1512l-277 28l-203 -747l-112 758l-103 6l-235 -705z" />
    <glyph glyph-name="X" unicode="X" horiz-adv-x="1497" 
d="M504 1551l-326 8l432 -807l-467 -725l349 -20l280 487l252 -495h313l-376 768l372 780h-289l-272 -553z" />
    <glyph glyph-name="Y" unicode="Y" horiz-adv-x="1493" 
d="M432 1553l-301 4l471 -758l12 -819l273 16l-8 781l481 784l-303 8l-312 -512z" />
    <glyph glyph-name="Z" unicode="Z" horiz-adv-x="1456" 
d="M1167 1580l-1061 -122l7 -228l733 96l-676 -1148l23 -234l1120 127l-23 246l-784 -92l672 1132z" />
    <glyph glyph-name="bracketleft" unicode="[" horiz-adv-x="797" 
d="M135 -407v1873h615v-316h-243v-1241h243v-316h-615z" />
    <glyph glyph-name="backslash" unicode="\" horiz-adv-x="569" 
d="M568 -24h-206l-368 1515h208z" />
    <glyph glyph-name="bracketright" unicode="]" horiz-adv-x="797" 
d="M662 -407h-615v316h243v1241h-243v316h615v-1873z" />
    <glyph glyph-name="asciicircum" unicode="^" horiz-adv-x="1352" 
d="M125 678l408 813h279l408 -813h-353l-193 491l-195 -491h-354z" />
    <glyph glyph-name="underscore" unicode="_" horiz-adv-x="1024" 
d="M-12 -256v102h1048v-102h-1048z" />
    <glyph glyph-name="grave" unicode="`" horiz-adv-x="682" 
d="M664 1717l-28 -70l-576 117l75 217z" />
    <glyph glyph-name="A.66" unicode="a" 
d="M434 175l520 -31l33 -145l322 -13l-371 1590l-236 4l-636 -1544l299 -17zM780 1080l135 -672l-387 25z" />
    <glyph glyph-name="B.67" unicode="b" horiz-adv-x="1346" 
d="M125 1574l35 -1602l565 17q60 2 203 24q29 5 40 10q10 5 14 9t9 12q4 6 19 16q94 57 143.5 148.5t46.5 206.5q-4 141 -48 248.5t-112 142.5q29 33 48 52l20 21q6 5 9 9l13 20q18 26 24 71.5t6 108.5q0 22 -2 66q-2 38 -2 52l-1 26q-7 151 -125 256q-32 29 -58 47.5
t-54 31.5q-63 28 -162 25zM406 921l-13 417l297 8q96 3 141.5 -40t47.5 -115v-94q0 -98 -69 -142q-38 -24 -112 -26zM412 216l-4 412l278 16q56 4 105 -15.5t85 -53.5q33 -31 52.5 -68t19.5 -68q0 -37 -15.5 -73t-45.5 -66q-32 -32 -78 -51t-102 -21z" />
    <glyph glyph-name="C.68" unicode="c" horiz-adv-x="1325" 
d="M903 449q-14 -66 -34.5 -99t-51.5 -46q-28 -12 -68 -12l-118 1q-28 0 -56 -2l-19 -1q-29 0 -50 10q-22 9 -40 23.5t-30 45.5q-25 65 -28 186q-2 74 -2 117q0 59 -3 141q-2 52 -2 79q0 147 23 250q17 76 55 116q40 38 97 55q52 15 151 15q64 0 90.5 -11t44.5 -37
q13 -16 18 -27t10 -26q2 -7 4 -21q2 -13 7 -28l258 6q-10 138 -41 216.5t-93 117.5q-48 30 -122 41t-191 11q-67 0 -104 -1q-174 -4 -272 -56t-143 -152q-27 -61 -39.5 -140.5t-15.5 -167.5t-3 -231v-162q0 -201 30 -365q15 -79 45 -126.5t84 -82.5q93 -61 237 -81
q72 -10 118 -9q155 4 252.5 25.5t158.5 70.5q62 50 90 136t26 219z" />
    <glyph glyph-name="D.69" unicode="d" horiz-adv-x="1317" 
d="M166 1586v-1606h391q65 0 158 17q119 22 172 37q99 28 161 106q29 36 47 77t23 81q22 167 25 250q2 59 1 87t-1 101v170q0 209 -39 361q-19 74 -54.5 124t-86.5 94q-81 70 -221 91q-69 10 -171 10h-405zM453 1281q29 3 81 3q45 0 69 -2q47 -3 85 -15t55 -31
q22 -28 35.5 -50.5t24.5 -58.5q28 -89 43 -256q2 -32 2 -50q0 -56 -10 -121q-12 -77 -29 -138q-25 -92 -70 -139q-18 -19 -38 -31l-33 -18q-28 -15 -102 -32q-31 -7 -60 -12q-24 -4 -43 -8z" />
    <glyph glyph-name="E.70" unicode="e" horiz-adv-x="1288" 
d="M1075 1582l-907 -29l31 -1568l925 20l-8 164l-581 -19l-35 486l504 -4l-17 248l-508 -41l-41 503l629 4z" />
    <glyph glyph-name="F.71" unicode="f" horiz-adv-x="1249" 
d="M1110 1602l-965 -63l78 -1563l246 19l-35 718l582 45l-21 285l-575 -37l-17 314l717 53z" />
    <glyph glyph-name="G.72" unicode="g" horiz-adv-x="1452" 
d="M911 511q102 0 102 -57q0 -26 -19 -58.5t-52 -64.5l-45 -25q-42 -15 -66 -21t-43 -6h-36q-20 0 -47 -4q-33 -5 -56 -5q-42 0 -72.5 14.5t-53.5 46.5q-30 42 -49 123t-32 217l-23 246q-7 72 -7 114q0 139 54 209q31 39 83.5 55t133.5 27l29 4q25 4 53 4q83 0 126 -49
q31 -34 37 -111l289 29q-11 96 -22.5 150.5t-35.5 97.5q-13 24 -27.5 40t-35.5 29t-54 23.5t-90 24.5q-49 12 -127 12q-66 0 -217 -12q-133 -14 -201 -43q-69 -29 -141 -86q-72 -60 -101.5 -143t-29.5 -196q0 -93 13 -190q17 -139 26 -231q9 -144 32 -269q31 -170 91 -233
q42 -47 71 -86q28 -38 69.5 -60t105.5 -29q26 -3 59 -3q70 0 159.5 10t153.5 25q102 24 176 56t131 100q64 74 91 192l-27 348l-391 -45z" />
    <glyph glyph-name="H.73" unicode="h" horiz-adv-x="1468" 
d="M436 1553l-286 -4l81 -1569l287 3l-14 647l446 30l37 -655l320 16l-82 1569l-320 -16l17 -627l-433 -37z" />
    <glyph glyph-name="I.74" unicode="i" horiz-adv-x="752" 
d="M537 1578h-330v-1638h354z" />
    <glyph glyph-name="J.75" unicode="j" horiz-adv-x="1217" 
d="M827 1586l-61 -1078q-5 -87 -36 -150.5t-77.5 -96t-97.5 -29.5q-16 0 -77 9l-33 5q-5 1 -6.5 1.5t1.5 0.5q2 0 -12 8q-42 22 -66 73q-16 30 -14 81l-209 37q-12 -63 -12 -112q0 -79 35 -150q43 -56 69 -82.5t65 -45.5q44 -22 111.5 -34t180.5 -18q35 -3 60 -3q43 0 75 8
q19 4 43 14q6 3 53 22q62 27 105 78q31 39 57 110q28 64 33 166q4 96 12 227l51 942z" />
    <glyph glyph-name="K.76" unicode="k" horiz-adv-x="1448" 
d="M432 1557l-282 -14l94 -1565l282 12l-16 529l467 -506l342 31l-666 772l553 776l-299 -12l-448 -578z" />
    <glyph glyph-name="L.77" unicode="l" horiz-adv-x="1341" 
d="M385 1569l-260 -4l70 -1571l1030 47l-17 277l-706 -33z" />
    <glyph glyph-name="M.78" unicode="m" horiz-adv-x="1589" 
d="M387 1511l-252 -17l103 -1503l251 12l-30 740l360 -662l277 678l45 -694l291 20l-103 1499l-254 -22l-301 -803z" />
    <glyph glyph-name="N.79" unicode="n" horiz-adv-x="1366" 
d="M524 1563l-278 30l-131 -1552l299 -29l65 709l342 -717l240 -47l133 1553l-305 26l-68 -702z" />
    <glyph glyph-name="O.80" unicode="o" horiz-adv-x="1419" 
d="M240 1344q-25 -49 -45.5 -136.5t-31.5 -195.5q-10 -93 -10 -205q0 -142 17 -267q16 -123 53 -228.5t94 -180.5q109 -145 282 -145q32 0 60 4q17 -1 50 -1q175 0 283.5 41t169.5 126q59 84 79.5 216.5t20.5 345.5q0 281 -24 444.5t-88 254.5q-44 63 -111 99.5t-161.5 52
t-230.5 15.5q-159 0 -278 -79q-48 -32 -80.5 -72t-48.5 -81v-8zM412 853q0 156 23 251t76 141t144 46q71 0 111 -3.5t74.5 -18.5t59.5 -49q39 -52 59 -169q18 -115 18 -329q0 -136 -17 -231q-11 -55 -24 -93.5t-33 -60.5q-70 -82 -252 -82q-103 0 -158 123q-25 53 -38 107
q-12 43 -29 99z" />
    <glyph glyph-name="P.81" unicode="p" horiz-adv-x="1217" 
d="M193 1582l-29 -1590h239l21 660l186 2q107 2 191.5 34t142.5 90q60 59 90.5 140t30.5 175q0 200 -76 322q-45 72 -115.5 113t-168.5 43zM485 924l2 410l88 -2q61 -2 103.5 -25t68.5 -61q22 -33 31.5 -72.5t9.5 -77.5q-5 -83 -50 -124q-59 -54 -179 -50z" />
    <glyph glyph-name="Q.82" unicode="q" horiz-adv-x="1436" 
d="M1242 573q3 62 3 124q0 47 -1 70q-3 98 -3 178q0 147 -15.5 251t-50.5 176q-35 71 -90 114t-137 67q-67 19 -129.5 29t-142.5 10q-20 0 -70 -2q-93 -5 -140 -16q-55 -15 -77 -26q-27 -14 -38 -26q-10 -11 -21 -16q-62 -27 -98.5 -107t-56.5 -201q-28 -164 -28 -434
q0 -236 19 -382q28 -215 110 -283q89 -73 182 -93q40 -10 83 -10h82q42 0 96 -2q62 -3 116 -3h37q57 2 89 5q39 10 55 23q14 13 17 21q1 2 2 6t3 4q3 0 15 -9l42 -29q14 -11 28 -19q16 -9 61 -38l135 195l-43 27q-33 19 -57 39q-11 8 -56 49q67 83 79 308zM842 451l-30 18
l-21 11q-13 6 -50 28v-211q2 -8 11 -14.5t19.5 -12t13.5 -7.5q15 -10 23 -14q4 -2 4.5 -3.5t-3.5 -1.5q-73 -5 -116 -10q-44 -4 -63 -4q-76 0 -126 29q-40 23 -65 79.5t-36 153.5q-9 74 -9 183q0 86 5.5 173t15.5 148q16 104 30.5 163.5t36.5 96.5q42 73 105 90q29 8 60 12
q39 6 72 6q85 0 135.5 -37.5t75.5 -109.5q22 -64 28.5 -153.5t6.5 -234.5v-77q0 -57 -1 -114t-6 -98q-14 -103 -43 -134z" />
    <glyph glyph-name="R.83" unicode="r" 
d="M135 81l260 -25l58 614l41 -4q17 0 22 -1q7 0 11.5 -1.5t10.5 -6.5q6 -6 17 -13q7 -7 22.5 -33t32.5 -56l33 -64q22 -42 29 -52l276 -446l309 -21q-145 258 -312 535l-67 109l-28 44q66 10 107 13q54 4 83 18q97 49 153 134.5t67 205.5q2 34 2 57q0 58 -6 116
q-5 47 -15 89t-24 66q-58 100 -170 145q-32 13 -45 20q-38 18 -92 25q-16 2 -83 8l-575 31zM481 986l29 344l223 -14l55 -6q73 -7 115 -26q24 -11 43.5 -31t30.5 -42q19 -37 17 -71l-3 -37q-4 -50 -38.5 -85.5t-80.5 -39.5q-41 -7 -114 -7q-22 0 -52 2l-32 1z" />
    <glyph glyph-name="S.84" unicode="s" horiz-adv-x="1309" 
d="M158 371q4 -62 8.5 -95.5t13.5 -57.5q9 -26 28 -50t58 -63q39 -37 72 -57.5t75 -31.5q43 -11 103.5 -15.5t155.5 -4.5h78q25 0 39.5 2.5t29.5 9.5q17 8 49 21q140 62 218.5 179.5t78.5 260.5q0 120 -59 218q-62 98 -186 161q-30 16 -50.5 24t-54.5 18q-40 10 -72 16
q-39 7 -116 24q-65 13 -123 57q-68 50 -82 111q-7 18 -7 60q0 18 1 28q6 76 30 117q13 21 37 39t55 30q39 14 84 14q31 0 60 -7q12 -4 29 -7q66 -17 113 -72q29 -35 42 -91h252q-21 114 -49.5 181t-76.5 105q-48 37 -127 56t-218 31q-162 2 -258 -33t-141 -101
q-27 -39 -40.5 -88t-18 -96.5t-7.5 -124.5q0 -94 29 -179.5t88 -139.5q34 -33 60 -52t59 -33q35 -15 85 -25.5t132 -18.5q92 -10 155 -51q23 -15 42 -34l28 -30q22 -22 24 -75q1 -7 1 -22t-1 -23q-1 -15 -1 -38q0 -30 -17.5 -64t-48.5 -62q-73 -68 -162 -68q-23 0 -61 -2
q-10 -1 -29 -1q-40 0 -67 12q-20 9 -39 32l-18 23q-14 14 -26 50q-4 14 -9 41z" />
    <glyph glyph-name="T.85" unicode="t" horiz-adv-x="1374" 
d="M1202 1586l-1059 -88l13 -258l379 43l120 -1303l244 17l-84 1304l397 29z" />
    <glyph glyph-name="U.86" unicode="u" horiz-adv-x="1395" 
d="M862 1562l86 -1055q1 -9 1 -27q0 -117 -69.5 -180.5t-192.5 -63.5q-99 0 -143 57t-52 177l-74 1057l-273 -18l56 -945q6 -67 19 -170q15 -118 40 -186q16 -44 32 -73t37 -51q39 -42 124 -79q41 -20 79.5 -27.5t104.5 -11.5q14 -1 39 -1q34 0 59 3q16 1 40 8q49 13 119 28
q38 8 67 20q11 5 47 18q20 9 37 17.5t29 17.5q15 12 61 59q73 83 93 229q9 65 9 130q0 74 -4 133l-66 952z" />
    <glyph glyph-name="V.87" unicode="v" horiz-adv-x="1276" 
d="M418 1579l-268 7l389 -1588l77 -2l504 1567l-293 8l-227 -755z" />
    <glyph glyph-name="W.88" unicode="w" horiz-adv-x="1581" 
d="M406 1574l-252 8l211 -1557l151 -10l213 657l141 -677l127 -9l433 1512l-277 28l-203 -747l-112 758l-103 6l-235 -705z" />
    <glyph glyph-name="X.89" unicode="x" horiz-adv-x="1497" 
d="M504 1551l-326 8l432 -807l-467 -725l349 -20l280 487l252 -495h313l-376 768l372 780h-289l-272 -553z" />
    <glyph glyph-name="Y.90" unicode="y" horiz-adv-x="1493" 
d="M432 1553l-301 4l471 -758l12 -819l273 16l-8 781l481 784l-303 8l-312 -512z" />
    <glyph glyph-name="Z.91" unicode="z" horiz-adv-x="1456" 
d="M1167 1580l-1061 -122l7 -228l733 96l-676 -1148l23 -234l1120 127l-23 246l-784 -92l672 1132z" />
    <glyph glyph-name="braceleft" unicode="{" horiz-adv-x="797" 
d="M774 1491v-328h-45q-62 0 -94 -26t-45 -82q-6 -26 -8 -164q-2 -137 -28 -212q-20 -58 -52 -90t-97 -60q68 -31 100 -65t55 -101q23 -71 23 -219q0 -134 14 -176q14 -41 47 -58q32 -17 130 -17v-324h-126q-127 0 -205 18.5t-121 54.5t-68 94q-35 82 -35 244q0 24 2 72
q1 15 1 45q0 115 -21 165q-21 49 -61 71t-114 24v343q75 0 114 23.5t60 74.5q20 51 20 167v34q-1 15 -1 46q0 177 30 256q28 76 72.5 114.5t114.5 54.5q88 21 203 21h135z" />
    <glyph glyph-name="bar" unicode="|" horiz-adv-x="569" 
d="M160 -404v1870h255v-1870h-255z" />
    <glyph glyph-name="braceright" unicode="}" horiz-adv-x="797" 
d="M361 1470q70 -16 114.5 -54.5t72.5 -114.5q30 -80 30 -256q0 -31 -1 -46v-34q0 -116 20 -167q21 -51 60 -74.5t114 -23.5v-343q-74 -2 -114 -24t-61 -71t-21 -165q0 -30 1 -45q2 -48 2 -72q0 -162 -35 -244q-25 -58 -68 -94t-121 -54.5t-205 -18.5h-126v324q98 0 130 17
q33 17 47 58q14 42 14 176q0 148 23 219q23 67 55 101t100 65q-65 28 -97 60t-52 90q-26 75 -28 212q-2 138 -8 164q-13 56 -45 82t-94 26h-45v328h135q115 0 203 -21z" />
    <glyph glyph-name="asciitilde" unicode="~" horiz-adv-x="1352" 
d="M1246 646q-76 -61 -131.5 -94.5t-102 -46.5t-99.5 -13q-61 0 -120.5 18.5t-178.5 78.5q-124 63 -197 63q-155 0 -318 -160v329q93 83 173.5 118t177.5 35q51 0 106 -16.5t156 -65.5q99 -49 148 -64q42 -13 83 -13q134 0 303 157v-326z" />
    <glyph glyph-name="exclamdown" unicode="&#xa1;" horiz-adv-x="753" 
d="M150 1086l24 -226l284 13l-26 239zM199 663l91 -971l302 40l-123 955z" />
    <glyph glyph-name="sterling" unicode="&#xa3;" horiz-adv-x="1325" 
d="M1172 260l-50 -256l-850 -4l-80 258q41 15 83 51.5t68.5 91t22.5 120.5l-4 77l1 68q-48 0 -68.5 0.5t-24.5 0.5q-26 3 -41 3l-28 -1l-51 -1l7 237q53 0 72 1q5 1 16 1t17 -1h107l3 160l-9 91q-3 24 -3 59q0 57 10 87q20 78 47 118q37 55 99 90l52 27q20 11 43 19t29 9
t26 2q70 2 95 2q72 0 121.5 -6t86.5 -20q42 -15 70.5 -39.5t79.5 -78.5q28 -44 40.5 -90t12.5 -104q0 -19 -4 -71l-216 17q-5 52 -23 82q-30 49 -74 67q-7 3 -23.5 6.5t-29.5 4.5q-57 3 -59 3q-10 0 -20 -2q-44 -10 -68.5 -48t-38.5 -116q2 -24 7.5 -99.5t12.5 -173.5
q52 -1 127 -1q81 0 88 -1q5 -1 33 -1l71 1l95 -218q-13 0 -22 -0.5t-15 -1.5l-24 -2l-35 -2l-116 -2l-194 -8q-3 -27 -7 -79q-6 -83 -13 -131t-22.5 -89t-45.5 -68q-2 -8 -4 -20t-4 -20z" />
    <glyph glyph-name="yen" unicode="&#xa5;" horiz-adv-x="1493" 
d="M1360 1561l-474 -772l393 9v-194h-399l2 -146l397 9v-194h-395l3 -277l-273 -16l-5 293h-398v170l396 9l-3 152h-393v170l391 9v16l-471 758l301 -4l313 -496l312 512z" />
    <glyph glyph-name="dieresis" unicode="&#xa8;" horiz-adv-x="1019" 
d="M191 1717l232 -17l18 247l-232 17zM563 1690l232 -16l17 247l-231 16z" />
    <glyph glyph-name="copyright" unicode="&#xa9;" horiz-adv-x="1572" 
d="M1074 93q9 -1 3 -3.5t-15.5 -5t-13.5 -3.5q-53 -13 -138 -21.5t-174 -8.5q-469 0 -579 250l-48 111l-19 59l-8 128l4 354l19 113l12 107l32 95l14 42l105 90l233 113l143 6h144l164 -27l342 -77l138 -139l44 -172l8 -172l-14 -467q-36 -115 -72 -180.5t-86.5 -103
t-133.5 -60.5zM576 209l133 -11l165 7l220 37l84 38l112 120l31 92l12 77l11 97l19 65l-2 275l-19 119l-42 80l-128 109l-73 50h-139l-138 19l-262 -33l-145 -49l-113 -105l-30 -113l-23 -132l-12 -111l14 -291l9 -120q107 -178 226 -193zM625 595l40 -38l37 -15l55 -6
l168 8l31 9l32 21l14 27q6 32 6 47q0 6 -2 12q-3 3 242 23l8 -109q-14 -33 -27 -57q-8 -3 -46 -44l-72 -44l-71 -34l-120 -19l-279 -10l-10 6l-63 21l-57 28l-63 52q-54 73 -79 80q2 6 2 27q0 85 -40 392l13 67l31 61l53 76l83 54l89 31l283 22l42 -9l102 -27l47 -30l50 -41
l40 -61l29 -91l-249 -25l-47 68l-98 22q-6 1 -16 2t-24 1q-53 0 -97.5 -27.5t-70 -77.5t-25.5 -114q0 -73 31 -150z" />
    <glyph glyph-name="macron" unicode="&#xaf;" horiz-adv-x="884" 
d="M210 1867l-3 -184l486 -2l-11 199z" />
    <glyph glyph-name="acute" unicode="&#xb4;" horiz-adv-x="1002" 
d="M207 1736l28 -70l576 117l-75 217z" />
    <glyph glyph-name="periodcentered" unicode="&#xb7;" horiz-adv-x="600" 
d="M96 881l-20 -401l428 -22l21 401z" />
    <glyph glyph-name="cedilla" unicode="&#xb8;" horiz-adv-x="805" 
d="M287 -302l34 -10q28 -8 29 -8q24 -7 48 -7q35 0 54 16q11 10 14 14t4.5 11t4.5 16q4 13 6 29q1 4 1 12q0 16 -13 35q-14 22 -41 41l-23 16q-41 31 -58.5 54t-17.5 61q0 23 6 50t18 68l5 17l153 -46q0 -4 -2 -16t-5 -20q-13 -36 -11 -68q1 -15 14 -30.5t32 -28.5
q21 -15 34.5 -27t23.5 -30q11 -19 16 -52q2 -15 -6 -65q-3 -25 -10 -53q-13 -46 -43 -83q-34 -40 -80 -56q-12 -5 -31 -5q-23 0 -53 8q-9 2 -49 14q-11 4 -49 16q-64 19 -85 27l32 113z" />
    <glyph glyph-name="questiondown" unicode="&#xbf;" horiz-adv-x="1194" 
d="M453 975h360v358h-360v-358zM467 872q-8 -42 -7 -77q3 -90 -18 -147q-11 -30 -47 -54t-83 -39q-50 -16 -85 -33.5t-67 -48.5q-36 -35 -64 -96q-13 -34 -27 -137q-10 -76 -10 -136q0 -113 39 -205q43 -102 129 -163q31 -22 74.5 -31.5t100.5 -11.5q18 -1 53 -1q37 0 55 1
q74 2 111 2q157 0 240 10.5t134 45.5q54 37 83.5 115t45.5 218l-186 4q-4 -119 -78 -173q-56 -40 -153 -44q-13 -1 -40 -1q-25 0 -37 1q-48 2 -63 2q-66 0 -112 24.5t-72 66.5q-42 68 -42 191q0 25 4 59q5 39 12.5 59t29.5 39q23 20 52 33.5t68 26.5l56 19q60 23 95 39
t64 41t46 61q27 55 34 121.5t7 183.5v37z" />
    <glyph glyph-name="Agrave" unicode="&#xc0;" 
d="M1135 1736l-28 -70l-576 117l75 217zM434 205l520 -31l33 -145l322 -13l-371 1590l-236 4l-636 -1544l299 -17zM780 1110l135 -672l-387 25z" />
    <glyph glyph-name="Aacute" unicode="&#xc1;" 
d="M560 1736l28 -70l576 117l-75 217zM434 205l520 -31l33 -145l322 -13l-371 1590l-236 4l-636 -1544l299 -17zM780 1110l135 -672l-387 25z" />
    <glyph glyph-name="Acircumflex" unicode="&#xc2;" 
d="M343 1712l133 -36l337 110l336 -105l15 101l-251 192l-178 26zM434 205l520 -31l33 -145l322 -13l-371 1590l-236 4l-636 -1544l299 -17zM780 1110l135 -672l-387 25z" />
    <glyph glyph-name="Atilde" unicode="&#xc3;" 
d="M964 1677q25 0 53 8.5t50 19.5q8 4 46 28q27 18 45 27q1 13 1 46l-1 68l-50 28q-3 -2 -13.5 -8.5t-22 -16.5t-17.5 -19q-10 -14 -28 -19t-45 -5h-39q-24 3 -45.5 10.5t-52.5 21.5q-38 17 -63 25q-38 11 -89 11q-20 0 -50 -3q-37 -5 -64 -13.5t-51 -28.5q-1 -1 -9.5 -16.5
t-33.5 -27.5l-30 -53q5 -4 23 -19t45.5 -34t56.5 -31v-1q1 -1 20 22t49 36q39 16 89 16q18 0 29 -3q29 -11 63 -27q31 -15 56.5 -24t59.5 -16q12 -2 18 -2zM434 205l520 -31l33 -145l322 -13l-371 1590l-236 4l-636 -1544l299 -17zM780 1110l135 -672l-387 25z" />
    <glyph glyph-name="Adieresis" unicode="&#xc4;" 
d="M518 1717l232 -17l18 247l-232 17zM890 1690l232 -16l17 247l-231 16zM434 205l520 -31l33 -145l322 -13l-371 1590l-236 4l-636 -1544l299 -17zM780 1110l135 -672l-387 25z" />
    <glyph glyph-name="Aring" unicode="&#xc5;" 
d="M585 1883q0 -62 15 -112q8 -31 34 -51q47 -35 103 -53.5t115 -18.5q20 0 54 2q32 2 45 2q41 0 81 42q29 30 45.5 68t19.5 80l2 22q4 58 -20.5 110t-71.5 85l-2 2q-71 39 -141 39q-55 0 -141 -26q-9 -4 -37.5 -17.5t-41.5 -24.5q-19 -16 -35 -43t-21 -58q-3 -24 -3 -48z
M722 1914q30 58 120 70q77 -9 114 -32.5t37 -67.5q0 -6 -2 -20q-7 -39 -48 -66.5t-97 -27.5q-143 0 -143 87zM434 175l520 -31l33 -145l322 -13l-371 1590l-236 4l-636 -1544l299 -17zM780 1080l135 -672l-387 25z" />
    <glyph glyph-name="AE" unicode="&#xc6;" horiz-adv-x="1941" 
d="M1817 197l8 -164l-865 -19l-13 -1l-2 137l-486 29l-69 -156l-299 17l636 1544l156 -2l893 28l-8 -236l-629 -4l41 -503l508 41l17 -248l-504 4l32 -443l10 -43zM939 412v4l-44 335h-3v26l-40 307l-299 -647z" />
    <glyph glyph-name="Ccedilla" unicode="&#xc7;" horiz-adv-x="1325" 
d="M1150 228q-28 -86 -90 -136q-50 -41 -125.5 -62t-186.5 -29v-1q-13 -36 -11 -68q1 -10 7.5 -15.5t19.5 -12.5q12 -6 19 -11q21 -15 34.5 -27t23.5 -30q11 -19 16 -52q2 -15 -6 -65q-2 -18 -5.5 -28t-4.5 -15q-13 -46 -43 -83q-34 -40 -80 -56q-12 -5 -31 -5q-23 0 -53 8
q-9 2 -49 14q-11 4 -49 16q-64 19 -85 27l32 113l48 -13l34 -10q28 -8 29 -8q24 -7 48 -7q35 0 54 16q11 10 14 14t4.5 11t4.5 16q4 13 6 29q1 4 1 12q0 16 -13 35q-7 11 -20 18.5t-21 12.5l-23 16l-30 20q-26 15 -36 29t-10 47q0 24 6 51l-48 6q-144 20 -237 81
q-54 35 -84 82.5t-45 126.5q-30 164 -30 365v162q0 143 3 231t15.5 167.5t39.5 140.5q45 100 143 152t272 56q37 1 104 1q117 0 191 -11t122 -41q62 -39 93 -117.5t41 -216.5l-258 -6q-5 15 -7 28q-2 14 -4 21q-5 15 -10 26t-18 27q-18 26 -44.5 37t-90.5 11q-99 0 -151 -15
q-57 -17 -97 -55q-38 -40 -55 -116q-23 -103 -23 -250q0 -27 2 -79q3 -82 3 -141q0 -43 2 -117q3 -121 28 -186q12 -31 30 -45.5t40 -23.5q21 -10 50 -10l19 1q28 2 56 2l118 -1q40 0 68 12q31 13 51.5 46t34.5 99l273 -2q2 -133 -26 -219z" />
    <glyph glyph-name="Egrave" unicode="&#xc8;" horiz-adv-x="1288" 
d="M934 1747l-28 -70l-576 117l75 217zM1075 1582l-907 -29l31 -1568l925 20l-8 164l-581 -19l-35 486l504 -4l-17 248l-508 -41l-41 503l629 4z" />
    <glyph glyph-name="Eacute" unicode="&#xc9;" horiz-adv-x="1288" 
d="M354 1736l28 -70l576 117l-75 217zM1075 1582l-907 -29l31 -1568l925 20l-8 164l-581 -19l-35 486l504 -4l-17 248l-508 -41l-41 503l629 4z" />
    <glyph glyph-name="Ecircumflex" unicode="&#xca;" horiz-adv-x="1288" 
d="M183 1712l133 -36l337 110l336 -105l15 101l-251 192l-178 26zM1075 1582l-907 -29l31 -1568l925 20l-8 164l-581 -19l-35 486l504 -4l-17 248l-508 -41l-41 503l629 4z" />
    <glyph glyph-name="Edieresis" unicode="&#xcb;" horiz-adv-x="1288" 
d="M328 1717l232 -17l18 247l-232 17zM700 1690l232 -16l17 247l-231 16zM1075 1582l-907 -29l31 -1568l925 20l-8 164l-581 -19l-35 486l504 -4l-17 248l-508 -41l-41 503l629 4z" />
    <glyph glyph-name="Igrave" unicode="&#xcc;" horiz-adv-x="752" 
d="M664 1736l-28 -70l-576 117l75 217zM507 1578h-330v-1638h354z" />
    <glyph glyph-name="Iacute" unicode="&#xcd;" horiz-adv-x="752" 
d="M40 1736l28 -70l576 117l-75 217zM537 1578h-330v-1638h354z" />
    <glyph glyph-name="Icircumflex" unicode="&#xce;" horiz-adv-x="871" 
d="M10 1712l133 -36l337 110l336 -105l15 101l-251 192l-178 26zM624 1578h-330v-1638h354z" />
    <glyph glyph-name="Idieresis" unicode="&#xcf;" horiz-adv-x="752" 
d="M57 1717l232 -17l18 247l-232 17zM429 1690l232 -16l17 247l-231 16zM537 1578h-330v-1638h354z" />
    <glyph glyph-name="Eth" unicode="&#xd0;" horiz-adv-x="1370" 
d="M1197 635q1 -28 -1 -87q-3 -83 -25 -250q-5 -40 -23 -81t-47 -77q-62 -78 -161 -106q-53 -15 -172 -37q-93 -17 -158 -17h-391v650l-149 -12l-14 293l163 10v665h405q102 0 171 -10q140 -21 221 -91q51 -44 86.5 -94t54.5 -124q39 -152 39 -361v-170q0 -73 1 -101z
M891 700q10 65 10 121q0 18 -2 50q-15 167 -43 256q-11 36 -24.5 58.5t-35.5 50.5q-17 19 -55 31t-85 15q-24 2 -69 2q-52 0 -81 -3l3 -341l222 8l21 -285l-240 -11l4 -330q19 4 43 8q29 5 60 12q74 17 102 32l33 18q20 12 38 31q45 47 70 139q17 61 29 138z" />
    <glyph glyph-name="Ntilde" unicode="&#xd1;" horiz-adv-x="1366" 
d="M885 1687q25 0 53 8.5t50 19.5q8 4 46 28q27 18 45 27q1 13 1 46l-1 68l-50 28q-3 -2 -13.5 -8.5t-22 -16.5t-17.5 -19q-10 -14 -28 -19t-45 -5h-39q-24 3 -45.5 10.5t-52.5 21.5q-38 17 -63 25q-38 11 -89 11q-20 0 -50 -3q-37 -5 -64 -13.5t-51 -28.5q-1 -1 -9.5 -16.5
t-33.5 -27.5l-30 -53q5 -4 23 -19t45.5 -34t56.5 -31v-1q1 -1 20 22t49 36q39 16 89 16q18 0 29 -3q29 -11 63 -27q31 -15 56.5 -24t59.5 -16q12 -2 18 -2zM524 1563l-278 30l-131 -1552l299 -29l65 709l342 -717l240 -47l133 1553l-305 26l-68 -702z" />
    <glyph glyph-name="Ograve" unicode="&#xd2;" horiz-adv-x="1419" 
d="M1004 1736l-28 -70l-576 117l75 217zM240 1344q-25 -49 -45.5 -136.5t-31.5 -195.5q-10 -93 -10 -205q0 -142 17 -267q16 -123 53 -228.5t94 -180.5q109 -145 282 -145q32 0 60 4q17 -1 50 -1q175 0 284 41t169 126q59 84 79.5 216.5t20.5 345.5q0 281 -24 444.5
t-88 254.5q-44 63 -111 99.5t-161.5 52t-230.5 15.5q-159 0 -278 -79q-48 -32 -80.5 -72t-48.5 -81v-8zM412 853q0 156 23 251t76 141t144 46q71 0 111 -3.5t74.5 -18.5t59.5 -49q41 -55 59 -169q18 -115 18 -329q0 -143 -17 -231q-11 -55 -24 -93.5t-33 -60.5
q-72 -82 -252 -82q-55 0 -93 33t-65 90q-21 45 -38 107q-12 43 -29 99z" />
    <glyph glyph-name="Oacute" unicode="&#xd3;" horiz-adv-x="1419" 
d="M340 1736l28 -70l576 117l-75 217zM240 1344q-25 -49 -45.5 -136.5t-31.5 -195.5q-10 -93 -10 -205q0 -142 17 -267q16 -123 53 -228.5t94 -180.5q109 -145 282 -145q32 0 60 4q17 -1 50 -1q175 0 284 41t169 126q59 84 79.5 216.5t20.5 345.5q0 281 -24 444.5t-88 254.5
q-44 63 -111 99.5t-161.5 52t-230.5 15.5q-159 0 -278 -79q-48 -32 -80.5 -72t-48.5 -81v-8zM412 853q0 156 23 251t76 141t144 46q71 0 111 -3.5t74.5 -18.5t59.5 -49q41 -55 59 -169q18 -115 18 -329q0 -143 -17 -231q-11 -55 -24 -93.5t-33 -60.5q-72 -82 -252 -82
q-55 0 -93 33t-65 90q-21 45 -38 107q-12 43 -29 99z" />
    <glyph glyph-name="Ocircumflex" unicode="&#xd4;" horiz-adv-x="1419" 
d="M243 1712l133 -36l337 110l336 -105l15 101l-251 192l-178 26zM240 1344q-25 -49 -45.5 -136.5t-31.5 -195.5q-10 -93 -10 -205q0 -142 17 -267q16 -123 53 -228.5t94 -180.5q109 -145 282 -145q32 0 60 4q17 -1 50 -1q175 0 284 41t169 126q59 84 79.5 216.5t20.5 345.5
q0 281 -24 444.5t-88 254.5q-44 63 -111 99.5t-161.5 52t-230.5 15.5q-159 0 -278 -79q-48 -32 -80.5 -72t-48.5 -81v-8zM412 853q0 156 23 251t76 141t144 46q71 0 111 -3.5t74.5 -18.5t59.5 -49q41 -55 59 -169q18 -115 18 -329q0 -143 -17 -231q-11 -55 -24 -93.5
t-33 -60.5q-72 -82 -252 -82q-55 0 -93 33t-65 90q-21 45 -38 107q-12 43 -29 99z" />
    <glyph glyph-name="Otilde" unicode="&#xd5;" horiz-adv-x="1419" 
d="M837 1687q25 0 53 8.5t50 19.5q8 4 46 28q27 18 45 27q1 13 1 46l-1 68l-50 28q-3 -2 -13.5 -8.5t-22 -16.5t-17.5 -19q-10 -14 -28 -19t-45 -5h-39q-24 3 -45.5 10.5t-52.5 21.5q-38 17 -63 25q-38 11 -89 11q-20 0 -50 -3q-37 -5 -64 -13.5t-51 -28.5q-1 -1 -9.5 -16.5
t-33.5 -27.5l-30 -53q5 -4 23 -19t45.5 -34t56.5 -31v-1q1 -1 20 22t49 36q39 16 89 16q19 0 29 -3q29 -11 63 -27q31 -15 56.5 -24t59.5 -16q12 -2 18 -2zM240 1344q-25 -49 -45.5 -136.5t-31.5 -195.5q-10 -93 -10 -205q0 -142 17 -267q16 -123 53 -228.5t94 -180.5
q109 -145 282 -145q32 0 60 4q17 -1 50 -1q175 0 284 41t169 126q59 84 79.5 216.5t20.5 345.5q0 281 -24 444.5t-88 254.5q-44 63 -111 99.5t-161.5 52t-230.5 15.5q-159 0 -278 -79q-48 -32 -80.5 -72t-48.5 -81v-8zM412 853q0 156 23 251t76 141t144 46q71 0 111 -3.5
t74.5 -18.5t59.5 -49q41 -55 59 -169q18 -115 18 -329q0 -143 -17 -231q-11 -55 -24 -93.5t-33 -60.5q-72 -82 -252 -82q-55 0 -93 33t-65 90q-21 45 -38 107q-12 43 -29 99z" />
    <glyph glyph-name="Odieresis" unicode="&#xd6;" horiz-adv-x="1419" 
d="M378 1717l232 -17l18 247l-232 17zM750 1690l232 -16l17 247l-231 16zM240 1344q-25 -49 -45.5 -136.5t-31.5 -195.5q-10 -93 -10 -205q0 -142 17 -267q16 -123 53 -228.5t94 -180.5q109 -145 282 -145q32 0 60 4q17 -1 50 -1q175 0 284 41t169 126q59 84 79.5 216.5
t20.5 345.5q0 281 -24 444.5t-88 254.5q-44 63 -111 99.5t-161.5 52t-230.5 15.5q-159 0 -278 -79q-48 -32 -80.5 -72t-48.5 -81v-8zM412 853q0 156 23 251t76 141t144 46q71 0 111 -3.5t74.5 -18.5t59.5 -49q41 -55 59 -169q18 -115 18 -329q0 -143 -17 -231
q-11 -55 -24 -93.5t-33 -60.5q-72 -82 -252 -82q-55 0 -93 33t-65 90q-21 45 -38 107q-12 43 -29 99z" />
    <glyph glyph-name="Oslash" unicode="&#xd8;" horiz-adv-x="1419" 
d="M1255 1158.5q24 -163.5 24 -444.5q0 -213 -20.5 -345.5t-79.5 -216.5q-60 -85 -169 -126t-284 -41q-33 0 -50 1q-28 -4 -40 -4l-48 -162l-299 17l82 247q-19 19 -37 43q-57 75 -94 180.5t-53 228.5q-17 125 -17 267q0 112 10 205q11 108 31.5 195.5t45.5 136.5v8
q16 41 48.5 81t80.5 72q119 79 278 79q115 0 203 -12l58 173l236 -4l-73 -244q47 -33 79 -80q64 -91 88 -254.5zM487 431l285 853q-30 3 -100 3q-91 0 -144 -46t-76 -141t-23 -251l14 -269q17 -56 29 -99zM994 718q0 214 -18 329q-2 18 -8 45l-251 -840q143 11 203 81
q20 22 33 60.5t24 93.5q17 88 17 231z" />
    <glyph glyph-name="Ugrave" unicode="&#xd9;" horiz-adv-x="1395" 
d="M914 1736l-28 -70l-576 117l75 217zM862 1562l86 -1055q1 -10 1 -30q0 -115 -69.5 -178t-192.5 -63q-99 0 -143 57t-52 177l-74 1057l-273 -18l56 -945q2 -40 19 -170q15 -118 40 -186q16 -44 32 -72.5t37 -51.5q20 -21 48.5 -38.5t75.5 -40.5q41 -19 78.5 -26.5
t105.5 -12.5q14 -1 39 -1q34 0 59 3q16 1 40 8q25 8 119 28q38 8 67 20q11 5 47 18q20 9 37 17.5t29 17.5q15 12 61 59q73 83 93 229q9 65 9 130q0 74 -4 133l-66 952z" />
    <glyph glyph-name="Uacute" unicode="&#xda;" horiz-adv-x="1395" 
d="M355 1736l28 -70l576 117l-75 217zM862 1562l86 -1055q1 -10 1 -30q0 -115 -69.5 -178t-192.5 -63q-99 0 -143 57t-52 177l-74 1057l-273 -18l56 -945q2 -40 19 -170q15 -118 40 -186q16 -44 32 -72.5t37 -51.5q20 -21 48.5 -38.5t75.5 -40.5q41 -19 78.5 -26.5
t105.5 -12.5q14 -1 39 -1q34 0 59 3q16 1 40 8q25 8 119 28q38 8 67 20q11 5 47 18q20 9 37 17.5t29 17.5q15 12 61 59q73 83 93 229q9 65 9 130q0 74 -4 133l-66 952z" />
    <glyph glyph-name="Ucircumflex" unicode="&#xdb;" horiz-adv-x="1395" 
d="M173 1712l133 -36l337 110l336 -105l15 101l-251 192l-178 26zM862 1562l86 -1055q1 -10 1 -30q0 -115 -69.5 -178t-192.5 -63q-99 0 -143 57t-52 177l-74 1057l-273 -18l56 -945q2 -40 19 -170q15 -118 40 -186q16 -44 32 -72.5t37 -51.5q20 -21 48.5 -38.5t75.5 -40.5
q41 -19 78.5 -26.5t105.5 -12.5q14 -1 39 -1q34 0 59 3q16 1 40 8q25 8 119 28q38 8 67 20q11 5 47 18q20 9 37 17.5t29 17.5q15 12 61 59q73 83 93 229q9 65 9 130q0 74 -4 133l-66 952z" />
    <glyph glyph-name="Udieresis" unicode="&#xdc;" horiz-adv-x="1395" 
d="M308 1717l232 -17l18 247l-232 17zM680 1690l232 -16l17 247l-231 16zM862 1562l86 -1055q1 -10 1 -30q0 -115 -69.5 -178t-192.5 -63q-99 0 -143 57t-52 177l-74 1057l-273 -18l56 -945q2 -40 19 -170q15 -118 40 -186q16 -44 32 -72.5t37 -51.5q20 -21 48.5 -38.5
t75.5 -40.5q41 -19 78.5 -26.5t105.5 -12.5q14 -1 39 -1q34 0 59 3q16 1 40 8q25 8 119 28q38 8 67 20q11 5 47 18q20 9 37 17.5t29 17.5q15 12 61 59q73 83 93 229q9 65 9 130q0 74 -4 133l-66 952z" />
    <glyph glyph-name="Yacute" unicode="&#xdd;" horiz-adv-x="1493" 
d="M380 1736l28 -70l576 117l-75 217zM432 1553l-301 4l471 -758l12 -819l273 16l-8 781l481 784l-303 8l-312 -512z" />
    <glyph glyph-name="Thorn" unicode="&#xde;" horiz-adv-x="1369" 
d="M1200.5 946q18.5 -89 16.5 -189q-2 -86 -33 -161t-88 -131q-36 -36 -124 -63.5t-190.5 -43.5t-179.5 -17l-144 -2l-7 -320l-287 -1l32 1564l287 -4l-6 -312l380 -8q98 -2 168.5 -43t115.5 -113q41 -67 59.5 -156zM909 787q0 32 -8.5 66.5t-27.5 63.5q-22 33 -59 53
t-90 21l-214 2l-1 -354l202 -2q103 -3 154 43q39 35 44 107z" />
    <glyph glyph-name="germandbls" unicode="&#xdf;" horiz-adv-x="1289" 
d="M1096.5 208.5q-49.5 -91.5 -143.5 -148.5q-15 -10 -19 -16q-5 -8 -9 -12t-14 -9q-11 -5 -40 -10q-143 -22 -203 -24l-90 -3v239l72 3q56 2 102 21t78 51q30 30 45.5 66t15.5 73q0 31 -19.5 68t-52.5 68q-36 34 -85 53.5t-105 15.5l-51 -3v286l63 2q74 2 112 26
q69 44 69 142v94q0 65 -38 106q-24 26 -58 35.5t-89 14.5q-6 1 -20 1q-18 0 -27 -2q-15 -2 -35 -9q-11 -4 -27 -16t-31.5 -29.5t-25.5 -34.5q-25 -42 -31 -93.5t-4 -79.5l-61 -1098l-250 17l51 962q8 131 12 227q5 102 33 166q26 71 57 110q42 52 105 78q47 19 53 22
q24 10 43 14q51 10 106 8l114 2q99 3 162 -25q28 -13 54 -31.5t58 -47.5q118 -105 125 -256l1 -26q0 -14 2 -52q2 -44 2 -66q0 -63 -6 -108.5t-24 -71.5l-13 -20q-3 -4 -9 -9l-20 -21q-19 -19 -48 -52q68 -35 112 -142.5t48 -248.5q3 -115 -46.5 -206.5z" />
    <glyph glyph-name="agrave" unicode="&#xe0;" 
d="M1135 1736l-28 -70l-576 117l75 217zM434 205l520 -31l33 -145l322 -13l-371 1590l-236 4l-636 -1544l299 -17zM780 1110l135 -672l-387 25z" />
    <glyph glyph-name="aacute" unicode="&#xe1;" 
d="M560 1736l28 -70l576 117l-75 217zM434 205l520 -31l33 -145l322 -13l-371 1590l-236 4l-636 -1544l299 -17zM780 1110l135 -672l-387 25z" />
    <glyph glyph-name="acircumflex" unicode="&#xe2;" 
d="M343 1712l133 -36l337 110l336 -105l15 101l-251 192l-178 26zM434 205l520 -31l33 -145l322 -13l-371 1590l-236 4l-636 -1544l299 -17zM780 1110l135 -672l-387 25z" />
    <glyph glyph-name="atilde" unicode="&#xe3;" 
d="M964 1677q25 0 53 8.5t50 19.5q8 4 46 28q27 18 45 27q1 13 1 46l-1 68l-50 28q-3 -2 -13.5 -8.5t-22 -16.5t-17.5 -19q-10 -14 -28 -19t-45 -5h-39q-24 3 -45.5 10.5t-52.5 21.5q-38 17 -63 25q-38 11 -89 11q-20 0 -50 -3q-37 -5 -64 -13.5t-51 -28.5q-1 -1 -9.5 -16.5
t-33.5 -27.5l-30 -53q5 -4 23 -19t45.5 -34t56.5 -31v-1q1 -1 20 22t49 36q39 16 89 16q18 0 29 -3q29 -11 63 -27q31 -15 56.5 -24t59.5 -16q12 -2 18 -2zM434 205l520 -31l33 -145l322 -13l-371 1590l-236 4l-636 -1544l299 -17zM780 1110l135 -672l-387 25z" />
    <glyph glyph-name="adieresis" unicode="&#xe4;" 
d="M518 1717l232 -17l18 247l-232 17zM890 1690l232 -16l17 247l-231 16zM434 205l520 -31l33 -145l322 -13l-371 1590l-236 4l-636 -1544l299 -17zM780 1110l135 -672l-387 25z" />
    <glyph glyph-name="aring" unicode="&#xe5;" 
d="M585 1883q0 -62 15 -112q8 -31 34 -51q47 -35 103 -53.5t115 -18.5q20 0 54 2q32 2 45 2q41 0 81 42q29 30 45.5 68t19.5 80l2 22q4 58 -20.5 110t-71.5 85l-2 2q-71 39 -141 39q-55 0 -141 -26q-9 -4 -37.5 -17.5t-41.5 -24.5q-19 -16 -35 -43t-21 -58q-3 -24 -3 -48z
M722 1914q30 58 120 70q77 -9 114 -32.5t37 -67.5q0 -6 -2 -20q-7 -39 -48 -66.5t-97 -27.5q-143 0 -143 87zM434 175l520 -31l33 -145l322 -13l-371 1590l-236 4l-636 -1544l299 -17zM780 1080l135 -672l-387 25z" />
    <glyph glyph-name="ae" unicode="&#xe6;" horiz-adv-x="1941" 
d="M1817 197l8 -164l-865 -19l-13 -1l-2 137l-486 29l-69 -156l-299 17l636 1544l156 -2l893 28l-8 -236l-629 -4l41 -503l508 41l17 -248l-504 4l32 -443l10 -43zM939 412v4l-44 335h-3v26l-40 307l-299 -647z" />
    <glyph glyph-name="ccedilla" unicode="&#xe7;" horiz-adv-x="1325" 
d="M1150 228q-28 -86 -90 -136q-50 -41 -125.5 -62t-186.5 -29v-1q-13 -36 -11 -68q1 -10 7.5 -15.5t19.5 -12.5q12 -6 19 -11q21 -15 34.5 -27t23.5 -30q11 -19 16 -52q2 -15 -6 -65q-2 -18 -5.5 -28t-4.5 -15q-13 -46 -43 -83q-34 -40 -80 -56q-12 -5 -31 -5q-23 0 -53 8
q-9 2 -49 14q-11 4 -49 16q-64 19 -85 27l32 113l48 -13l34 -10q28 -8 29 -8q24 -7 48 -7q35 0 54 16q11 10 14 14t4.5 11t4.5 16q4 13 6 29q1 4 1 12q0 16 -13 35q-7 11 -20 18.5t-21 12.5l-23 16l-30 20q-26 15 -36 29t-10 47q0 24 6 51l-48 6q-144 20 -237 81
q-54 35 -84 82.5t-45 126.5q-30 164 -30 365v162q0 143 3 231t15.5 167.5t39.5 140.5q45 100 143 152t272 56q37 1 104 1q117 0 191 -11t122 -41q62 -39 93 -117.5t41 -216.5l-258 -6q-5 15 -7 28q-2 14 -4 21q-5 15 -10 26t-18 27q-18 26 -44.5 37t-90.5 11q-99 0 -151 -15
q-57 -17 -97 -55q-38 -40 -55 -116q-23 -103 -23 -250q0 -27 2 -79q3 -82 3 -141q0 -43 2 -117q3 -121 28 -186q12 -31 30 -45.5t40 -23.5q21 -10 50 -10l19 1q28 2 56 2l118 -1q40 0 68 12q31 13 51.5 46t34.5 99l273 -2q2 -133 -26 -219z" />
    <glyph glyph-name="egrave" unicode="&#xe8;" horiz-adv-x="1288" 
d="M934 1747l-28 -70l-576 117l75 217zM1075 1582l-907 -29l31 -1568l925 20l-8 164l-581 -19l-35 486l504 -4l-17 248l-508 -41l-41 503l629 4z" />
    <glyph glyph-name="eacute" unicode="&#xe9;" horiz-adv-x="1288" 
d="M354 1736l28 -70l576 117l-75 217zM1075 1582l-907 -29l31 -1568l925 20l-8 164l-581 -19l-35 486l504 -4l-17 248l-508 -41l-41 503l629 4z" />
    <glyph glyph-name="ecircumflex" unicode="&#xea;" horiz-adv-x="1288" 
d="M183 1712l133 -36l337 110l336 -105l15 101l-251 192l-178 26zM1075 1582l-907 -29l31 -1568l925 20l-8 164l-581 -19l-35 486l504 -4l-17 248l-508 -41l-41 503l629 4z" />
    <glyph glyph-name="edieresis" unicode="&#xeb;" horiz-adv-x="1288" 
d="M328 1717l232 -17l18 247l-232 17zM700 1690l232 -16l17 247l-231 16zM1075 1582l-907 -29l31 -1568l925 20l-8 164l-581 -19l-35 486l504 -4l-17 248l-508 -41l-41 503l629 4z" />
    <glyph glyph-name="igrave" unicode="&#xec;" horiz-adv-x="752" 
d="M664 1736l-28 -70l-576 117l75 217zM507 1578h-330v-1638h354z" />
    <glyph glyph-name="iacute" unicode="&#xed;" horiz-adv-x="752" 
d="M40 1736l28 -70l576 117l-75 217zM537 1578h-330v-1638h354z" />
    <glyph glyph-name="icircumflex" unicode="&#xee;" horiz-adv-x="871" 
d="M10 1712l133 -36l337 110l336 -105l15 101l-251 192l-178 26zM624 1578h-330v-1638h354z" />
    <glyph glyph-name="idieresis" unicode="&#xef;" horiz-adv-x="752" 
d="M57 1717l232 -17l18 247l-232 17zM429 1690l232 -16l17 247l-231 16zM537 1578h-330v-1638h354z" />
    <glyph glyph-name="eth" unicode="&#xf0;" horiz-adv-x="1370" 
d="M1197 635q1 -28 -1 -87q-3 -83 -25 -250q-5 -40 -23 -81t-47 -77q-62 -78 -161 -106q-53 -15 -172 -37q-93 -17 -158 -17h-391v650l-149 -12l-14 293l163 10v665h405q102 0 171 -10q140 -21 221 -91q51 -44 86.5 -94t54.5 -124q39 -152 39 -361v-170q0 -73 1 -101z
M891 700q10 65 10 121q0 18 -2 50q-15 167 -43 256q-11 36 -24.5 58.5t-35.5 50.5q-17 19 -55 31t-85 15q-24 2 -69 2q-52 0 -81 -3l3 -341l222 8l21 -285l-240 -11l4 -330q19 4 43 8q29 5 60 12q74 17 102 32l33 18q20 12 38 31q45 47 70 139q17 61 29 138z" />
    <glyph glyph-name="ntilde" unicode="&#xf1;" horiz-adv-x="1366" 
d="M885 1687q25 0 53 8.5t50 19.5q8 4 46 28q27 18 45 27q1 13 1 46l-1 68l-50 28q-3 -2 -13.5 -8.5t-22 -16.5t-17.5 -19q-10 -14 -28 -19t-45 -5h-39q-24 3 -45.5 10.5t-52.5 21.5q-38 17 -63 25q-38 11 -89 11q-20 0 -50 -3q-37 -5 -64 -13.5t-51 -28.5q-1 -1 -9.5 -16.5
t-33.5 -27.5l-30 -53q5 -4 23 -19t45.5 -34t56.5 -31v-1q1 -1 20 22t49 36q39 16 89 16q18 0 29 -3q29 -11 63 -27q31 -15 56.5 -24t59.5 -16q12 -2 18 -2zM524 1563l-278 30l-131 -1552l299 -29l65 709l342 -717l240 -47l133 1553l-305 26l-68 -702z" />
    <glyph glyph-name="ograve" unicode="&#xf2;" horiz-adv-x="1419" 
d="M1004 1736l-28 -70l-576 117l75 217zM240 1344q-25 -49 -45.5 -136.5t-31.5 -195.5q-10 -93 -10 -205q0 -142 17 -267q16 -123 53 -228.5t94 -180.5q109 -145 282 -145q32 0 60 4q17 -1 50 -1q175 0 284 41t169 126q59 84 79.5 216.5t20.5 345.5q0 281 -24 444.5
t-88 254.5q-44 63 -111 99.5t-161.5 52t-230.5 15.5q-159 0 -278 -79q-48 -32 -80.5 -72t-48.5 -81v-8zM412 853q0 156 23 251t76 141t144 46q71 0 111 -3.5t74.5 -18.5t59.5 -49q41 -55 59 -169q18 -115 18 -329q0 -143 -17 -231q-11 -55 -24 -93.5t-33 -60.5
q-72 -82 -252 -82q-55 0 -93 33t-65 90q-21 45 -38 107q-12 43 -29 99z" />
    <glyph glyph-name="oacute" unicode="&#xf3;" horiz-adv-x="1419" 
d="M340 1736l28 -70l576 117l-75 217zM240 1344q-25 -49 -45.5 -136.5t-31.5 -195.5q-10 -93 -10 -205q0 -142 17 -267q16 -123 53 -228.5t94 -180.5q109 -145 282 -145q32 0 60 4q17 -1 50 -1q175 0 284 41t169 126q59 84 79.5 216.5t20.5 345.5q0 281 -24 444.5t-88 254.5
q-44 63 -111 99.5t-161.5 52t-230.5 15.5q-159 0 -278 -79q-48 -32 -80.5 -72t-48.5 -81v-8zM412 853q0 156 23 251t76 141t144 46q71 0 111 -3.5t74.5 -18.5t59.5 -49q41 -55 59 -169q18 -115 18 -329q0 -143 -17 -231q-11 -55 -24 -93.5t-33 -60.5q-72 -82 -252 -82
q-55 0 -93 33t-65 90q-21 45 -38 107q-12 43 -29 99z" />
    <glyph glyph-name="ocircumflex" unicode="&#xf4;" horiz-adv-x="1419" 
d="M243 1712l133 -36l337 110l336 -105l15 101l-251 192l-178 26zM240 1344q-25 -49 -45.5 -136.5t-31.5 -195.5q-10 -93 -10 -205q0 -142 17 -267q16 -123 53 -228.5t94 -180.5q109 -145 282 -145q32 0 60 4q17 -1 50 -1q175 0 284 41t169 126q59 84 79.5 216.5t20.5 345.5
q0 281 -24 444.5t-88 254.5q-44 63 -111 99.5t-161.5 52t-230.5 15.5q-159 0 -278 -79q-48 -32 -80.5 -72t-48.5 -81v-8zM412 853q0 156 23 251t76 141t144 46q71 0 111 -3.5t74.5 -18.5t59.5 -49q41 -55 59 -169q18 -115 18 -329q0 -143 -17 -231q-11 -55 -24 -93.5
t-33 -60.5q-72 -82 -252 -82q-55 0 -93 33t-65 90q-21 45 -38 107q-12 43 -29 99z" />
    <glyph glyph-name="otilde" unicode="&#xf5;" horiz-adv-x="1419" 
d="M837 1687q25 0 53 8.5t50 19.5q8 4 46 28q27 18 45 27q1 13 1 46l-1 68l-50 28q-3 -2 -13.5 -8.5t-22 -16.5t-17.5 -19q-10 -14 -28 -19t-45 -5h-39q-24 3 -45.5 10.5t-52.5 21.5q-38 17 -63 25q-38 11 -89 11q-20 0 -50 -3q-37 -5 -64 -13.5t-51 -28.5q-1 -1 -9.5 -16.5
t-33.5 -27.5l-30 -53q5 -4 23 -19t45.5 -34t56.5 -31v-1q1 -1 20 22t49 36q39 16 89 16q19 0 29 -3q29 -11 63 -27q31 -15 56.5 -24t59.5 -16q12 -2 18 -2zM240 1344q-25 -49 -45.5 -136.5t-31.5 -195.5q-10 -93 -10 -205q0 -142 17 -267q16 -123 53 -228.5t94 -180.5
q109 -145 282 -145q32 0 60 4q17 -1 50 -1q175 0 284 41t169 126q59 84 79.5 216.5t20.5 345.5q0 281 -24 444.5t-88 254.5q-44 63 -111 99.5t-161.5 52t-230.5 15.5q-159 0 -278 -79q-48 -32 -80.5 -72t-48.5 -81v-8zM412 853q0 156 23 251t76 141t144 46q71 0 111 -3.5
t74.5 -18.5t59.5 -49q41 -55 59 -169q18 -115 18 -329q0 -143 -17 -231q-11 -55 -24 -93.5t-33 -60.5q-72 -82 -252 -82q-55 0 -93 33t-65 90q-21 45 -38 107q-12 43 -29 99z" />
    <glyph glyph-name="odieresis" unicode="&#xf6;" horiz-adv-x="1419" 
d="M378 1717l232 -17l18 247l-232 17zM750 1690l232 -16l17 247l-231 16zM240 1344q-25 -49 -45.5 -136.5t-31.5 -195.5q-10 -93 -10 -205q0 -142 17 -267q16 -123 53 -228.5t94 -180.5q109 -145 282 -145q32 0 60 4q17 -1 50 -1q175 0 284 41t169 126q59 84 79.5 216.5
t20.5 345.5q0 281 -24 444.5t-88 254.5q-44 63 -111 99.5t-161.5 52t-230.5 15.5q-159 0 -278 -79q-48 -32 -80.5 -72t-48.5 -81v-8zM412 853q0 156 23 251t76 141t144 46q71 0 111 -3.5t74.5 -18.5t59.5 -49q41 -55 59 -169q18 -115 18 -329q0 -143 -17 -231
q-11 -55 -24 -93.5t-33 -60.5q-72 -82 -252 -82q-55 0 -93 33t-65 90q-21 45 -38 107q-12 43 -29 99z" />
    <glyph glyph-name="oslash" unicode="&#xf8;" horiz-adv-x="1419" 
d="M1255 1158.5q24 -163.5 24 -444.5q0 -213 -20.5 -345.5t-79.5 -216.5q-60 -85 -169 -126t-284 -41q-33 0 -50 1q-28 -4 -40 -4l-48 -162l-299 17l82 247q-19 19 -37 43q-57 75 -94 180.5t-53 228.5q-17 125 -17 267q0 112 10 205q11 108 31.5 195.5t45.5 136.5v8
q16 41 48.5 81t80.5 72q119 79 278 79q115 0 203 -12l58 173l236 -4l-73 -244q47 -33 79 -80q64 -91 88 -254.5zM487 431l285 853q-30 3 -100 3q-91 0 -144 -46t-76 -141t-23 -251l14 -269q17 -56 29 -99zM994 718q0 214 -18 329q-2 18 -8 45l-251 -840q143 11 203 81
q20 22 33 60.5t24 93.5q17 88 17 231z" />
    <glyph glyph-name="ugrave" unicode="&#xf9;" horiz-adv-x="1395" 
d="M914 1736l-28 -70l-576 117l75 217zM862 1562l86 -1055q1 -10 1 -30q0 -115 -69.5 -178t-192.5 -63q-99 0 -143 57t-52 177l-74 1057l-273 -18l56 -945q2 -40 19 -170q15 -118 40 -186q16 -44 32 -72.5t37 -51.5q20 -21 48.5 -38.5t75.5 -40.5q41 -19 78.5 -26.5
t105.5 -12.5q14 -1 39 -1q34 0 59 3q16 1 40 8q25 8 119 28q38 8 67 20q11 5 47 18q20 9 37 17.5t29 17.5q15 12 61 59q73 83 93 229q9 65 9 130q0 74 -4 133l-66 952z" />
    <glyph glyph-name="uacute" unicode="&#xfa;" horiz-adv-x="1395" 
d="M355 1736l28 -70l576 117l-75 217zM862 1562l86 -1055q1 -10 1 -30q0 -115 -69.5 -178t-192.5 -63q-99 0 -143 57t-52 177l-74 1057l-273 -18l56 -945q2 -40 19 -170q15 -118 40 -186q16 -44 32 -72.5t37 -51.5q20 -21 48.5 -38.5t75.5 -40.5q41 -19 78.5 -26.5
t105.5 -12.5q14 -1 39 -1q34 0 59 3q16 1 40 8q25 8 119 28q38 8 67 20q11 5 47 18q20 9 37 17.5t29 17.5q15 12 61 59q73 83 93 229q9 65 9 130q0 74 -4 133l-66 952z" />
    <glyph glyph-name="ucircumflex" unicode="&#xfb;" horiz-adv-x="1395" 
d="M173 1712l133 -36l337 110l336 -105l15 101l-251 192l-178 26zM862 1562l86 -1055q1 -10 1 -30q0 -115 -69.5 -178t-192.5 -63q-99 0 -143 57t-52 177l-74 1057l-273 -18l56 -945q2 -40 19 -170q15 -118 40 -186q16 -44 32 -72.5t37 -51.5q20 -21 48.5 -38.5t75.5 -40.5
q41 -19 78.5 -26.5t105.5 -12.5q14 -1 39 -1q34 0 59 3q16 1 40 8q25 8 119 28q38 8 67 20q11 5 47 18q20 9 37 17.5t29 17.5q15 12 61 59q73 83 93 229q9 65 9 130q0 74 -4 133l-66 952z" />
    <glyph glyph-name="udieresis" unicode="&#xfc;" horiz-adv-x="1395" 
d="M308 1717l232 -17l18 247l-232 17zM680 1690l232 -16l17 247l-231 16zM862 1562l86 -1055q1 -10 1 -30q0 -115 -69.5 -178t-192.5 -63q-99 0 -143 57t-52 177l-74 1057l-273 -18l56 -945q2 -40 19 -170q15 -118 40 -186q16 -44 32 -72.5t37 -51.5q20 -21 48.5 -38.5
t75.5 -40.5q41 -19 78.5 -26.5t105.5 -12.5q14 -1 39 -1q34 0 59 3q16 1 40 8q25 8 119 28q38 8 67 20q11 5 47 18q20 9 37 17.5t29 17.5q15 12 61 59q73 83 93 229q9 65 9 130q0 74 -4 133l-66 952z" />
    <glyph glyph-name="yacute" unicode="&#xfd;" horiz-adv-x="1493" 
d="M380 1736l28 -70l576 117l-75 217zM432 1553l-301 4l471 -758l12 -819l273 16l-8 781l481 784l-303 8l-312 -512z" />
    <glyph glyph-name="thorn" unicode="&#xfe;" horiz-adv-x="1369" 
d="M1200.5 946q18.5 -89 16.5 -189q-2 -86 -33 -161t-88 -131q-36 -36 -124 -63.5t-190.5 -43.5t-179.5 -17l-144 -2l-7 -320l-287 -1l32 1564l287 -4l-6 -312l380 -8q98 -2 168.5 -43t115.5 -113q41 -67 59.5 -156zM909 787q0 32 -8.5 66.5t-27.5 63.5q-22 33 -59 53
t-90 21l-214 2l-1 -354l202 -2q103 -3 154 43q39 35 44 107z" />
    <glyph glyph-name="ydieresis" unicode="&#xff;" horiz-adv-x="1493" 
d="M438 1717l232 -17l18 247l-232 17zM810 1690l232 -16l17 247l-231 16zM432 1553l-301 4l471 -758l12 -819l273 16l-8 781l481 784l-303 8l-312 -512z" />
    <glyph glyph-name="Amacron" unicode="&#x100;" 
d="M593 1877l-3 -184l486 -2l-11 199zM434 205l520 -31l33 -145l322 -13l-371 1590l-236 4l-636 -1544l299 -17zM780 1110l135 -672l-387 25z" />
    <glyph glyph-name="amacron" unicode="&#x101;" 
d="M593 1877l-3 -184l486 -2l-11 199zM434 205l520 -31l33 -145l322 -13l-371 1590l-236 4l-636 -1544l299 -17zM780 1110l135 -672l-387 25z" />
    <glyph glyph-name="Abreve" unicode="&#x102;" 
d="M891 1810q-29 -24 -66 -22q-5 0 -40 5q-5 1 -9.5 2t-8.5 1q-3 0 -3.5 0.5t0.5 0.5t-6 4q-23 14 -35 39q-9 16 -7 42l-111 20q-6 -33 -6 -59q0 -41 18 -80q23 -29 36.5 -42.5t34.5 -24.5q23 -12 59 -18.5t96 -9.5q20 -2 26 -2q13 0 25.5 2t19.5 3q9 1 23 7l28 12
q37 16 56 41q15 20 30 58q3 6 7.5 16t6.5 19.5t3 26.5l3 49l-140 -17q-11 -49 -40 -73zM434 205l520 -31l33 -145l322 -13l-371 1590l-236 4l-636 -1544l299 -17zM780 1110l135 -672l-387 25z" />
    <glyph glyph-name="abreve" unicode="&#x103;" 
d="M891 1810q-29 -24 -66 -22q-5 0 -40 5q-5 1 -9.5 2t-8.5 1q-3 0 -3.5 0.5t0.5 0.5t-6 4q-23 14 -35 39q-9 16 -7 42l-111 20q-6 -33 -6 -59q0 -41 18 -80q23 -29 36.5 -42.5t34.5 -24.5q23 -12 59 -18.5t96 -9.5q20 -2 26 -2q13 0 25.5 2t19.5 3q9 1 23 7l28 12
q37 16 56 41q15 20 30 58q3 6 7.5 16t6.5 19.5t3 26.5l3 49l-140 -17q-11 -49 -40 -73zM434 205l520 -31l33 -145l322 -13l-371 1590l-236 4l-636 -1544l299 -17zM780 1110l135 -672l-387 25z" />
    <glyph glyph-name="Aogonek" unicode="&#x104;" 
d="M1386 -366q-2 -3 -16 -25q-24 -39 -42 -58q-16 -16 -44 -34l-19 -13q-71 -32 -143 -32q-112 0 -217 79q-15 12 -31.5 54.5t-26.5 77.5q-5 20 -5 34q0 20 11 62q13 45 17 78q8 45 30.5 84.5t49.5 61.5q11 10 40 26h-3l-33 145l-520 31l-69 -156l-299 17l636 1544l236 -4
l371 -1590l-86 3q-36 -44 -38 -47q-7 -8 -42.5 -50.5t-65.5 -70.5l-20 -129q11 -27 32 -41t52 -26q21 -8 25 -11q17 9 64 34t52 24zM528 463l387 -25l-135 672z" />
    <glyph glyph-name="aogonek" unicode="&#x105;" 
d="M1386 -366q-2 -3 -16 -25q-24 -39 -42 -58q-16 -16 -44 -34l-19 -13q-71 -32 -143 -32q-112 0 -217 79q-15 12 -31.5 54.5t-26.5 77.5q-5 20 -5 34q0 20 11 62q13 45 17 78q8 45 30.5 84.5t49.5 61.5q11 10 40 26h-3l-33 145l-520 31l-69 -156l-299 17l636 1544l236 -4
l371 -1590l-86 3q-36 -44 -38 -47q-7 -8 -42.5 -50.5t-65.5 -70.5l-20 -129q11 -27 32 -41t52 -26q21 -8 25 -11q17 9 64 34t52 24zM528 463l387 -25l-135 672z" />
    <glyph glyph-name="Cacute" unicode="&#x106;" horiz-adv-x="1325" 
d="M350 1736l28 -70l576 117l-75 217zM903 449q-14 -66 -34.5 -99t-51.5 -46q-28 -12 -68 -12l-118 1q-28 0 -56 -2l-19 -1q-29 0 -50 10q-22 9 -40 23.5t-30 45.5q-25 65 -28 186q-2 74 -2 117q0 59 -3 141q-2 52 -2 79q0 147 23 250q17 76 55 116q40 38 97 55
q52 15 151 15q64 0 90.5 -11t44.5 -37q13 -16 18 -27t10 -26q2 -7 4 -21q2 -13 7 -28l258 6q-10 138 -41 216.5t-93 117.5q-48 30 -122 41t-191 11q-67 0 -104 -1q-174 -4 -272 -56t-143 -152q-27 -61 -39.5 -140.5t-15.5 -167.5t-3 -231v-162q0 -201 30 -365
q15 -79 45 -126.5t84 -82.5q93 -61 237 -81q72 -10 118 -9q155 4 252.5 25.5t158.5 70.5q62 50 90 136t26 219z" />
    <glyph glyph-name="cacute" unicode="&#x107;" horiz-adv-x="1325" 
d="M350 1736l28 -70l576 117l-75 217zM903 449q-14 -66 -34.5 -99t-51.5 -46q-28 -12 -68 -12l-118 1q-28 0 -56 -2l-19 -1q-29 0 -50 10q-22 9 -40 23.5t-30 45.5q-25 65 -28 186q-2 74 -2 117q0 59 -3 141q-2 52 -2 79q0 147 23 250q17 76 55 116q40 38 97 55
q52 15 151 15q64 0 90.5 -11t44.5 -37q13 -16 18 -27t10 -26q2 -7 4 -21q2 -13 7 -28l258 6q-10 138 -41 216.5t-93 117.5q-48 30 -122 41t-191 11q-67 0 -104 -1q-174 -4 -272 -56t-143 -152q-27 -61 -39.5 -140.5t-15.5 -167.5t-3 -231v-162q0 -201 30 -365
q15 -79 45 -126.5t84 -82.5q93 -61 237 -81q72 -10 118 -9q155 4 252.5 25.5t158.5 70.5q62 50 90 136t26 219z" />
    <glyph glyph-name="Ccircumflex" unicode="&#x108;" horiz-adv-x="1325" 
d="M903 449q-14 -66 -34.5 -99t-51.5 -46q-28 -12 -68 -12l-118 1q-28 0 -56 -2l-19 -1q-29 0 -50 10q-22 9 -40 23.5t-30 45.5q-25 65 -28 186q-2 74 -2 117q0 59 -3 141q-2 52 -2 79q0 147 23 250q17 76 55 116q40 38 97 55q52 15 151 15q64 0 90.5 -11t44.5 -37
q13 -16 18 -27t10 -26q2 -7 4 -21q2 -13 7 -28l258 6q-10 138 -41 216.5t-93 117.5q-48 30 -122 41t-191 11q-67 0 -104 -1q-174 -4 -272 -56t-143 -152q-27 -61 -39.5 -140.5t-15.5 -167.5t-3 -231v-162q0 -201 30 -365q15 -79 45 -126.5t84 -82.5q93 -61 237 -81
q72 -10 118 -9q155 4 252.5 25.5t158.5 70.5q62 50 90 136t26 219zM191 1712l133 -36l337 110l336 -105l15 101l-251 192l-178 26z" />
    <glyph glyph-name="ccircumflex" unicode="&#x109;" horiz-adv-x="1325" 
d="M903 449q-14 -66 -34.5 -99t-51.5 -46q-28 -12 -68 -12l-118 1q-28 0 -56 -2l-19 -1q-29 0 -50 10q-22 9 -40 23.5t-30 45.5q-25 65 -28 186q-2 74 -2 117q0 59 -3 141q-2 52 -2 79q0 147 23 250q17 76 55 116q40 38 97 55q52 15 151 15q64 0 90.5 -11t44.5 -37
q13 -16 18 -27t10 -26q2 -7 4 -21q2 -13 7 -28l258 6q-10 138 -41 216.5t-93 117.5q-48 30 -122 41t-191 11q-67 0 -104 -1q-174 -4 -272 -56t-143 -152q-27 -61 -39.5 -140.5t-15.5 -167.5t-3 -231v-162q0 -201 30 -365q15 -79 45 -126.5t84 -82.5q93 -61 237 -81
q72 -10 118 -9q155 4 252.5 25.5t158.5 70.5q62 50 90 136t26 219zM191 1712l133 -36l337 110l336 -105l15 101l-251 192l-178 26z" />
    <glyph glyph-name="Cdotaccent" unicode="&#x10a;" horiz-adv-x="1325" 
d="M499 1695l232 -16l17 247l-231 16zM903 449q-14 -66 -34.5 -99t-51.5 -46q-28 -12 -68 -12l-118 1q-28 0 -56 -2l-19 -1q-29 0 -50 10q-22 9 -40 23.5t-30 45.5q-25 65 -28 186q-2 74 -2 117q0 59 -3 141q-2 52 -2 79q0 147 23 250q17 76 55 116q40 38 97 55
q52 15 151 15q64 0 90.5 -11t44.5 -37q13 -16 18 -27t10 -26q2 -7 4 -21q2 -13 7 -28l258 6q-10 138 -41 216.5t-93 117.5q-48 30 -122 41t-191 11q-67 0 -104 -1q-174 -4 -272 -56t-143 -152q-27 -61 -39.5 -140.5t-15.5 -167.5t-3 -231v-162q0 -201 30 -365
q15 -79 45 -126.5t84 -82.5q93 -61 237 -81q72 -10 118 -9q155 4 252.5 25.5t158.5 70.5q62 50 90 136t26 219z" />
    <glyph glyph-name="cdotaccent" unicode="&#x10b;" horiz-adv-x="1325" 
d="M499 1695l232 -16l17 247l-231 16zM903 449q-14 -66 -34.5 -99t-51.5 -46q-28 -12 -68 -12l-118 1q-28 0 -56 -2l-19 -1q-29 0 -50 10q-22 9 -40 23.5t-30 45.5q-25 65 -28 186q-2 74 -2 117q0 59 -3 141q-2 52 -2 79q0 147 23 250q17 76 55 116q40 38 97 55
q52 15 151 15q64 0 90.5 -11t44.5 -37q13 -16 18 -27t10 -26q2 -7 4 -21q2 -13 7 -28l258 6q-10 138 -41 216.5t-93 117.5q-48 30 -122 41t-191 11q-67 0 -104 -1q-174 -4 -272 -56t-143 -152q-27 -61 -39.5 -140.5t-15.5 -167.5t-3 -231v-162q0 -201 30 -365
q15 -79 45 -126.5t84 -82.5q93 -61 237 -81q72 -10 118 -9q155 4 252.5 25.5t158.5 70.5q62 50 90 136t26 219z" />
    <glyph glyph-name="Ccaron" unicode="&#x10c;" horiz-adv-x="1325" 
d="M1058 1963l-133 37l-337 -109l-336 106l-15 -101l250 -193l178 -26zM903 449q-14 -66 -34.5 -99t-51.5 -46q-28 -12 -68 -12l-118 1q-28 0 -56 -2l-19 -1q-29 0 -50 10q-22 9 -40 23.5t-30 45.5q-25 65 -28 186q-2 74 -2 117q0 59 -3 141q-2 52 -2 79q0 147 23 250
q17 76 55 116q40 38 97 55q52 15 151 15q64 0 90.5 -11t44.5 -37q13 -16 18 -27t10 -26q2 -7 4 -21q2 -13 7 -28l258 6q-10 138 -41 216.5t-93 117.5q-48 30 -122 41t-191 11q-67 0 -104 -1q-174 -4 -272 -56t-143 -152q-27 -61 -39.5 -140.5t-15.5 -167.5t-3 -231v-162
q0 -201 30 -365q15 -79 45 -126.5t84 -82.5q93 -61 237 -81q72 -10 118 -9q155 4 252.5 25.5t158.5 70.5q62 50 90 136t26 219z" />
    <glyph glyph-name="ccaron" unicode="&#x10d;" horiz-adv-x="1325" 
d="M1058 1963l-133 37l-337 -109l-336 106l-15 -101l250 -193l178 -26zM903 449q-14 -66 -34.5 -99t-51.5 -46q-28 -12 -68 -12l-118 1q-28 0 -56 -2l-19 -1q-29 0 -50 10q-22 9 -40 23.5t-30 45.5q-25 65 -28 186q-2 74 -2 117q0 59 -3 141q-2 52 -2 79q0 147 23 250
q17 76 55 116q40 38 97 55q52 15 151 15q64 0 90.5 -11t44.5 -37q13 -16 18 -27t10 -26q2 -7 4 -21q2 -13 7 -28l258 6q-10 138 -41 216.5t-93 117.5q-48 30 -122 41t-191 11q-67 0 -104 -1q-174 -4 -272 -56t-143 -152q-27 -61 -39.5 -140.5t-15.5 -167.5t-3 -231v-162
q0 -201 30 -365q15 -79 45 -126.5t84 -82.5q93 -61 237 -81q72 -10 118 -9q155 4 252.5 25.5t158.5 70.5q62 50 90 136t26 219z" />
    <glyph glyph-name="Dcaron" unicode="&#x10e;" horiz-adv-x="1317" 
d="M1045 1963l-133 37l-337 -109l-336 106l-15 -101l250 -193l178 -26zM166 1586v-1606h391q65 0 158 17q119 22 172 37q99 28 161 106q29 36 47 77t23 81q22 167 25 250q2 59 1 87t-1 101v170q0 209 -39 361q-19 74 -54.5 124t-86.5 94q-81 70 -221 91q-69 10 -171 10h-405
zM453 1281q29 3 81 3q45 0 69 -2q47 -3 85 -15t55 -31q22 -28 35.5 -50.5t24.5 -58.5q28 -89 43 -256q2 -32 2 -50q0 -56 -10 -121q-12 -77 -29 -138q-25 -92 -70 -139q-18 -19 -38 -31l-33 -18q-28 -15 -102 -32q-31 -7 -60 -12q-24 -4 -43 -8z" />
    <glyph glyph-name="dcaron" unicode="&#x10f;" horiz-adv-x="1317" 
d="M1045 1963l-133 37l-337 -109l-336 106l-15 -101l250 -193l178 -26zM166 1586v-1606h391q65 0 158 17q119 22 172 37q99 28 161 106q29 36 47 77t23 81q22 167 25 250q2 59 1 87t-1 101v170q0 209 -39 361q-19 74 -54.5 124t-86.5 94q-81 70 -221 91q-69 10 -171 10h-405
zM453 1281q29 3 81 3q45 0 69 -2q47 -3 85 -15t55 -31q22 -28 35.5 -50.5t24.5 -58.5q28 -89 43 -256q2 -32 2 -50q0 -56 -10 -121q-12 -77 -29 -138q-25 -92 -70 -139q-18 -19 -38 -31l-33 -18q-28 -15 -102 -32q-31 -7 -60 -12q-24 -4 -43 -8z" />
    <glyph glyph-name="Dcroat" unicode="&#x110;" horiz-adv-x="1373" 
d="M1200 635q1 -28 -1 -87q-3 -83 -25 -250q-5 -40 -23 -81t-47 -77q-62 -78 -161 -106q-53 -15 -172 -37q-93 -17 -158 -17h-391v700l-152 -2l2 193l150 10v705h405q102 0 171 -10q140 -21 221 -91q51 -44 86.5 -94t54.5 -124q39 -152 39 -361v-170q0 -73 1 -101zM894 700
q10 65 10 121q0 18 -2 50q-15 167 -43 256q-11 36 -24.5 58.5t-35.5 50.5q-17 19 -55 31t-85 15q-24 2 -69 2q-53 0 -81 -3l3 -381l152 -2l-9 -190l-140 -6l4 -380q19 4 43 8q28 4 60 12q74 17 102 32l33 18q20 12 38 31q45 47 70 139q17 61 29 138z" />
    <glyph glyph-name="dcroat" unicode="&#x111;" horiz-adv-x="1373" 
d="M1200 635q1 -28 -1 -87q-3 -83 -25 -250q-5 -40 -23 -81t-47 -77q-62 -78 -161 -106q-53 -15 -172 -37q-93 -17 -158 -17h-391v700l-152 -2l2 193l150 10v705h405q102 0 171 -10q140 -21 221 -91q51 -44 86.5 -94t54.5 -124q39 -152 39 -361v-170q0 -73 1 -101zM894 700
q10 65 10 121q0 18 -2 50q-15 167 -43 256q-11 36 -24.5 58.5t-35.5 50.5q-17 19 -55 31t-85 15q-24 2 -69 2q-53 0 -81 -3l3 -381l152 -2l-9 -190l-140 -6l4 -380q19 4 43 8q28 4 60 12q74 17 102 32l33 18q20 12 38 31q45 47 70 139q17 61 29 138z" />
    <glyph glyph-name="Emacron" unicode="&#x112;" horiz-adv-x="1288" 
d="M393 1867l-3 -184l486 -2l-11 199zM1075 1582l-907 -29l31 -1568l925 20l-8 164l-581 -19l-35 486l504 -4l-17 248l-508 -41l-41 503l629 4z" />
    <glyph glyph-name="emacron" unicode="&#x113;" horiz-adv-x="1288" 
d="M393 1867l-3 -184l486 -2l-11 199zM1075 1582l-907 -29l31 -1568l925 20l-8 164l-581 -19l-35 486l504 -4l-17 248l-508 -41l-41 503l629 4z" />
    <glyph glyph-name="Ebreve" unicode="&#x114;" horiz-adv-x="1288" 
d="M669 1820q-29 -24 -66 -22q-5 0 -40 5q-5 1 -9.5 2t-8.5 1q-3 0 -3.5 0.5t0.5 0.5t-6 4q-23 14 -35 39q-9 16 -7 42l-111 20q-6 -33 -6 -59q0 -41 18 -80q23 -29 36.5 -42.5t34.5 -24.5q23 -12 59 -18.5t96 -9.5q20 -2 26 -2q13 0 25.5 2t19.5 3q9 1 23 7l28 12
q37 16 56 41q15 20 30 58q3 6 7.5 16t6.5 19.5t3 26.5l3 49l-140 -17q-11 -49 -40 -73zM1075 1582l-907 -29l31 -1568l925 20l-8 164l-581 -19l-35 486l504 -4l-17 248l-508 -41l-41 503l629 4z" />
    <glyph glyph-name="ebreve" unicode="&#x115;" horiz-adv-x="1288" 
d="M669 1820q-29 -24 -66 -22q-5 0 -40 5q-5 1 -9.5 2t-8.5 1q-3 0 -3.5 0.5t0.5 0.5t-6 4q-23 14 -35 39q-9 16 -7 42l-111 20q-6 -33 -6 -59q0 -41 18 -80q23 -29 36.5 -42.5t34.5 -24.5q23 -12 59 -18.5t96 -9.5q20 -2 26 -2q13 0 25.5 2t19.5 3q9 1 23 7l28 12
q37 16 56 41q15 20 30 58q3 6 7.5 16t6.5 19.5t3 26.5l3 49l-140 -17q-11 -49 -40 -73zM1075 1582l-907 -29l31 -1568l925 20l-8 164l-581 -19l-35 486l504 -4l-17 248l-508 -41l-41 503l629 4z" />
    <glyph glyph-name="Edotaccent" unicode="&#x116;" horiz-adv-x="1288" 
d="M509 1695l232 -16l17 247l-231 16zM1075 1582l-907 -29l31 -1568l925 20l-8 164l-581 -19l-35 486l504 -4l-17 248l-508 -41l-41 503l629 4z" />
    <glyph glyph-name="edotaccent" unicode="&#x117;" horiz-adv-x="1288" 
d="M509 1695l232 -16l17 247l-231 16zM1075 1582l-907 -29l31 -1568l925 20l-8 164l-581 -19l-35 486l504 -4l-17 248l-508 -41l-41 503l629 4z" />
    <glyph glyph-name="Eogonek" unicode="&#x118;" horiz-adv-x="1288" 
d="M1216 -396q-2 -3 -16 -25q-24 -39 -42 -58q-16 -16 -44 -34l-19 -13q-71 -32 -143 -32q-112 0 -217 79q-15 12 -31.5 54.5t-26.5 77.5q-5 20 -5 34q0 20 11 62q13 45 17 78q8 45 30.5 84.5t49.5 61.5q12 10 39 25l-620 -13l-31 1568l907 29l-8 -236l-629 -4l41 -503
l508 41l17 -248l-504 4l35 -486l581 19l8 -164l-59 -1q-16 -19 -46 -57q-74 -91 -112 -126l-20 -129q11 -27 32 -41t52 -26q21 -9 25 -11q17 9 64 34t52 24z" />
    <glyph glyph-name="eogonek" unicode="&#x119;" horiz-adv-x="1288" 
d="M1216 -396q-2 -3 -16 -25q-24 -39 -42 -58q-16 -16 -44 -34l-19 -13q-71 -32 -143 -32q-112 0 -217 79q-15 12 -31.5 54.5t-26.5 77.5q-5 20 -5 34q0 20 11 62q13 45 17 78q8 45 30.5 84.5t49.5 61.5q12 10 39 25l-620 -13l-31 1568l907 29l-8 -236l-629 -4l41 -503
l508 41l17 -248l-504 4l35 -486l581 19l8 -164l-59 -1q-16 -19 -46 -57q-74 -91 -112 -126l-20 -129q11 -27 32 -41t52 -26q21 -9 25 -11q17 9 64 34t52 24z" />
    <glyph glyph-name="Ecaron" unicode="&#x11a;" horiz-adv-x="1288" 
d="M1031 1963l-133 37l-337 -109l-336 106l-15 -101l250 -193l178 -26zM1075 1582l-907 -29l31 -1568l925 20l-8 164l-581 -19l-35 486l504 -4l-17 248l-508 -41l-41 503l629 4z" />
    <glyph glyph-name="ecaron" unicode="&#x11b;" horiz-adv-x="1288" 
d="M1031 1963l-133 37l-337 -109l-336 106l-15 -101l250 -193l178 -26zM1075 1582l-907 -29l31 -1568l925 20l-8 164l-581 -19l-35 486l504 -4l-17 248l-508 -41l-41 503l629 4z" />
    <glyph glyph-name="Gcircumflex" unicode="&#x11c;" horiz-adv-x="1452" 
d="M911 511q102 0 102 -57q0 -26 -19 -58.5t-52 -64.5l-45 -25q-42 -15 -66 -21t-43 -6h-36q-20 0 -47 -4q-33 -5 -56 -5q-42 0 -72.5 14.5t-53.5 46.5q-30 42 -49.5 124t-31.5 216l-3 39q-16 169 -20 207q-7 57 -7 115q0 138 54 208q31 39 83.5 55t133.5 27l29 4q24 4 52 4
q82 0 127 -49q31 -34 37 -111l289 29q-11 93 -22.5 148.5t-35.5 99.5q-13 24 -27.5 40t-35.5 29q-40 24 -144 48q-61 14 -137 14q-78 0 -207 -14q-133 -14 -201 -43q-76 -32 -141 -86q-71 -60 -101 -143t-30 -194q0 -81 13 -192q17 -139 26 -231q9 -144 32 -269
q31 -170 91 -233q42 -47 71 -86q29 -38 70.5 -60.5t104.5 -28.5q16 -2 57 -2q71 0 161 9.5t154 24.5q102 24 176 56t131 100q64 74 91 192l-27 348l-391 -45zM191 1712l133 -36l337 110l336 -105l15 101l-251 192l-178 26z" />
    <glyph glyph-name="gcircumflex" unicode="&#x11d;" horiz-adv-x="1452" 
d="M911 511q102 0 102 -57q0 -26 -19 -58.5t-52 -64.5l-45 -25q-42 -15 -66 -21t-43 -6h-36q-20 0 -47 -4q-33 -5 -56 -5q-42 0 -72.5 14.5t-53.5 46.5q-30 42 -49.5 124t-31.5 216l-3 39q-16 169 -20 207q-7 57 -7 115q0 138 54 208q31 39 83.5 55t133.5 27l29 4q24 4 52 4
q82 0 127 -49q31 -34 37 -111l289 29q-11 93 -22.5 148.5t-35.5 99.5q-13 24 -27.5 40t-35.5 29q-40 24 -144 48q-61 14 -137 14q-78 0 -207 -14q-133 -14 -201 -43q-76 -32 -141 -86q-71 -60 -101 -143t-30 -194q0 -81 13 -192q17 -139 26 -231q9 -144 32 -269
q31 -170 91 -233q42 -47 71 -86q29 -38 70.5 -60.5t104.5 -28.5q16 -2 57 -2q71 0 161 9.5t154 24.5q102 24 176 56t131 100q64 74 91 192l-27 348l-391 -45zM191 1712l133 -36l337 110l336 -105l15 101l-251 192l-178 26z" />
    <glyph glyph-name="Gbreve" unicode="&#x11e;" horiz-adv-x="1452" 
d="M656 1820q-29 -24 -66 -22q-5 0 -40 5q-5 1 -9.5 2t-8.5 1q-3 0 -3.5 0.5t0.5 0.5t-6 4q-23 14 -35 39q-9 16 -7 42l-111 20q-6 -33 -6 -59q0 -41 18 -80q23 -29 36.5 -42.5t34.5 -24.5q23 -12 59 -18.5t96 -9.5q20 -2 26 -2q13 0 25.5 2t19.5 3q9 1 23 7l28 12
q37 16 56 41q15 20 30 58q3 6 7.5 16t6.5 19.5t3 26.5l3 49l-140 -17q-11 -49 -40 -73zM911 511q102 0 102 -57q0 -26 -19 -58.5t-52 -64.5l-45 -25q-42 -15 -66 -21t-43 -6h-36q-20 0 -47 -4q-33 -5 -56 -5q-42 0 -72.5 14.5t-53.5 46.5q-30 42 -49.5 124t-31.5 216l-3 39
q-16 169 -20 207q-7 57 -7 115q0 138 54 208q31 39 83.5 55t133.5 27l29 4q24 4 52 4q82 0 127 -49q31 -34 37 -111l289 29q-11 93 -22.5 148.5t-35.5 99.5q-13 24 -27.5 40t-35.5 29q-40 24 -144 48q-61 14 -137 14q-78 0 -207 -14q-133 -14 -201 -43q-76 -32 -141 -86
q-71 -60 -101 -143t-30 -194q0 -81 13 -192q17 -139 26 -231q9 -144 32 -269q31 -170 91 -233q42 -47 71 -86q29 -38 70.5 -60.5t104.5 -28.5q16 -2 57 -2q71 0 161 9.5t154 24.5q102 24 176 56t131 100q64 74 91 192l-27 348l-391 -45z" />
    <glyph glyph-name="gbreve" unicode="&#x11f;" horiz-adv-x="1452" 
d="M656 1820q-29 -24 -66 -22q-5 0 -40 5q-5 1 -9.5 2t-8.5 1q-3 0 -3.5 0.5t0.5 0.5t-6 4q-23 14 -35 39q-9 16 -7 42l-111 20q-6 -33 -6 -59q0 -41 18 -80q23 -29 36.5 -42.5t34.5 -24.5q23 -12 59 -18.5t96 -9.5q20 -2 26 -2q13 0 25.5 2t19.5 3q9 1 23 7l28 12
q37 16 56 41q15 20 30 58q3 6 7.5 16t6.5 19.5t3 26.5l3 49l-140 -17q-11 -49 -40 -73zM911 511q102 0 102 -57q0 -26 -19 -58.5t-52 -64.5l-45 -25q-42 -15 -66 -21t-43 -6h-36q-20 0 -47 -4q-33 -5 -56 -5q-42 0 -72.5 14.5t-53.5 46.5q-30 42 -49.5 124t-31.5 216l-3 39
q-16 169 -20 207q-7 57 -7 115q0 138 54 208q31 39 83.5 55t133.5 27l29 4q24 4 52 4q82 0 127 -49q31 -34 37 -111l289 29q-11 93 -22.5 148.5t-35.5 99.5q-13 24 -27.5 40t-35.5 29q-40 24 -144 48q-61 14 -137 14q-78 0 -207 -14q-133 -14 -201 -43q-76 -32 -141 -86
q-71 -60 -101 -143t-30 -194q0 -81 13 -192q17 -139 26 -231q9 -144 32 -269q31 -170 91 -233q42 -47 71 -86q29 -38 70.5 -60.5t104.5 -28.5q16 -2 57 -2q71 0 161 9.5t154 24.5q102 24 176 56t131 100q64 74 91 192l-27 348l-391 -45z" />
    <glyph glyph-name="Gdotaccent" unicode="&#x120;" horiz-adv-x="1452" 
d="M559 1695l232 -16l17 247l-231 16zM911 511q102 0 102 -57q0 -26 -19 -58.5t-52 -64.5l-45 -25q-42 -15 -66 -21t-43 -6h-36q-20 0 -47 -4q-33 -5 -56 -5q-42 0 -72.5 14.5t-53.5 46.5q-30 42 -49.5 124t-31.5 216l-3 39q-16 169 -20 207q-7 57 -7 115q0 138 54 208
q31 39 83.5 55t133.5 27l29 4q24 4 52 4q82 0 127 -49q31 -34 37 -111l289 29q-11 93 -22.5 148.5t-35.5 99.5q-13 24 -27.5 40t-35.5 29q-40 24 -144 48q-61 14 -137 14q-78 0 -207 -14q-133 -14 -201 -43q-76 -32 -141 -86q-71 -60 -101 -143t-30 -194q0 -81 13 -192
q17 -139 26 -231q9 -144 32 -269q31 -170 91 -233q42 -47 71 -86q29 -38 70.5 -60.5t104.5 -28.5q16 -2 57 -2q71 0 161 9.5t154 24.5q102 24 176 56t131 100q64 74 91 192l-27 348l-391 -45z" />
    <glyph glyph-name="gdotaccent" unicode="&#x121;" horiz-adv-x="1452" 
d="M559 1695l232 -16l17 247l-231 16zM911 511q102 0 102 -57q0 -26 -19 -58.5t-52 -64.5l-45 -25q-42 -15 -66 -21t-43 -6h-36q-20 0 -47 -4q-33 -5 -56 -5q-42 0 -72.5 14.5t-53.5 46.5q-30 42 -49.5 124t-31.5 216l-3 39q-16 169 -20 207q-7 57 -7 115q0 138 54 208
q31 39 83.5 55t133.5 27l29 4q24 4 52 4q82 0 127 -49q31 -34 37 -111l289 29q-11 93 -22.5 148.5t-35.5 99.5q-13 24 -27.5 40t-35.5 29q-40 24 -144 48q-61 14 -137 14q-78 0 -207 -14q-133 -14 -201 -43q-76 -32 -141 -86q-71 -60 -101 -143t-30 -194q0 -81 13 -192
q17 -139 26 -231q9 -144 32 -269q31 -170 91 -233q42 -47 71 -86q29 -38 70.5 -60.5t104.5 -28.5q16 -2 57 -2q71 0 161 9.5t154 24.5q102 24 176 56t131 100q64 74 91 192l-27 348l-391 -45z" />
    <glyph glyph-name="Gcommaaccent" unicode="&#x122;" horiz-adv-x="1452" 
d="M911 511q102 0 102 -57q0 -26 -19 -58.5t-52 -64.5l-45 -25q-42 -15 -66 -21t-43 -6h-36q-20 0 -47 -4q-33 -5 -56 -5q-42 0 -72.5 14.5t-53.5 46.5q-30 42 -49.5 124t-31.5 216l-3 39q-16 169 -20 207q-7 57 -7 115q0 138 54 208q31 39 83.5 55t133.5 27l29 4q24 4 52 4
q82 0 127 -49q31 -34 37 -111l289 29q-11 93 -22.5 148.5t-35.5 99.5q-13 24 -27.5 40t-35.5 29q-40 24 -144 48q-61 14 -137 14q-78 0 -207 -14q-133 -14 -201 -43q-76 -32 -141 -86q-71 -60 -101 -143t-30 -194q0 -81 13 -192q17 -139 26 -231q9 -144 32 -269
q31 -170 91 -233q42 -47 71 -86q29 -38 70.5 -60.5t104.5 -28.5q16 -2 57 -2q71 0 161 9.5t154 24.5q102 24 176 56t131 100q64 74 91 192l-27 348l-391 -45zM880 -80l-207 -20v-211l13 -21l84 -6l-11 -47l76 -18l45 84v239z" />
    <glyph glyph-name="gcommaaccent" unicode="&#x123;" horiz-adv-x="1452" 
d="M911 511q102 0 102 -57q0 -26 -19 -58.5t-52 -64.5l-45 -25q-42 -15 -66 -21t-43 -6h-36q-20 0 -47 -4q-33 -5 -56 -5q-42 0 -72.5 14.5t-53.5 46.5q-30 42 -49.5 124t-31.5 216l-3 39q-16 169 -20 207q-7 57 -7 115q0 138 54 208q31 39 83.5 55t133.5 27l29 4q24 4 52 4
q82 0 127 -49q31 -34 37 -111l289 29q-11 93 -22.5 148.5t-35.5 99.5q-13 24 -27.5 40t-35.5 29q-40 24 -144 48q-61 14 -137 14q-78 0 -207 -14q-133 -14 -201 -43q-76 -32 -141 -86q-71 -60 -101 -143t-30 -194q0 -81 13 -192q17 -139 26 -231q9 -144 32 -269
q31 -170 91 -233q42 -47 71 -86q29 -38 70.5 -60.5t104.5 -28.5q16 -2 57 -2q71 0 161 9.5t154 24.5q102 24 176 56t131 100q64 74 91 192l-27 348l-391 -45zM880 -80l-207 -20v-211l13 -21l84 -6l-11 -47l76 -18l45 84v239z" />
    <glyph glyph-name="Hcircumflex" unicode="&#x124;" horiz-adv-x="1468" 
d="M241 1712l133 -36l337 110l336 -105l15 101l-251 192l-178 26zM436 1553l-286 -4l81 -1569l287 3l-14 647l446 30l37 -655l320 16l-82 1569l-320 -16l17 -627l-433 -37z" />
    <glyph glyph-name="hcircumflex" unicode="&#x125;" horiz-adv-x="1468" 
d="M241 1712l133 -36l337 110l336 -105l15 101l-251 192l-178 26zM436 1553l-286 -4l81 -1569l287 3l-14 647l446 30l37 -655l320 16l-82 1569l-320 -16l17 -627l-433 -37z" />
    <glyph glyph-name="Hbar" unicode="&#x126;" horiz-adv-x="1718" 
d="M1615 1197l-245 -4l61 -1172l-320 -16l-37 655l-446 -30l14 -647l-287 -3l-61 1191l-244 -5l2 247l229 4l-7 132l286 4l11 -130l462 10l-4 141l320 16l8 -151l253 5zM1046 947l-6 239l-449 -9l22 -267z" />
    <glyph glyph-name="hbar" unicode="&#x127;" horiz-adv-x="1718" 
d="M1615 1197l-245 -4l61 -1172l-320 -16l-37 655l-446 -30l14 -647l-287 -3l-61 1191l-244 -5l2 247l229 4l-7 132l286 4l11 -130l462 10l-4 141l320 16l8 -151l253 5zM1046 947l-6 239l-449 -9l22 -267z" />
    <glyph glyph-name="Itilde" unicode="&#x128;" horiz-adv-x="795" 
d="M546 1677q25 0 53 8.5t50 19.5q8 4 46 28q27 18 45 27q1 13 1 46l-1 68l-50 28q-3 -2 -13.5 -8.5t-22 -16.5t-17.5 -19q-10 -14 -28 -19t-45 -5h-39q-24 3 -45.5 10.5t-52.5 21.5q-38 17 -63 25q-38 11 -89 11q-20 0 -50 -3q-37 -5 -64 -13.5t-51 -28.5q-1 -1 -9.5 -16.5
t-33.5 -27.5l-30 -53q5 -4 23 -19t45.5 -34t56.5 -31v-1q1 -1 20 22t49 36q39 16 89 16q19 0 29 -3q29 -11 63 -27q31 -15 56.5 -24t59.5 -16q12 -2 18 -2zM567 1578h-330v-1638h354z" />
    <glyph glyph-name="itilde" unicode="&#x129;" horiz-adv-x="795" 
d="M546 1677q25 0 53 8.5t50 19.5q8 4 46 28q27 18 45 27q1 13 1 46l-1 68l-50 28q-3 -2 -13.5 -8.5t-22 -16.5t-17.5 -19q-10 -14 -28 -19t-45 -5h-39q-24 3 -45.5 10.5t-52.5 21.5q-38 17 -63 25q-38 11 -89 11q-20 0 -50 -3q-37 -5 -64 -13.5t-51 -28.5q-1 -1 -9.5 -16.5
t-33.5 -27.5l-30 -53q5 -4 23 -19t45.5 -34t56.5 -31v-1q1 -1 20 22t49 36q39 16 89 16q19 0 29 -3q29 -11 63 -27q31 -15 56.5 -24t59.5 -16q12 -2 18 -2zM567 1578h-330v-1638h354z" />
    <glyph glyph-name="Imacron" unicode="&#x12a;" horiz-adv-x="752" 
d="M133 1867l-3 -184l486 -2l-11 199zM537 1578h-330v-1638h354z" />
    <glyph glyph-name="imacron" unicode="&#x12b;" horiz-adv-x="752" 
d="M133 1867l-3 -184l486 -2l-11 199zM537 1578h-330v-1638h354z" />
    <glyph glyph-name="Ibreve" unicode="&#x12c;" horiz-adv-x="801" 
d="M430 1820q-29 -24 -66 -22q-5 0 -40 5q-5 1 -9.5 2t-8.5 1q-3 0 -3.5 0.5t0.5 0.5t-6 4q-23 14 -35 39q-9 16 -7 42l-111 20q-6 -33 -6 -59q0 -41 18 -80q23 -29 36.5 -42.5t34.5 -24.5q23 -12 59 -18.5t96 -9.5q20 -2 26 -2q13 0 25.5 2t19.5 3q9 1 23 7l28 12
q37 16 56 41q15 20 30 58q3 6 7.5 16t6.5 19.5t3 26.5l3 49l-140 -17q-11 -49 -40 -73zM537 1578h-330v-1638h354z" />
    <glyph glyph-name="ibreve" unicode="&#x12d;" horiz-adv-x="801" 
d="M430 1820q-29 -24 -66 -22q-5 0 -40 5q-5 1 -9.5 2t-8.5 1q-3 0 -3.5 0.5t0.5 0.5t-6 4q-23 14 -35 39q-9 16 -7 42l-111 20q-6 -33 -6 -59q0 -41 18 -80q23 -29 36.5 -42.5t34.5 -24.5q23 -12 59 -18.5t96 -9.5q20 -2 26 -2q13 0 25.5 2t19.5 3q9 1 23 7l28 12
q37 16 56 41q15 20 30 58q3 6 7.5 16t6.5 19.5t3 26.5l3 49l-140 -17q-11 -49 -40 -73zM537 1578h-330v-1638h354z" />
    <glyph glyph-name="Iogonek" unicode="&#x12e;" horiz-adv-x="752" 
d="M656 -396q-2 -3 -16 -25q-24 -39 -42 -58q-16 -16 -44 -34l-19 -13q-71 -32 -143 -32q-112 0 -217 79q-15 12 -31.5 54.5t-26.5 77.5q-5 20 -5 34q0 20 11 62q13 45 17 78q7 40 25.5 75.5t41.5 58.5v1617h330l22 -1514h1l-1 -1l2 -123h-109q-69 -86 -105 -119l-20 -129
q11 -27 32 -41t52 -26q21 -8 25 -11q17 9 64 34t52 24z" />
    <glyph glyph-name="iogonek" unicode="&#x12f;" horiz-adv-x="752" 
d="M656 -396q-2 -3 -16 -25q-24 -39 -42 -58q-16 -16 -44 -34l-19 -13q-71 -32 -143 -32q-112 0 -217 79q-15 12 -31.5 54.5t-26.5 77.5q-5 20 -5 34q0 20 11 62q13 45 17 78q7 40 25.5 75.5t41.5 58.5v1617h330l22 -1514h1l-1 -1l2 -123h-109q-69 -86 -105 -119l-20 -129
q11 -27 32 -41t52 -26q21 -8 25 -11q17 9 64 34t52 24z" />
    <glyph glyph-name="Idotaccent" unicode="&#x130;" horiz-adv-x="780" 
d="M267 1695l272 -16l17 247l-271 16zM565 1578h-330v-1638h354z" />
    <glyph glyph-name="dotlessi" unicode="&#x131;" horiz-adv-x="780" 
d="M267 1695l272 -16l17 247l-271 16zM565 1578h-330v-1638h354z" />
    <glyph glyph-name="IJ" unicode="&#x132;" horiz-adv-x="1969" 
d="M537 1578h-330v-1638h354zM1579 1586l-61 -1078q-5 -87 -35.5 -150.5t-77.5 -96t-98 -29.5q-16 0 -77 9l-33 5q-5 1 -6.5 1.5t1.5 0.5q2 0 -12 8q-42 22 -66 73q-16 30 -14 81l-209 37q-12 -63 -12 -112q0 -79 35 -150q42 -55 68 -82t66 -46q44 -22 111.5 -34t180.5 -18
q33 -3 57 -3q38 0 78 8q19 4 43 14q6 3 53 22q63 26 105 78q31 39 57 110q28 64 33 166q4 96 12 227l51 942z" />
    <glyph glyph-name="ij" unicode="&#x133;" horiz-adv-x="1969" 
d="M537 1578h-330v-1638h354zM1579 1586l-61 -1078q-5 -87 -35.5 -150.5t-77.5 -96t-98 -29.5q-16 0 -77 9l-33 5q-5 1 -6.5 1.5t1.5 0.5q2 0 -12 8q-42 22 -66 73q-16 30 -14 81l-209 37q-12 -63 -12 -112q0 -79 35 -150q42 -55 68 -82t66 -46q44 -22 111.5 -34t180.5 -18
q33 -3 57 -3q38 0 78 8q19 4 43 14q6 3 53 22q63 26 105 78q31 39 57 110q28 64 33 166q4 96 12 227l51 942z" />
    <glyph glyph-name="Jcircumflex" unicode="&#x134;" horiz-adv-x="1302" 
d="M471 1712l133 -36l337 110l336 -105l15 101l-251 192l-178 26zM827 1586l-61 -1078q-5 -87 -35.5 -150.5t-77.5 -96t-98 -29.5q-16 0 -77 9l-33 5q-5 1 -6.5 1.5t1.5 0.5q2 0 -12 8q-42 22 -66 73q-16 30 -14 81l-209 37q-12 -63 -12 -112q0 -79 35 -150q42 -55 68 -82
t66 -46q44 -22 111.5 -34t180.5 -18q33 -3 57 -3q38 0 78 8q19 4 43 14q6 3 53 22q63 26 105 78q31 39 57 110q28 64 33 166q4 96 12 227l51 942z" />
    <glyph glyph-name="jcircumflex" unicode="&#x135;" horiz-adv-x="1302" 
d="M471 1712l133 -36l337 110l336 -105l15 101l-251 192l-178 26zM827 1586l-61 -1078q-5 -87 -35.5 -150.5t-77.5 -96t-98 -29.5q-16 0 -77 9l-33 5q-5 1 -6.5 1.5t1.5 0.5q2 0 -12 8q-42 22 -66 73q-16 30 -14 81l-209 37q-12 -63 -12 -112q0 -79 35 -150q42 -55 68 -82
t66 -46q44 -22 111.5 -34t180.5 -18q33 -3 57 -3q38 0 78 8q19 4 43 14q6 3 53 22q63 26 105 78q31 39 57 110q28 64 33 166q4 96 12 227l51 942z" />
    <glyph glyph-name="Kcommaaccent" unicode="&#x136;" horiz-adv-x="1448" 
d="M432 1557l-282 -14l94 -1565l282 12l-16 529l467 -506l342 31l-666 772l553 776l-299 -12l-448 -578zM850 -80l-207 -20v-211l13 -21l84 -6l-11 -47l76 -18l45 84v239z" />
    <glyph glyph-name="kcommaaccent" unicode="&#x137;" horiz-adv-x="1448" 
d="M432 1557l-282 -14l94 -1565l282 12l-16 529l467 -506l342 31l-666 772l553 776l-299 -12l-448 -578zM850 -80l-207 -20v-211l13 -21l84 -6l-11 -47l76 -18l45 84v239z" />
    <glyph glyph-name="Lacute" unicode="&#x139;" horiz-adv-x="1341" 
d="M0 1736l28 -70l576 117l-75 217zM385 1569l-260 -4l70 -1571l1030 47l-17 277l-706 -33z" />
    <glyph glyph-name="lacute" unicode="&#x13a;" horiz-adv-x="1341" 
d="M0 1736l28 -70l576 117l-75 217zM385 1569l-260 -4l70 -1571l1030 47l-17 277l-706 -33z" />
    <glyph glyph-name="Lcommaaccent" unicode="&#x13b;" horiz-adv-x="1341" 
d="M385 1569l-260 -4l70 -1571l1030 47l-17 277l-706 -33zM800 -80l-207 -20v-211l13 -21l84 -6l-11 -47l76 -18l45 84v239z" />
    <glyph glyph-name="lcommaaccent" unicode="&#x13c;" horiz-adv-x="1341" 
d="M385 1569l-260 -4l70 -1571l1030 47l-17 277l-706 -33zM800 -80l-207 -20v-211l13 -21l84 -6l-11 -47l76 -18l45 84v239z" />
    <glyph glyph-name="Lcaron" unicode="&#x13d;" horiz-adv-x="1341" 
d="M1008 1963l-133 37l-337 -109l-336 106l-15 -101l250 -193l178 -26zM385 1569l-260 -4l70 -1571l1030 47l-17 277l-706 -33z" />
    <glyph glyph-name="lcaron" unicode="&#x13e;" horiz-adv-x="1341" 
d="M1008 1963l-133 37l-337 -109l-336 106l-15 -101l250 -193l178 -26zM385 1569l-260 -4l70 -1571l1030 47l-17 277l-706 -33z" />
    <glyph glyph-name="Ldot" unicode="&#x13f;" horiz-adv-x="1341" 
d="M385 1569l-260 -4l70 -1571l1030 47l-17 277l-706 -33zM665 881l-20 -401l428 -22l21 401z" />
    <glyph glyph-name="ldot" unicode="&#x140;" horiz-adv-x="1341" 
d="M385 1569l-260 -4l70 -1571l1030 47l-17 277l-706 -33zM665 881l-20 -401l428 -22l21 401z" />
    <glyph glyph-name="Lslash" unicode="&#x141;" horiz-adv-x="1460" 
d="M1344 41l-1030 -47l-24 534l-88 -89l-187 126l262 243l-33 757l260 4l46 -514l154 154l221 -82l-350 -338l46 -504l706 33z" />
    <glyph glyph-name="lslash" unicode="&#x142;" horiz-adv-x="1460" 
d="M1344 41l-1030 -47l-24 534l-88 -89l-187 126l262 243l-33 757l260 4l46 -514l154 154l221 -82l-350 -338l46 -504l706 33z" />
    <glyph glyph-name="Nacute" unicode="&#x143;" horiz-adv-x="1366" 
d="M440 1736l28 -70l576 117l-75 217zM524 1563l-278 30l-131 -1552l299 -29l65 709l342 -717l240 -47l133 1553l-305 26l-68 -702z" />
    <glyph glyph-name="nacute" unicode="&#x144;" horiz-adv-x="1366" 
d="M440 1736l28 -70l576 117l-75 217zM524 1563l-278 30l-131 -1552l299 -29l65 709l342 -717l240 -47l133 1553l-305 26l-68 -702z" />
    <glyph glyph-name="Ncommaaccent" unicode="&#x145;" horiz-adv-x="1366" 
d="M524 1563l-278 30l-131 -1552l299 -29l65 709l342 -717l240 -47l133 1553l-305 26l-68 -702zM710 -80l-207 -20v-211l13 -21l84 -6l-11 -47l76 -18l45 84v239z" />
    <glyph glyph-name="ncommaaccent" unicode="&#x146;" horiz-adv-x="1366" 
d="M524 1563l-278 30l-131 -1552l299 -29l65 709l342 -717l240 -47l133 1553l-305 26l-68 -702zM710 -80l-207 -20v-211l13 -21l84 -6l-11 -47l76 -18l45 84v239z" />
    <glyph glyph-name="Ncaron" unicode="&#x147;" horiz-adv-x="1366" 
d="M1168 1963l-133 37l-337 -109l-336 106l-15 -101l250 -193l178 -26zM524 1563l-278 30l-131 -1552l299 -29l65 709l342 -717l240 -47l133 1553l-305 26l-68 -702z" />
    <glyph glyph-name="ncaron" unicode="&#x148;" horiz-adv-x="1366" 
d="M1168 1963l-133 37l-337 -109l-336 106l-15 -101l250 -193l178 -26zM524 1563l-278 30l-131 -1552l299 -29l65 709l342 -717l240 -47l133 1553l-305 26l-68 -702z" />
    <glyph glyph-name="Eng" unicode="&#x14a;" horiz-adv-x="1366" 
d="M585 -229q22 -2 36 -2q84 0 144 43.5t60 146.5q0 28 -4 55l-342 707l-65 -709l-299 29l131 1552l278 -30l297 -729l68 702l305 -26l-142 -1596q-11 -102 -42 -164q-29 -69 -63 -106q-42 -49 -109 -73q-41 -13 -54 -19q-24 -8 -44 -11q-27 -5 -57 -5q-33 0 -78 7
q-88 10 -139 19l67 217q30 -6 52 -8z" />
    <glyph glyph-name="eng" unicode="&#x14b;" horiz-adv-x="1366" 
d="M585 -229q22 -2 36 -2q84 0 144 43.5t60 146.5q0 28 -4 55l-342 707l-65 -709l-299 29l131 1552l278 -30l297 -729l68 702l305 -26l-142 -1596q-11 -102 -42 -164q-29 -69 -63 -106q-42 -49 -109 -73q-41 -13 -54 -19q-24 -8 -44 -11q-27 -5 -57 -5q-33 0 -78 7
q-88 10 -139 19l67 217q30 -6 52 -8z" />
    <glyph glyph-name="Omacron" unicode="&#x14c;" horiz-adv-x="1419" 
d="M443 1867l-3 -184l486 -2l-11 199zM240 1344q-25 -49 -45.5 -136.5t-31.5 -195.5q-10 -93 -10 -205q0 -142 17 -267q16 -123 53 -228.5t94 -180.5q109 -145 282 -145q32 0 60 4q17 -1 50 -1q175 0 284 41t169 126q59 84 79.5 216.5t20.5 345.5q0 281 -24 444.5t-88 254.5
q-44 63 -111 99.5t-161.5 52t-230.5 15.5q-159 0 -278 -79q-48 -32 -80.5 -72t-48.5 -81v-8zM412 853q0 156 23 251t76 141t144 46q71 0 111 -3.5t74.5 -18.5t59.5 -49q41 -55 59 -169q18 -115 18 -329q0 -143 -17 -231q-11 -55 -24 -93.5t-33 -60.5q-72 -82 -252 -82
q-55 0 -93 33t-65 90q-21 45 -38 107q-12 43 -29 99z" />
    <glyph glyph-name="omacron" unicode="&#x14d;" horiz-adv-x="1419" 
d="M443 1867l-3 -184l486 -2l-11 199zM240 1344q-25 -49 -45.5 -136.5t-31.5 -195.5q-10 -93 -10 -205q0 -142 17 -267q16 -123 53 -228.5t94 -180.5q109 -145 282 -145q32 0 60 4q17 -1 50 -1q175 0 284 41t169 126q59 84 79.5 216.5t20.5 345.5q0 281 -24 444.5t-88 254.5
q-44 63 -111 99.5t-161.5 52t-230.5 15.5q-159 0 -278 -79q-48 -32 -80.5 -72t-48.5 -81v-8zM412 853q0 156 23 251t76 141t144 46q71 0 111 -3.5t74.5 -18.5t59.5 -49q41 -55 59 -169q18 -115 18 -329q0 -143 -17 -231q-11 -55 -24 -93.5t-33 -60.5q-72 -82 -252 -82
q-55 0 -93 33t-65 90q-21 45 -38 107q-12 43 -29 99z" />
    <glyph glyph-name="Obreve" unicode="&#x14e;" horiz-adv-x="1419" 
d="M729 1820q-29 -24 -66 -22q-5 0 -40 5q-5 1 -9.5 2t-8.5 1q-3 0 -3.5 0.5t0.5 0.5t-6 4q-23 14 -35 39q-9 16 -7 42l-111 20q-6 -33 -6 -59q0 -41 18 -80q23 -29 36.5 -42.5t34.5 -24.5q23 -12 59 -18.5t96 -9.5q20 -2 26 -2q13 0 25.5 2t19.5 3q9 1 23 7l28 12
q37 16 56 41q15 20 30 58q3 6 7.5 16t6.5 19.5t3 26.5l3 49l-140 -17q-11 -49 -40 -73zM240 1344q-25 -49 -45.5 -136.5t-31.5 -195.5q-10 -93 -10 -205q0 -142 17 -267q16 -123 53 -228.5t94 -180.5q109 -145 282 -145q32 0 60 4q17 -1 50 -1q175 0 284 41t169 126
q59 84 79.5 216.5t20.5 345.5q0 281 -24 444.5t-88 254.5q-44 63 -111 99.5t-161.5 52t-230.5 15.5q-159 0 -278 -79q-48 -32 -80.5 -72t-48.5 -81v-8zM412 853q0 156 23 251t76 141t144 46q71 0 111 -3.5t74.5 -18.5t59.5 -49q41 -55 59 -169q18 -115 18 -329
q0 -143 -17 -231q-11 -55 -24 -93.5t-33 -60.5q-72 -82 -252 -82q-55 0 -93 33t-65 90q-21 45 -38 107q-12 43 -29 99z" />
    <glyph glyph-name="obreve" unicode="&#x14f;" horiz-adv-x="1419" 
d="M729 1820q-29 -24 -66 -22q-5 0 -40 5q-5 1 -9.5 2t-8.5 1q-3 0 -3.5 0.5t0.5 0.5t-6 4q-23 14 -35 39q-9 16 -7 42l-111 20q-6 -33 -6 -59q0 -41 18 -80q23 -29 36.5 -42.5t34.5 -24.5q23 -12 59 -18.5t96 -9.5q20 -2 26 -2q13 0 25.5 2t19.5 3q9 1 23 7l28 12
q37 16 56 41q15 20 30 58q3 6 7.5 16t6.5 19.5t3 26.5l3 49l-140 -17q-11 -49 -40 -73zM240 1344q-25 -49 -45.5 -136.5t-31.5 -195.5q-10 -93 -10 -205q0 -142 17 -267q16 -123 53 -228.5t94 -180.5q109 -145 282 -145q32 0 60 4q17 -1 50 -1q175 0 284 41t169 126
q59 84 79.5 216.5t20.5 345.5q0 281 -24 444.5t-88 254.5q-44 63 -111 99.5t-161.5 52t-230.5 15.5q-159 0 -278 -79q-48 -32 -80.5 -72t-48.5 -81v-8zM412 853q0 156 23 251t76 141t144 46q71 0 111 -3.5t74.5 -18.5t59.5 -49q41 -55 59 -169q18 -115 18 -329
q0 -143 -17 -231q-11 -55 -24 -93.5t-33 -60.5q-72 -82 -252 -82q-55 0 -93 33t-65 90q-21 45 -38 107q-12 43 -29 99z" />
    <glyph glyph-name="Ohungarumlaut" unicode="&#x150;" horiz-adv-x="1419" 
d="M494 1957l-77 -242l180 -11l88 155l3 94l-43 12zM864 1933l-77 -242l180 -11l88 155l3 94l-43 12zM240 1344q-25 -49 -45.5 -136.5t-31.5 -195.5q-10 -93 -10 -205q0 -142 17 -267q16 -123 53 -228.5t94 -180.5q109 -145 282 -145q32 0 60 4q17 -1 50 -1q175 0 284 41
t169 126q59 84 79.5 216.5t20.5 345.5q0 281 -24 444.5t-88 254.5q-44 63 -111 99.5t-161.5 52t-230.5 15.5q-159 0 -278 -79q-48 -32 -80.5 -72t-48.5 -81v-8zM412 853q0 156 23 251t76 141t144 46q71 0 111 -3.5t74.5 -18.5t59.5 -49q41 -55 59 -169q18 -115 18 -329
q0 -143 -17 -231q-11 -55 -24 -93.5t-33 -60.5q-72 -82 -252 -82q-55 0 -93 33t-65 90q-21 45 -38 107q-12 43 -29 99z" />
    <glyph glyph-name="ohungarumlaut" unicode="&#x151;" horiz-adv-x="1419" 
d="M494 1957l-77 -242l180 -11l88 155l3 94l-43 12zM864 1933l-77 -242l180 -11l88 155l3 94l-43 12zM240 1344q-25 -49 -45.5 -136.5t-31.5 -195.5q-10 -93 -10 -205q0 -142 17 -267q16 -123 53 -228.5t94 -180.5q109 -145 282 -145q32 0 60 4q17 -1 50 -1q175 0 284 41
t169 126q59 84 79.5 216.5t20.5 345.5q0 281 -24 444.5t-88 254.5q-44 63 -111 99.5t-161.5 52t-230.5 15.5q-159 0 -278 -79q-48 -32 -80.5 -72t-48.5 -81v-8zM412 853q0 156 23 251t76 141t144 46q71 0 111 -3.5t74.5 -18.5t59.5 -49q41 -55 59 -169q18 -115 18 -329
q0 -143 -17 -231q-11 -55 -24 -93.5t-33 -60.5q-72 -82 -252 -82q-55 0 -93 33t-65 90q-21 45 -38 107q-12 43 -29 99z" />
    <glyph glyph-name="OE" unicode="&#x152;" horiz-adv-x="1930" 
d="M955 19q-108 -38 -272 -38q-38 0 -57 1q-28 -4 -60 -4q-173 0 -282 145q-57 75 -94 180.5t-53 228.5q-17 125 -17 267q0 112 10 205q11 108 31.5 195.5t45.5 136.5v8q16 41 48.5 81t80.5 72q119 79 278 79q196 0 311 -34l906 42l-8 -236l-629 -14l41 -493l508 41l17 -248
l-504 4l35 -476l581 9l8 -164zM943 628l-7 329q-5 54 -10 86q-18 114 -59 169q-25 34 -59.5 49t-74.5 18.5t-111 3.5q-91 0 -144 -46t-76 -141t-23 -251l14 -269q17 -56 29 -99q17 -62 38 -107q27 -57 65 -90t93 -33q180 0 252 82q20 22 33 60.5t24 93.5q11 50 16 145z" />
    <glyph glyph-name="oe" unicode="&#x153;" horiz-adv-x="1930" 
d="M955 19q-108 -38 -272 -38q-38 0 -57 1q-28 -4 -60 -4q-173 0 -282 145q-57 75 -94 180.5t-53 228.5q-17 125 -17 267q0 112 10 205q11 108 31.5 195.5t45.5 136.5v8q16 41 48.5 81t80.5 72q119 79 278 79q196 0 311 -34l906 42l-8 -236l-629 -14l41 -493l508 41l17 -248
l-504 4l35 -476l581 9l8 -164zM943 628l-7 329q-5 54 -10 86q-18 114 -59 169q-25 34 -59.5 49t-74.5 18.5t-111 3.5q-91 0 -144 -46t-76 -141t-23 -251l14 -269q17 -56 29 -99q17 -62 38 -107q27 -57 65 -90t93 -33q180 0 252 82q20 22 33 60.5t24 93.5q11 50 16 145z" />
    <glyph glyph-name="Racute" unicode="&#x154;" 
d="M450 1736l28 -70l576 117l-75 217zM135 81l260 -25l58 614l41 -4q17 0 22 -1q7 0 11.5 -1.5t10.5 -6.5q6 -6 17 -13q7 -7 22.5 -33t32.5 -56l33 -64q22 -42 29 -52l276 -446l309 -21q-187 333 -312 535l-36 58q-5 9 -31 51l-28 44q66 10 107 13q54 4 83 18
q99 47 156 133.5t64 206.5q2 34 2 57q0 58 -6 116q-5 47 -15 89t-24 66q-60 102 -170 145q-32 13 -45 20q-34 16 -92 25q-38 5 -83 8l-575 31zM481 986l29 344l223 -14l55 -6q73 -7 115 -26q24 -11 43.5 -31t30.5 -42q19 -37 17 -71l-3 -37q-4 -50 -38.5 -85.5t-80.5 -39.5
q-41 -7 -114 -7q-22 0 -52 2l-32 1z" />
    <glyph glyph-name="racute" unicode="&#x155;" 
d="M450 1736l28 -70l576 117l-75 217zM135 81l260 -25l58 614l41 -4q17 0 22 -1q7 0 11.5 -1.5t10.5 -6.5q6 -6 17 -13q7 -7 22.5 -33t32.5 -56l33 -64q22 -42 29 -52l276 -446l309 -21q-187 333 -312 535l-36 58q-5 9 -31 51l-28 44q66 10 107 13q54 4 83 18
q99 47 156 133.5t64 206.5q2 34 2 57q0 58 -6 116q-5 47 -15 89t-24 66q-60 102 -170 145q-32 13 -45 20q-34 16 -92 25q-38 5 -83 8l-575 31zM481 986l29 344l223 -14l55 -6q73 -7 115 -26q24 -11 43.5 -31t30.5 -42q19 -37 17 -71l-3 -37q-4 -50 -38.5 -85.5t-80.5 -39.5
q-41 -7 -114 -7q-22 0 -52 2l-32 1z" />
    <glyph glyph-name="Rcommaaccent" unicode="&#x156;" 
d="M135 81l260 -25l58 614l41 -4q17 0 22 -1q7 0 11.5 -1.5t10.5 -6.5q6 -6 17 -13q7 -7 22.5 -33t32.5 -56l33 -64q22 -42 29 -52l276 -446l309 -21q-187 333 -312 535l-36 58q-5 9 -31 51l-28 44q66 10 107 13q54 4 83 18q99 47 156 133.5t64 206.5q2 34 2 57q0 58 -6 116
q-5 47 -15 89t-24 66q-60 102 -170 145q-32 13 -45 20q-34 16 -92 25q-38 5 -83 8l-575 31zM481 986l29 344l223 -14l55 -6q73 -7 115 -26q24 -11 43.5 -31t30.5 -42q19 -37 17 -71l-3 -37q-4 -50 -38.5 -85.5t-80.5 -39.5q-41 -7 -114 -7q-22 0 -52 2l-32 1zM760 -80
l-207 -20v-211l13 -21l84 -6l-11 -47l76 -18l45 84v239z" />
    <glyph glyph-name="rcommaaccent" unicode="&#x157;" 
d="M135 81l260 -25l58 614l41 -4q17 0 22 -1q7 0 11.5 -1.5t10.5 -6.5q6 -6 17 -13q7 -7 22.5 -33t32.5 -56l33 -64q22 -42 29 -52l276 -446l309 -21q-187 333 -312 535l-36 58q-5 9 -31 51l-28 44q66 10 107 13q54 4 83 18q99 47 156 133.5t64 206.5q2 34 2 57q0 58 -6 116
q-5 47 -15 89t-24 66q-60 102 -170 145q-32 13 -45 20q-34 16 -92 25q-38 5 -83 8l-575 31zM481 986l29 344l223 -14l55 -6q73 -7 115 -26q24 -11 43.5 -31t30.5 -42q19 -37 17 -71l-3 -37q-4 -50 -38.5 -85.5t-80.5 -39.5q-41 -7 -114 -7q-22 0 -52 2l-32 1zM760 -80
l-207 -20v-211l13 -21l84 -6l-11 -47l76 -18l45 84v239z" />
    <glyph glyph-name="Rcaron" unicode="&#x158;" 
d="M1178 1963l-133 37l-337 -109l-336 106l-15 -101l250 -193l178 -26zM135 81l260 -25l58 614l41 -4q17 0 22 -1q7 0 11.5 -1.5t10.5 -6.5q6 -6 17 -13q7 -7 22.5 -33t32.5 -56l33 -64q22 -42 29 -52l276 -446l309 -21q-187 333 -312 535l-36 58q-5 9 -31 51l-28 44
q66 10 107 13q54 4 83 18q99 47 156 133.5t64 206.5q2 34 2 57q0 58 -6 116q-5 47 -15 89t-24 66q-60 102 -170 145q-32 13 -45 20q-34 16 -92 25q-38 5 -83 8l-575 31zM481 986l29 344l223 -14l55 -6q73 -7 115 -26q24 -11 43.5 -31t30.5 -42q19 -37 17 -71l-3 -37
q-4 -50 -38.5 -85.5t-80.5 -39.5q-41 -7 -114 -7q-22 0 -52 2l-32 1z" />
    <glyph glyph-name="rcaron" unicode="&#x159;" 
d="M1178 1963l-133 37l-337 -109l-336 106l-15 -101l250 -193l178 -26zM135 81l260 -25l58 614l41 -4q17 0 22 -1q7 0 11.5 -1.5t10.5 -6.5q6 -6 17 -13q7 -7 22.5 -33t32.5 -56l33 -64q22 -42 29 -52l276 -446l309 -21q-187 333 -312 535l-36 58q-5 9 -31 51l-28 44
q66 10 107 13q54 4 83 18q99 47 156 133.5t64 206.5q2 34 2 57q0 58 -6 116q-5 47 -15 89t-24 66q-60 102 -170 145q-32 13 -45 20q-34 16 -92 25q-38 5 -83 8l-575 31zM481 986l29 344l223 -14l55 -6q73 -7 115 -26q24 -11 43.5 -31t30.5 -42q19 -37 17 -71l-3 -37
q-4 -50 -38.5 -85.5t-80.5 -39.5q-41 -7 -114 -7q-22 0 -52 2l-32 1z" />
    <glyph glyph-name="Sacute" unicode="&#x15a;" horiz-adv-x="1309" 
d="M320 1736l28 -70l576 117l-75 217zM158 371q4 -62 8.5 -95.5t13.5 -57.5q10 -27 29 -51.5t57 -61.5q39 -37 72 -57.5t75 -31.5q43 -11 103.5 -15.5t155.5 -4.5h78q25 0 39.5 2.5t29.5 9.5q17 8 49 21q140 62 218.5 179.5t78.5 260.5q0 124 -59 218q-60 95 -186 161
q-30 16 -50.5 24t-54.5 18q-40 10 -72 16q-33 6 -63 13l-53 11q-62 12 -123 57q-68 50 -82 111q-7 18 -7 60q0 18 1 28q3 37 9 65t21 52q13 21 37.5 39.5t54.5 29.5q39 14 84 14q31 0 60 -7q12 -4 29 -7q66 -17 113 -72q29 -35 42 -91h252q-21 114 -49.5 181.5t-76.5 104.5
t-127 56t-218 31q-162 2 -258 -33t-141 -101q-27 -39 -40.5 -88t-18 -96.5t-7.5 -124.5q0 -92 29 -177.5t88 -141.5q33 -32 59.5 -51t59.5 -34q34 -15 83.5 -25t133.5 -19q92 -10 155 -51q23 -15 42 -34l28 -30q20 -20 24 -75q1 -7 1 -22t-1 -23q-1 -15 -1 -38
q0 -30 -17.5 -64t-48.5 -62q-73 -68 -162 -68q-23 0 -61 -2l-28 -1q-41 0 -68 12q-20 9 -39 32l-18 23q-16 16 -26 50q-4 14 -9 41z" />
    <glyph glyph-name="sacute" unicode="&#x15b;" horiz-adv-x="1309" 
d="M320 1736l28 -70l576 117l-75 217zM158 371q4 -62 8.5 -95.5t13.5 -57.5q10 -27 29 -51.5t57 -61.5q39 -37 72 -57.5t75 -31.5q43 -11 103.5 -15.5t155.5 -4.5h78q25 0 39.5 2.5t29.5 9.5q17 8 49 21q140 62 218.5 179.5t78.5 260.5q0 124 -59 218q-60 95 -186 161
q-30 16 -50.5 24t-54.5 18q-40 10 -72 16q-33 6 -63 13l-53 11q-62 12 -123 57q-68 50 -82 111q-7 18 -7 60q0 18 1 28q3 37 9 65t21 52q13 21 37.5 39.5t54.5 29.5q39 14 84 14q31 0 60 -7q12 -4 29 -7q66 -17 113 -72q29 -35 42 -91h252q-21 114 -49.5 181.5t-76.5 104.5
t-127 56t-218 31q-162 2 -258 -33t-141 -101q-27 -39 -40.5 -88t-18 -96.5t-7.5 -124.5q0 -92 29 -177.5t88 -141.5q33 -32 59.5 -51t59.5 -34q34 -15 83.5 -25t133.5 -19q92 -10 155 -51q23 -15 42 -34l28 -30q20 -20 24 -75q1 -7 1 -22t-1 -23q-1 -15 -1 -38
q0 -30 -17.5 -64t-48.5 -62q-73 -68 -162 -68q-23 0 -61 -2l-28 -1q-41 0 -68 12q-20 9 -39 32l-18 23q-16 16 -26 50q-4 14 -9 41z" />
    <glyph glyph-name="Scircumflex" unicode="&#x15c;" horiz-adv-x="1309" 
d="M221 1712l133 -36l337 110l336 -105l15 101l-251 192l-178 26zM158 371q4 -62 8.5 -95.5t13.5 -57.5q10 -27 29 -51.5t57 -61.5q39 -37 72 -57.5t75 -31.5q43 -11 103.5 -15.5t155.5 -4.5h78q25 0 39.5 2.5t29.5 9.5q17 8 49 21q140 62 218.5 179.5t78.5 260.5
q0 124 -59 218q-60 95 -186 161q-30 16 -50.5 24t-54.5 18q-40 10 -72 16q-33 6 -63 13l-53 11q-62 12 -123 57q-68 50 -82 111q-7 18 -7 60q0 18 1 28q3 37 9 65t21 52q13 21 37.5 39.5t54.5 29.5q39 14 84 14q31 0 60 -7q12 -4 29 -7q66 -17 113 -72q29 -35 42 -91h252
q-21 114 -49.5 181.5t-76.5 104.5t-127 56t-218 31q-162 2 -258 -33t-141 -101q-27 -39 -40.5 -88t-18 -96.5t-7.5 -124.5q0 -92 29 -177.5t88 -141.5q33 -32 59.5 -51t59.5 -34q34 -15 83.5 -25t133.5 -19q92 -10 155 -51q23 -15 42 -34l28 -30q20 -20 24 -75q1 -7 1 -22
t-1 -23q-1 -15 -1 -38q0 -30 -17.5 -64t-48.5 -62q-73 -68 -162 -68q-23 0 -61 -2l-28 -1q-41 0 -68 12q-20 9 -39 32l-18 23q-16 16 -26 50q-4 14 -9 41z" />
    <glyph glyph-name="scircumflex" unicode="&#x15d;" horiz-adv-x="1309" 
d="M221 1712l133 -36l337 110l336 -105l15 101l-251 192l-178 26zM158 371q4 -62 8.5 -95.5t13.5 -57.5q10 -27 29 -51.5t57 -61.5q39 -37 72 -57.5t75 -31.5q43 -11 103.5 -15.5t155.5 -4.5h78q25 0 39.5 2.5t29.5 9.5q17 8 49 21q140 62 218.5 179.5t78.5 260.5
q0 124 -59 218q-60 95 -186 161q-30 16 -50.5 24t-54.5 18q-40 10 -72 16q-33 6 -63 13l-53 11q-62 12 -123 57q-68 50 -82 111q-7 18 -7 60q0 18 1 28q3 37 9 65t21 52q13 21 37.5 39.5t54.5 29.5q39 14 84 14q31 0 60 -7q12 -4 29 -7q66 -17 113 -72q29 -35 42 -91h252
q-21 114 -49.5 181.5t-76.5 104.5t-127 56t-218 31q-162 2 -258 -33t-141 -101q-27 -39 -40.5 -88t-18 -96.5t-7.5 -124.5q0 -92 29 -177.5t88 -141.5q33 -32 59.5 -51t59.5 -34q34 -15 83.5 -25t133.5 -19q92 -10 155 -51q23 -15 42 -34l28 -30q20 -20 24 -75q1 -7 1 -22
t-1 -23q-1 -15 -1 -38q0 -30 -17.5 -64t-48.5 -62q-73 -68 -162 -68q-23 0 -61 -2l-28 -1q-41 0 -68 12q-20 9 -39 32l-18 23q-16 16 -26 50q-4 14 -9 41z" />
    <glyph glyph-name="Scedilla" unicode="&#x15e;" horiz-adv-x="1309" 
d="M1168 469q0 -143 -78.5 -260.5t-218.5 -179.5q-32 -13 -49 -21q-15 -7 -29.5 -9.5t-38.5 -2.5q-8 -27 -6 -52q1 -10 7.5 -15.5t19.5 -12.5q12 -6 19 -11q21 -15 34.5 -27t23.5 -30q11 -19 16 -52q2 -15 -6 -65q-2 -18 -5.5 -28t-4.5 -15q-13 -46 -43 -83q-34 -40 -80 -56
q-12 -5 -31 -5q-23 0 -53 8q-9 2 -49 14q-11 4 -49 16q-64 19 -85 27l32 113l48 -13l34 -10q28 -8 29 -8q24 -7 48 -7q35 0 54 16q11 10 14 14t4.5 11t4.5 16q4 13 6 29q1 4 1 12q0 16 -13 35q-7 11 -20 18.5t-21 12.5l-23 16q-12 9 -32 21q-25 14 -35 28t-10 48q0 12 4 36
q-107 3 -171 19q-42 11 -75 31.5t-72 57.5q-38 37 -57 61.5t-29 51.5q-9 24 -13.5 57.5t-8.5 95.5l248 8q5 -27 9 -41q10 -34 26 -50l18 -23q19 -23 39 -32q27 -12 68 -12l28 1q38 2 61 2q89 0 162 68q31 28 48.5 62t17.5 64q0 23 1 38q1 8 1 23q0 72 -25 97l-28 30
q-19 19 -42 34q-63 41 -155 51q-84 9 -133.5 19t-83.5 25q-33 15 -59.5 34t-59.5 51q-59 56 -88 141.5t-29 177.5q3 77 7.5 124.5t18 96.5t40.5 88q45 66 141 101t258 33q139 -12 218 -31t127 -56t76.5 -104.5t49.5 -181.5h-252q-13 56 -42 91q-47 55 -113 72q-17 3 -29 7
q-29 7 -60 7q-45 0 -84 -14q-30 -11 -54.5 -29.5t-37.5 -39.5q-15 -24 -21 -52t-9 -65q-1 -10 -1 -28q0 -42 7 -60q14 -61 82 -111q61 -45 123 -57l53 -11q30 -7 63 -13q32 -6 72 -16q34 -10 54.5 -18t50.5 -24q126 -66 186 -161q59 -94 59 -218z" />
    <glyph glyph-name="scedilla" unicode="&#x15f;" horiz-adv-x="1309" 
d="M1168 469q0 -143 -78.5 -260.5t-218.5 -179.5q-32 -13 -49 -21q-15 -7 -29.5 -9.5t-38.5 -2.5q-8 -27 -6 -52q1 -10 7.5 -15.5t19.5 -12.5q12 -6 19 -11q21 -15 34.5 -27t23.5 -30q11 -19 16 -52q2 -15 -6 -65q-2 -18 -5.5 -28t-4.5 -15q-13 -46 -43 -83q-34 -40 -80 -56
q-12 -5 -31 -5q-23 0 -53 8q-9 2 -49 14q-11 4 -49 16q-64 19 -85 27l32 113l48 -13l34 -10q28 -8 29 -8q24 -7 48 -7q35 0 54 16q11 10 14 14t4.5 11t4.5 16q4 13 6 29q1 4 1 12q0 16 -13 35q-7 11 -20 18.5t-21 12.5l-23 16q-12 9 -32 21q-25 14 -35 28t-10 48q0 12 4 36
q-107 3 -171 19q-42 11 -75 31.5t-72 57.5q-38 37 -57 61.5t-29 51.5q-9 24 -13.5 57.5t-8.5 95.5l248 8q5 -27 9 -41q10 -34 26 -50l18 -23q19 -23 39 -32q27 -12 68 -12l28 1q38 2 61 2q89 0 162 68q31 28 48.5 62t17.5 64q0 23 1 38q1 8 1 23q0 72 -25 97l-28 30
q-19 19 -42 34q-63 41 -155 51q-84 9 -133.5 19t-83.5 25q-33 15 -59.5 34t-59.5 51q-59 56 -88 141.5t-29 177.5q3 77 7.5 124.5t18 96.5t40.5 88q45 66 141 101t258 33q139 -12 218 -31t127 -56t76.5 -104.5t49.5 -181.5h-252q-13 56 -42 91q-47 55 -113 72q-17 3 -29 7
q-29 7 -60 7q-45 0 -84 -14q-30 -11 -54.5 -29.5t-37.5 -39.5q-15 -24 -21 -52t-9 -65q-1 -10 -1 -28q0 -42 7 -60q14 -61 82 -111q61 -45 123 -57l53 -11q30 -7 63 -13q32 -6 72 -16q34 -10 54.5 -18t50.5 -24q126 -66 186 -161q59 -94 59 -218z" />
    <glyph glyph-name="Scaron" unicode="&#x160;" horiz-adv-x="1309" 
d="M1068 1963l-133 37l-337 -109l-336 106l-15 -101l250 -193l178 -26zM158 371q4 -62 8.5 -95.5t13.5 -57.5q10 -27 29 -51.5t57 -61.5q39 -37 72 -57.5t75 -31.5q43 -11 103.5 -15.5t155.5 -4.5h78q25 0 39.5 2.5t29.5 9.5q17 8 49 21q140 62 218.5 179.5t78.5 260.5
q0 124 -59 218q-60 95 -186 161q-30 16 -50.5 24t-54.5 18q-40 10 -72 16q-33 6 -63 13l-53 11q-62 12 -123 57q-68 50 -82 111q-7 18 -7 60q0 18 1 28q3 37 9 65t21 52q13 21 37.5 39.5t54.5 29.5q39 14 84 14q31 0 60 -7q12 -4 29 -7q66 -17 113 -72q29 -35 42 -91h252
q-21 114 -49.5 181.5t-76.5 104.5t-127 56t-218 31q-162 2 -258 -33t-141 -101q-27 -39 -40.5 -88t-18 -96.5t-7.5 -124.5q0 -92 29 -177.5t88 -141.5q33 -32 59.5 -51t59.5 -34q34 -15 83.5 -25t133.5 -19q92 -10 155 -51q23 -15 42 -34l28 -30q20 -20 24 -75q1 -7 1 -22
t-1 -23q-1 -15 -1 -38q0 -30 -17.5 -64t-48.5 -62q-73 -68 -162 -68q-23 0 -61 -2l-28 -1q-41 0 -68 12q-20 9 -39 32l-18 23q-16 16 -26 50q-4 14 -9 41z" />
    <glyph glyph-name="scaron" unicode="&#x161;" horiz-adv-x="1309" 
d="M1068 1963l-133 37l-337 -109l-336 106l-15 -101l250 -193l178 -26zM158 371q4 -62 8.5 -95.5t13.5 -57.5q10 -27 29 -51.5t57 -61.5q39 -37 72 -57.5t75 -31.5q43 -11 103.5 -15.5t155.5 -4.5h78q25 0 39.5 2.5t29.5 9.5q17 8 49 21q140 62 218.5 179.5t78.5 260.5
q0 124 -59 218q-60 95 -186 161q-30 16 -50.5 24t-54.5 18q-40 10 -72 16q-33 6 -63 13l-53 11q-62 12 -123 57q-68 50 -82 111q-7 18 -7 60q0 18 1 28q3 37 9 65t21 52q13 21 37.5 39.5t54.5 29.5q39 14 84 14q31 0 60 -7q12 -4 29 -7q66 -17 113 -72q29 -35 42 -91h252
q-21 114 -49.5 181.5t-76.5 104.5t-127 56t-218 31q-162 2 -258 -33t-141 -101q-27 -39 -40.5 -88t-18 -96.5t-7.5 -124.5q0 -92 29 -177.5t88 -141.5q33 -32 59.5 -51t59.5 -34q34 -15 83.5 -25t133.5 -19q92 -10 155 -51q23 -15 42 -34l28 -30q20 -20 24 -75q1 -7 1 -22
t-1 -23q-1 -15 -1 -38q0 -30 -17.5 -64t-48.5 -62q-73 -68 -162 -68q-23 0 -61 -2l-28 -1q-41 0 -68 12q-20 9 -39 32l-18 23q-16 16 -26 50q-4 14 -9 41z" />
    <glyph glyph-name="uni0162" unicode="&#x162;" horiz-adv-x="1374" 
d="M965 -232q2 -15 -6 -65q-2 -18 -5.5 -28t-4.5 -15q-13 -46 -43 -83q-34 -40 -80 -56q-12 -5 -31 -5q-23 0 -53 8q-9 2 -49 14q-11 4 -49 16q-64 19 -85 27l32 113l48 -13l34 -10q28 -8 29 -8q24 -7 48 -7q35 0 54 16q11 10 14 14t4.5 11t4.5 16q4 13 6 29q1 4 1 12
q0 16 -13 35q-7 11 -20 18.5t-21 12.5l-23 16q-14 11 -31 20q-25 15 -35 28.5t-10 44.5q0 20 7 53l-33 -2l-120 1303l-379 -43l-13 258l1059 88l10 -256l-397 -29l84 -1304l-40 -3l-3 -10q-13 -36 -11 -68q1 -10 7.5 -15.5t19.5 -12.5q12 -6 19 -11q21 -15 34.5 -27
t23.5 -30q11 -19 16 -52z" />
    <glyph glyph-name="uni0163" unicode="&#x163;" horiz-adv-x="1374" 
d="M965 -232q2 -15 -6 -65q-2 -18 -5.5 -28t-4.5 -15q-13 -46 -43 -83q-34 -40 -80 -56q-12 -5 -31 -5q-23 0 -53 8q-9 2 -49 14q-11 4 -49 16q-64 19 -85 27l32 113l48 -13l34 -10q28 -8 29 -8q24 -7 48 -7q35 0 54 16q11 10 14 14t4.5 11t4.5 16q4 13 6 29q1 4 1 12
q0 16 -13 35q-7 11 -20 18.5t-21 12.5l-23 16q-14 11 -31 20q-25 15 -35 28.5t-10 44.5q0 20 7 53l-33 -2l-120 1303l-379 -43l-13 258l1059 88l10 -256l-397 -29l84 -1304l-40 -3l-3 -10q-13 -36 -11 -68q1 -10 7.5 -15.5t19.5 -12.5q12 -6 19 -11q21 -15 34.5 -27
t23.5 -30q11 -19 16 -52z" />
    <glyph glyph-name="Tcaron" unicode="&#x164;" horiz-adv-x="1374" 
d="M1058 1963l-133 37l-337 -109l-336 106l-15 -101l250 -193l178 -26zM1202 1586l-1059 -88l13 -258l379 43l120 -1303l244 17l-84 1304l397 29z" />
    <glyph glyph-name="tcaron" unicode="&#x165;" horiz-adv-x="1374" 
d="M1058 1963l-133 37l-337 -109l-336 106l-15 -101l250 -193l178 -26zM1202 1586l-1059 -88l13 -258l379 43l120 -1303l244 17l-84 1304l397 29z" />
    <glyph glyph-name="Tbar" unicode="&#x166;" horiz-adv-x="1374" 
d="M1110 944l5 -247l-260 -10l44 -690l-244 -17l-64 697l-291 -11l2 247l266 10l-33 360l-379 -43l-13 258l1059 88l10 -256l-397 -29l24 -367z" />
    <glyph glyph-name="tbar" unicode="&#x167;" horiz-adv-x="1374" 
d="M1110 944l5 -247l-260 -10l44 -690l-244 -17l-64 697l-291 -11l2 247l266 10l-33 360l-379 -43l-13 258l1059 88l10 -256l-397 -29l24 -367z" />
    <glyph glyph-name="Utilde" unicode="&#x168;" horiz-adv-x="1395" 
d="M750 1677q25 0 53 8.5t50 19.5q8 4 46 28q27 18 45 27q1 13 1 46l-1 68l-50 28q-3 -2 -13.5 -8.5t-22 -16.5t-17.5 -19q-10 -14 -28 -19t-45 -5h-39q-24 3 -45.5 10.5t-52.5 21.5q-38 17 -63 25q-38 11 -89 11q-20 0 -50 -3q-37 -5 -64 -13.5t-51 -28.5q-1 -1 -9.5 -16.5
t-33.5 -27.5l-30 -53q5 -4 23 -19t45.5 -34t56.5 -31v-1q1 -1 20 22t49 36q39 16 89 16q19 0 29 -3q29 -11 63 -27q31 -15 56.5 -24t59.5 -16q12 -2 18 -2zM862 1562l86 -1055q1 -10 1 -30q0 -115 -69.5 -178t-192.5 -63q-99 0 -143 57t-52 177l-74 1057l-273 -18l56 -945
q2 -40 19 -170q15 -118 40 -186q16 -44 32 -72.5t37 -51.5q20 -21 48.5 -38.5t75.5 -40.5q41 -19 78.5 -26.5t105.5 -12.5q14 -1 39 -1q34 0 59 3q16 1 40 8q25 8 119 28q38 8 67 20q11 5 47 18q20 9 37 17.5t29 17.5q15 12 61 59q73 83 93 229q9 65 9 130q0 74 -4 133
l-66 952z" />
    <glyph glyph-name="utilde" unicode="&#x169;" horiz-adv-x="1395" 
d="M750 1677q25 0 53 8.5t50 19.5q8 4 46 28q27 18 45 27q1 13 1 46l-1 68l-50 28q-3 -2 -13.5 -8.5t-22 -16.5t-17.5 -19q-10 -14 -28 -19t-45 -5h-39q-24 3 -45.5 10.5t-52.5 21.5q-38 17 -63 25q-38 11 -89 11q-20 0 -50 -3q-37 -5 -64 -13.5t-51 -28.5q-1 -1 -9.5 -16.5
t-33.5 -27.5l-30 -53q5 -4 23 -19t45.5 -34t56.5 -31v-1q1 -1 20 22t49 36q39 16 89 16q19 0 29 -3q29 -11 63 -27q31 -15 56.5 -24t59.5 -16q12 -2 18 -2zM862 1562l86 -1055q1 -10 1 -30q0 -115 -69.5 -178t-192.5 -63q-99 0 -143 57t-52 177l-74 1057l-273 -18l56 -945
q2 -40 19 -170q15 -118 40 -186q16 -44 32 -72.5t37 -51.5q20 -21 48.5 -38.5t75.5 -40.5q41 -19 78.5 -26.5t105.5 -12.5q14 -1 39 -1q34 0 59 3q16 1 40 8q25 8 119 28q38 8 67 20q11 5 47 18q20 9 37 17.5t29 17.5q15 12 61 59q73 83 93 229q9 65 9 130q0 74 -4 133
l-66 952z" />
    <glyph glyph-name="Umacron" unicode="&#x16a;" horiz-adv-x="1395" 
d="M388 1867l-3 -184l486 -2l-11 199zM862 1562l86 -1055q1 -10 1 -30q0 -115 -69.5 -178t-192.5 -63q-99 0 -143 57t-52 177l-74 1057l-273 -18l56 -945q2 -40 19 -170q15 -118 40 -186q16 -44 32 -72.5t37 -51.5q20 -21 48.5 -38.5t75.5 -40.5q41 -19 78.5 -26.5
t105.5 -12.5q14 -1 39 -1q34 0 59 3q16 1 40 8q25 8 119 28q38 8 67 20q11 5 47 18q20 9 37 17.5t29 17.5q15 12 61 59q73 83 93 229q9 65 9 130q0 74 -4 133l-66 952z" />
    <glyph glyph-name="umacron" unicode="&#x16b;" horiz-adv-x="1395" 
d="M388 1867l-3 -184l486 -2l-11 199zM862 1562l86 -1055q1 -10 1 -30q0 -115 -69.5 -178t-192.5 -63q-99 0 -143 57t-52 177l-74 1057l-273 -18l56 -945q2 -40 19 -170q15 -118 40 -186q16 -44 32 -72.5t37 -51.5q20 -21 48.5 -38.5t75.5 -40.5q41 -19 78.5 -26.5
t105.5 -12.5q14 -1 39 -1q34 0 59 3q16 1 40 8q25 8 119 28q38 8 67 20q11 5 47 18q20 9 37 17.5t29 17.5q15 12 61 59q73 83 93 229q9 65 9 130q0 74 -4 133l-66 952z" />
    <glyph glyph-name="Ubreve" unicode="&#x16c;" horiz-adv-x="1395" 
d="M670 1820q-29 -24 -66 -22q-5 0 -40 5q-5 1 -9.5 2t-8.5 1q-3 0 -3.5 0.5t0.5 0.5t-6 4q-23 14 -35 39q-9 16 -7 42l-111 20q-6 -33 -6 -59q0 -41 18 -80q23 -29 36.5 -42.5t34.5 -24.5q23 -12 59 -18.5t96 -9.5q20 -2 26 -2q13 0 25.5 2t19.5 3q9 1 23 7l28 12
q37 16 56 41q15 20 30 58q3 6 7.5 16t6.5 19.5t3 26.5l3 49l-140 -17q-11 -49 -40 -73zM862 1562l86 -1055q1 -10 1 -30q0 -115 -69.5 -178t-192.5 -63q-99 0 -143 57t-52 177l-74 1057l-273 -18l56 -945q2 -40 19 -170q15 -118 40 -186q16 -44 32 -72.5t37 -51.5
q20 -21 48.5 -38.5t75.5 -40.5q41 -19 78.5 -26.5t105.5 -12.5q14 -1 39 -1q34 0 59 3q16 1 40 8q25 8 119 28q38 8 67 20q11 5 47 18q20 9 37 17.5t29 17.5q15 12 61 59q73 83 93 229q9 65 9 130q0 74 -4 133l-66 952z" />
    <glyph glyph-name="ubreve" unicode="&#x16d;" horiz-adv-x="1395" 
d="M670 1820q-29 -24 -66 -22q-5 0 -40 5q-5 1 -9.5 2t-8.5 1q-3 0 -3.5 0.5t0.5 0.5t-6 4q-23 14 -35 39q-9 16 -7 42l-111 20q-6 -33 -6 -59q0 -41 18 -80q23 -29 36.5 -42.5t34.5 -24.5q23 -12 59 -18.5t96 -9.5q20 -2 26 -2q13 0 25.5 2t19.5 3q9 1 23 7l28 12
q37 16 56 41q15 20 30 58q3 6 7.5 16t6.5 19.5t3 26.5l3 49l-140 -17q-11 -49 -40 -73zM862 1562l86 -1055q1 -10 1 -30q0 -115 -69.5 -178t-192.5 -63q-99 0 -143 57t-52 177l-74 1057l-273 -18l56 -945q2 -40 19 -170q15 -118 40 -186q16 -44 32 -72.5t37 -51.5
q20 -21 48.5 -38.5t75.5 -40.5q41 -19 78.5 -26.5t105.5 -12.5q14 -1 39 -1q34 0 59 3q16 1 40 8q25 8 119 28q38 8 67 20q11 5 47 18q20 9 37 17.5t29 17.5q15 12 61 59q73 83 93 229q9 65 9 130q0 74 -4 133l-66 952z" />
    <glyph glyph-name="Uring" unicode="&#x16e;" horiz-adv-x="1395" 
d="M359 1883q0 -62 15 -112q8 -31 34 -51q47 -35 103 -53.5t115 -18.5q20 0 54 2q32 2 45 2q41 0 81 42q29 30 45.5 68t19.5 80l2 22q4 58 -20.5 110t-71.5 85l-2 2q-71 39 -141 39q-55 0 -141 -26q-9 -4 -37.5 -17.5t-41.5 -24.5q-19 -16 -35 -43t-21 -58q-3 -24 -3 -48z
M496 1914q30 58 120 70q77 -9 114 -32.5t37 -67.5q0 -6 -2 -20q-7 -39 -48 -66.5t-97 -27.5q-143 0 -143 87zM862 1562l86 -1055q1 -10 1 -30q0 -115 -69.5 -178t-192.5 -63q-99 0 -143 57t-52 177l-74 1057l-273 -18l56 -945q2 -40 19 -170q15 -118 40 -186
q16 -44 32 -72.5t37 -51.5q20 -21 48.5 -38.5t75.5 -40.5q41 -19 78.5 -26.5t105.5 -12.5q14 -1 39 -1q34 0 59 3q16 1 40 8q25 8 119 28q38 8 67 20q11 5 47 18q20 9 37 17.5t29 17.5q15 12 61 59q73 83 93 229q9 65 9 130q0 74 -4 133l-66 952z" />
    <glyph glyph-name="uring" unicode="&#x16f;" horiz-adv-x="1395" 
d="M359 1883q0 -62 15 -112q8 -31 34 -51q47 -35 103 -53.5t115 -18.5q20 0 54 2q32 2 45 2q41 0 81 42q29 30 45.5 68t19.5 80l2 22q4 58 -20.5 110t-71.5 85l-2 2q-71 39 -141 39q-55 0 -141 -26q-9 -4 -37.5 -17.5t-41.5 -24.5q-19 -16 -35 -43t-21 -58q-3 -24 -3 -48z
M496 1914q30 58 120 70q77 -9 114 -32.5t37 -67.5q0 -6 -2 -20q-7 -39 -48 -66.5t-97 -27.5q-143 0 -143 87zM862 1562l86 -1055q1 -10 1 -30q0 -115 -69.5 -178t-192.5 -63q-99 0 -143 57t-52 177l-74 1057l-273 -18l56 -945q2 -40 19 -170q15 -118 40 -186
q16 -44 32 -72.5t37 -51.5q20 -21 48.5 -38.5t75.5 -40.5q41 -19 78.5 -26.5t105.5 -12.5q14 -1 39 -1q34 0 59 3q16 1 40 8q25 8 119 28q38 8 67 20q11 5 47 18q20 9 37 17.5t29 17.5q15 12 61 59q73 83 93 229q9 65 9 130q0 74 -4 133l-66 952z" />
    <glyph glyph-name="Uhungarumlaut" unicode="&#x170;" horiz-adv-x="1395" 
d="M384 1957l-77 -242l180 -11l88 155l3 94l-43 12zM754 1933l-77 -242l180 -11l88 155l3 94l-43 12zM862 1562l86 -1055q1 -10 1 -30q0 -115 -69.5 -178t-192.5 -63q-99 0 -143 57t-52 177l-74 1057l-273 -18l56 -945q2 -40 19 -170q15 -118 40 -186q16 -44 32 -72.5
t37 -51.5q20 -21 48.5 -38.5t75.5 -40.5q41 -19 78.5 -26.5t105.5 -12.5q14 -1 39 -1q34 0 59 3q16 1 40 8q25 8 119 28q38 8 67 20q11 5 47 18q20 9 37 17.5t29 17.5q15 12 61 59q73 83 93 229q9 65 9 130q0 74 -4 133l-66 952z" />
    <glyph glyph-name="uhungarumlaut" unicode="&#x171;" horiz-adv-x="1395" 
d="M384 1957l-77 -242l180 -11l88 155l3 94l-43 12zM754 1933l-77 -242l180 -11l88 155l3 94l-43 12zM862 1562l86 -1055q1 -10 1 -30q0 -115 -69.5 -178t-192.5 -63q-99 0 -143 57t-52 177l-74 1057l-273 -18l56 -945q2 -40 19 -170q15 -118 40 -186q16 -44 32 -72.5
t37 -51.5q20 -21 48.5 -38.5t75.5 -40.5q41 -19 78.5 -26.5t105.5 -12.5q14 -1 39 -1q34 0 59 3q16 1 40 8q25 8 119 28q38 8 67 20q11 5 47 18q20 9 37 17.5t29 17.5q15 12 61 59q73 83 93 229q9 65 9 130q0 74 -4 133l-66 952z" />
    <glyph glyph-name="Uogonek" unicode="&#x172;" horiz-adv-x="1395" 
d="M1246 -286q-2 -3 -16 -25q-24 -39 -42 -58q-16 -16 -44 -34l-19 -13q-71 -32 -143 -32q-112 0 -217 79q-15 12 -31.5 54.5t-26.5 77.5q-5 20 -5 34q0 20 11 62q13 45 17 78q2 11 8 33q-8 -2 -13 -2q-25 -3 -59 -3q-25 0 -39 1q-68 5 -105.5 12.5t-78.5 26.5
q-47 23 -75.5 40.5t-48.5 38.5q-21 23 -37 52t-32 72q-25 68 -40 186q-17 130 -19 170l-56 945l273 18l74 -1057q8 -120 52 -177t143 -57q123 0 192.5 63t69.5 177q0 21 -1 31l-86 1055l305 18l66 -952q4 -59 4 -133q0 -65 -9 -130q-20 -146 -93 -229q-45 -46 -59 -58
q-2 -2 -28 -34q-66 -81 -101 -113l-20 -129q11 -27 32 -41t52 -26q21 -9 25 -11q17 9 64 34t52 24z" />
    <glyph glyph-name="uogonek" unicode="&#x173;" horiz-adv-x="1395" 
d="M1246 -286q-2 -3 -16 -25q-24 -39 -42 -58q-16 -16 -44 -34l-19 -13q-71 -32 -143 -32q-112 0 -217 79q-15 12 -31.5 54.5t-26.5 77.5q-5 20 -5 34q0 20 11 62q13 45 17 78q2 11 8 33q-8 -2 -13 -2q-25 -3 -59 -3q-25 0 -39 1q-68 5 -105.5 12.5t-78.5 26.5
q-47 23 -75.5 40.5t-48.5 38.5q-21 23 -37 52t-32 72q-25 68 -40 186q-17 130 -19 170l-56 945l273 18l74 -1057q8 -120 52 -177t143 -57q123 0 192.5 63t69.5 177q0 21 -1 31l-86 1055l305 18l66 -952q4 -59 4 -133q0 -65 -9 -130q-20 -146 -93 -229q-45 -46 -59 -58
q-2 -2 -28 -34q-66 -81 -101 -113l-20 -129q11 -27 32 -41t52 -26q21 -9 25 -11q17 9 64 34t52 24z" />
    <glyph glyph-name="Wcircumflex" unicode="&#x174;" horiz-adv-x="1735" 
d="M353 1712l133 -36l337 110l336 -105l15 101l-251 192l-178 26zM406 1574l-252 8l211 -1557l151 -10l213 657l141 -677l127 -9l433 1512l-277 28l-203 -747l-112 758l-103 6l-235 -705z" />
    <glyph glyph-name="wcircumflex" unicode="&#x175;" horiz-adv-x="1735" 
d="M353 1712l133 -36l337 110l336 -105l15 101l-251 192l-178 26zM406 1574l-252 8l211 -1557l151 -10l213 657l141 -677l127 -9l433 1512l-277 28l-203 -747l-112 758l-103 6l-235 -705z" />
    <glyph glyph-name="Ycircumflex" unicode="&#x176;" horiz-adv-x="1493" 
d="M293 1712l133 -36l337 110l336 -105l15 101l-251 192l-178 26zM432 1553l-301 4l471 -758l12 -819l273 16l-8 781l481 784l-303 8l-312 -512z" />
    <glyph glyph-name="ycircumflex" unicode="&#x177;" horiz-adv-x="1493" 
d="M293 1712l133 -36l337 110l336 -105l15 101l-251 192l-178 26zM432 1553l-301 4l471 -758l12 -819l273 16l-8 781l481 784l-303 8l-312 -512z" />
    <glyph glyph-name="Ydieresis" unicode="&#x178;" horiz-adv-x="1493" 
d="M438 1717l232 -17l18 247l-232 17zM810 1690l232 -16l17 247l-231 16zM432 1553l-301 4l471 -758l12 -819l273 16l-8 781l481 784l-303 8l-312 -512z" />
    <glyph glyph-name="Zacute" unicode="&#x179;" horiz-adv-x="1456" 
d="M340 1716l28 -70l576 117l-75 217zM1167 1580l-1061 -122l7 -228l733 96l-676 -1148l23 -234l1120 127l-23 246l-784 -92l672 1132z" />
    <glyph glyph-name="zacute" unicode="&#x17a;" horiz-adv-x="1456" 
d="M340 1716l28 -70l576 117l-75 217zM1167 1580l-1061 -122l7 -228l733 96l-676 -1148l23 -234l1120 127l-23 246l-784 -92l672 1132z" />
    <glyph glyph-name="Zdotaccent" unicode="&#x17b;" horiz-adv-x="1456" 
d="M519 1695l232 -16l17 247l-231 16zM1167 1580l-1061 -122l7 -228l733 96l-676 -1148l23 -234l1120 127l-23 246l-784 -92l672 1132z" />
    <glyph glyph-name="zdotaccent" unicode="&#x17c;" horiz-adv-x="1456" 
d="M519 1695l232 -16l17 247l-231 16zM1167 1580l-1061 -122l7 -228l733 96l-676 -1148l23 -234l1120 127l-23 246l-784 -92l672 1132z" />
    <glyph glyph-name="Zcaron" unicode="&#x17d;" horiz-adv-x="1456" 
d="M1028 1963l-133 37l-337 -109l-336 106l-15 -101l250 -193l178 -26zM1167 1580l-1061 -122l7 -228l733 96l-676 -1148l23 -234l1120 127l-23 246l-784 -92l672 1132z" />
    <glyph glyph-name="zcaron" unicode="&#x17e;" horiz-adv-x="1456" 
d="M1028 1963l-133 37l-337 -109l-336 106l-15 -101l250 -193l178 -26zM1167 1580l-1061 -122l7 -228l733 96l-676 -1148l23 -234l1120 127l-23 246l-784 -92l672 1132z" />
    <glyph glyph-name="florin" unicode="&#x192;" horiz-adv-x="1497" 
d="M1370 1217q0 -42 -11.5 -86t-35.5 -98l-195 84q8 32 8 55q0 15 -3 27q-12 55 -47 86q-6 5 -21 13.5t-25 12.5q-57 25 -72 27q-7 1 -20 1q-44 0 -73.5 -29t-50 -76.5t-48.5 -133.5l-25 -88q133 -35 178 -45q29 -11 67 -18l49 -11l-61 -229l-25 6l-45 9q-15 3 -33 9l-21 5
l-174 42l-306 -1085l-240 75l300 1073l-90 21q-35 8 -41 10q-8 3 -47 12.5t-53 12.5l-42 234q30 -6 36 -7q5 -1 11 -2t13 -1q6 -2 34 -7l113 -25l128 -25l58 196q27 98 71 154q39 62 80 94q55 40 121 51l56 10q30 4 45 3q23 0 29 -1t26 -7q109 -32 171.5 -59t100.5 -59
q34 -27 52.5 -58t48.5 -97q9 -39 9 -76z" />
    <glyph glyph-name="Scommaaccent" unicode="&#x218;" horiz-adv-x="1309" 
d="M158 371q4 -62 8.5 -95.5t13.5 -57.5q10 -27 29 -51.5t57 -61.5q39 -37 72 -57.5t75 -31.5q43 -11 103.5 -15.5t155.5 -4.5h78q25 0 39.5 2.5t29.5 9.5q17 8 49 21q140 62 218.5 179.5t78.5 260.5q0 124 -59 218q-60 95 -186 161q-30 16 -50.5 24t-54.5 18q-40 10 -72 16
q-33 6 -63 13l-53 11q-62 12 -123 57q-68 50 -82 111q-7 18 -7 60q0 18 1 28q3 37 9 65t21 52q13 21 37.5 39.5t54.5 29.5q39 14 84 14q31 0 60 -7q12 -4 29 -7q66 -17 113 -72q29 -35 42 -91h252q-21 114 -49.5 181.5t-76.5 104.5t-127 56t-218 31q-162 2 -258 -33
t-141 -101q-27 -39 -40.5 -88t-18 -96.5t-7.5 -124.5q0 -92 29 -177.5t88 -141.5q33 -32 59.5 -51t59.5 -34q34 -15 83.5 -25t133.5 -19q92 -10 155 -51q23 -15 42 -34l28 -30q20 -20 24 -75q1 -7 1 -22t-1 -23q-1 -15 -1 -38q0 -30 -17.5 -64t-48.5 -62q-73 -68 -162 -68
q-23 0 -61 -2l-28 -1q-41 0 -68 12q-20 9 -39 32l-18 23q-16 16 -26 50q-4 14 -9 41zM770 -80l-207 -20v-211l13 -21l84 -6l-11 -47l76 -18l45 84v239z" />
    <glyph glyph-name="scommaaccent" unicode="&#x219;" horiz-adv-x="1309" 
d="M158 371q4 -62 8.5 -95.5t13.5 -57.5q10 -27 29 -51.5t57 -61.5q39 -37 72 -57.5t75 -31.5q43 -11 103.5 -15.5t155.5 -4.5h78q25 0 39.5 2.5t29.5 9.5q17 8 49 21q140 62 218.5 179.5t78.5 260.5q0 124 -59 218q-60 95 -186 161q-30 16 -50.5 24t-54.5 18q-40 10 -72 16
q-33 6 -63 13l-53 11q-62 12 -123 57q-68 50 -82 111q-7 18 -7 60q0 18 1 28q3 37 9 65t21 52q13 21 37.5 39.5t54.5 29.5q39 14 84 14q31 0 60 -7q12 -4 29 -7q66 -17 113 -72q29 -35 42 -91h252q-21 114 -49.5 181.5t-76.5 104.5t-127 56t-218 31q-162 2 -258 -33
t-141 -101q-27 -39 -40.5 -88t-18 -96.5t-7.5 -124.5q0 -92 29 -177.5t88 -141.5q33 -32 59.5 -51t59.5 -34q34 -15 83.5 -25t133.5 -19q92 -10 155 -51q23 -15 42 -34l28 -30q20 -20 24 -75q1 -7 1 -22t-1 -23q-1 -15 -1 -38q0 -30 -17.5 -64t-48.5 -62q-73 -68 -162 -68
q-23 0 -61 -2l-28 -1q-41 0 -68 12q-20 9 -39 32l-18 23q-16 16 -26 50q-4 14 -9 41zM770 -80l-207 -20v-211l13 -21l84 -6l-11 -47l76 -18l45 84v239z" />
    <glyph glyph-name="uni021A" unicode="&#x21a;" horiz-adv-x="1374" 
d="M1202 1586l-1059 -88l13 -258l379 43l120 -1303l244 17l-84 1304l397 29zM891 -80l-207 -20v-211l13 -21l84 -6l-11 -47l76 -18l45 84v239z" />
    <glyph glyph-name="uni021B" unicode="&#x21b;" horiz-adv-x="1374" 
d="M1202 1586l-1059 -88l13 -258l379 43l120 -1303l244 17l-84 1304l397 29zM891 -80l-207 -20v-211l13 -21l84 -6l-11 -47l76 -18l45 84v239z" />
    <glyph glyph-name="circumflex" unicode="&#x2c6;" horiz-adv-x="1219" 
d="M191 1712l133 -36l337 110l336 -105l15 101l-251 192l-178 26z" />
    <glyph glyph-name="caron" unicode="&#x2c7;" horiz-adv-x="1219" 
d="M1012 1963l-133 37l-337 -109l-336 106l-15 -101l250 -193l178 -26z" />
    <glyph glyph-name="breve" unicode="&#x2d8;" horiz-adv-x="870" 
d="M499 1820q-29 -24 -66 -22q-5 0 -40 5q-5 1 -9.5 2t-8.5 1q-3 0 -3.5 0.5t0.5 0.5t-6 4q-23 14 -35 39q-9 16 -7 42l-111 20q-6 -33 -6 -59q0 -41 18 -80q23 -29 36.5 -42.5t34.5 -24.5q23 -12 59 -18.5t96 -9.5q20 -2 26 -2q13 0 25.5 2t19.5 3q9 1 23 7l28 12
q37 16 56 41q15 20 30 58q3 6 7.5 16t6.5 19.5t3 26.5l3 49l-140 -17q-11 -49 -40 -73z" />
    <glyph glyph-name="dotaccent" unicode="&#x2d9;" horiz-adv-x="600" 
d="M179 1695l232 -16l17 247l-231 16z" />
    <glyph glyph-name="ring" unicode="&#x2da;" horiz-adv-x="912" 
d="M207 1913q0 -62 15 -112q8 -31 34 -51q47 -35 103 -53.5t115 -18.5q20 0 54 2q32 2 45 2q41 0 81 42q29 30 45.5 68t19.5 80l2 22q4 58 -20.5 110t-71.5 85l-2 2q-71 39 -141 39q-55 0 -141 -26q-9 -4 -37.5 -17.5t-41.5 -24.5q-19 -16 -35 -43t-21 -58q-3 -24 -3 -48z
M344 1944q30 58 120 70q77 -9 114 -32.5t37 -67.5q0 -6 -2 -20q-7 -39 -48 -66.5t-97 -27.5q-143 0 -143 87z" />
    <glyph glyph-name="ogonek" unicode="&#x2db;" horiz-adv-x="942" 
d="M595 -262q-47 -25 -64 -34q-4 2 -25 11q-31 12 -52 26t-32 41l20 129q36 33 105 119q73 89 108 124l-136 6q0 1 -27 -8.5t-63 -27.5q-6 -3 -28 -12.5t-47.5 -23t-38.5 -25.5q-27 -22 -49.5 -61.5t-30.5 -84.5q-4 -33 -17 -78q-11 -42 -11 -62q0 -14 5 -34
q10 -35 26.5 -77.5t31.5 -54.5q105 -79 217 -79q72 0 143 32l19 13q28 18 44 34q18 19 42 58q14 22 16 25l-104 68q-5 1 -52 -24z" />
    <glyph glyph-name="tilde" unicode="&#x2dc;" horiz-adv-x="1102" 
d="M700 1677q25 0 53 8.5t50 19.5q8 4 46 28q27 18 45 27q1 13 1 46l-1 68l-50 28q-3 -2 -13.5 -8.5t-22 -16.5t-17.5 -19q-10 -14 -28 -19t-45 -5h-39q-24 3 -45.5 10.5t-52.5 21.5q-38 17 -63 25q-38 11 -89 11q-20 0 -50 -3q-37 -5 -64 -13.5t-51 -28.5q-1 -1 -9.5 -16.5
t-33.5 -27.5l-30 -53q5 -4 23 -19t45.5 -34t56.5 -31v-1q1 -1 20 22t49 36q39 16 89 16q19 0 29 -3q29 -11 63 -27q31 -15 56.5 -24t59.5 -16q12 -2 18 -2z" />
    <glyph glyph-name="hungarumlaut" unicode="&#x2dd;" horiz-adv-x="1039" 
d="M284 1957l-77 -242l180 -11l88 155l3 94l-43 12zM654 1933l-77 -242l180 -11l88 155l3 94l-43 12z" />
    <glyph glyph-name="uni0326" unicode="&#x326;" horiz-adv-x="0" 
d="M-191 -80l-207 -20v-211l13 -21l84 -6l-11 -47l76 -18l45 84v239z" />
    <glyph glyph-name="uni0400" unicode="&#x400;" horiz-adv-x="1288" 
d="M934 1747l-28 -70l-576 117l75 217zM1075 1582l-907 -29l31 -1568l925 20l-8 164l-581 -19l-35 486l504 -4l-17 248l-508 -41l-41 503l629 4z" />
    <glyph glyph-name="uni0401" unicode="&#x401;" horiz-adv-x="1288" 
d="M306 1717l232 -17l18 247l-232 17zM678 1690l232 -16l17 247l-231 16zM1075 1582l-907 -29l31 -1568l925 20l-8 164l-581 -19l-35 486l504 -4l-17 248l-508 -41l-41 503l629 4z" />
    <glyph glyph-name="uni0403" unicode="&#x403;" horiz-adv-x="1291" 
d="M407 1736l28 -70l576 117l-75 217zM385 -6l-260 4l70 1571l980 -47l-57 -277l-616 33z" />
    <glyph glyph-name="uni0404" unicode="&#x404;" horiz-adv-x="1337" 
d="M187.5 1210q-32.5 -162 -47.5 -443q-5 -107 -5 -178q0 -133 17 -227.5t59 -161.5q59 -94 177 -141t317 -51q45 -8 79 -8q158 0 270 132q23 27 52 72l-241 143q-55 -79 -139 -75q-181 11 -247 96q-18 22 -29.5 60.5t-19.5 95.5q-7 50 -7 119q0 37 1 56q93 -1 154.5 -4
t72.5 -4q19 -2 35 -2q9 1 49 -1t54 -3l106 211l-37 4q-21 5 -22 5h-7q-10 0 -28 3q-25 1 -62.5 4t-53.5 4l-246 22q6 64 22 146q25 115 67 165q30 35 69 48t97 13q38 0 83 -3q54 -3 93 -21t66 -52l252 128q-35 87 -115 144q-117 85 -274 94q-53 3 -100 3q-154 0 -252 -33.5
t-159 -110.5q-68 -87 -100.5 -249z" />
    <glyph glyph-name="uni0405" unicode="&#x405;" horiz-adv-x="1309" 
d="M158 371q4 -62 8.5 -95.5t13.5 -57.5q10 -27 29 -51.5t57 -61.5q39 -37 72 -57.5t75 -31.5q43 -11 103.5 -15.5t155.5 -4.5h78q25 0 39.5 2.5t29.5 9.5q17 8 49 21q140 62 218.5 179.5t78.5 260.5q0 124 -59 218q-60 95 -186 161q-30 16 -50.5 24t-54.5 18q-40 10 -72 16
q-33 6 -63 13l-53 11q-62 12 -123 57q-68 50 -82 111q-7 18 -7 60q0 18 1 28q3 37 9 65t21 52q13 21 37.5 39.5t54.5 29.5q39 14 84 14q31 0 60 -7q12 -4 29 -7q66 -17 113 -72q29 -35 42 -91h252q-21 114 -49.5 181.5t-76.5 104.5t-127 56t-218 31q-162 2 -258 -33
t-141 -101q-27 -39 -40.5 -88t-18 -96.5t-7.5 -124.5q0 -92 29 -177.5t88 -141.5q33 -32 59.5 -51t59.5 -34q34 -15 83.5 -25t133.5 -19q92 -10 155 -51q23 -15 42 -34l28 -30q20 -20 24 -75q1 -7 1 -22t-1 -23q-1 -15 -1 -38q0 -30 -17.5 -64t-48.5 -62q-73 -68 -162 -68
q-23 0 -61 -2l-28 -1q-41 0 -68 12q-20 9 -39 32l-18 23q-16 16 -26 50q-4 14 -9 41z" />
    <glyph glyph-name="uni0406" unicode="&#x406;" horiz-adv-x="752" 
d="M537 1578h-330v-1638h354z" />
    <glyph glyph-name="uni0407" unicode="&#x407;" horiz-adv-x="752" 
d="M57 1717l232 -17l18 247l-232 17zM429 1690l232 -16l17 247l-231 16zM537 1578h-330v-1638h354z" />
    <glyph glyph-name="uni0408" unicode="&#x408;" horiz-adv-x="1217" 
d="M827 1586l-61 -1078q-5 -87 -35.5 -150.5t-77.5 -96t-98 -29.5q-16 0 -77 9l-33 5q-5 1 -6.5 1.5t1.5 0.5q2 0 -12 8q-42 22 -66 73q-16 30 -14 81l-209 37q-12 -63 -12 -112q0 -79 35 -150q42 -55 68 -82t66 -46q44 -22 111.5 -34t180.5 -18q33 -3 57 -3q38 0 78 8
q19 4 43 14q6 3 53 22q63 26 105 78q31 39 57 110q28 64 33 166q4 96 12 227l51 942z" />
    <glyph glyph-name="uni040C" unicode="&#x40c;" horiz-adv-x="1448" 
d="M1015 1783l-576 -117l-28 70l529 264zM1319 44l-342 -31l-467 506l16 -529l-282 -12l-94 1565l282 14l27 -555l448 578l299 12l-553 -776z" />
    <glyph glyph-name="uni040D" unicode="&#x40d;" horiz-adv-x="1366" 
d="M916 1717l-28 -70l-576 117l75 217zM842 1563l278 30l131 -1552l-299 -29l-65 709l-342 -717l-240 -47l-133 1553l305 26l68 -702z" />
    <glyph glyph-name="uni040E" unicode="&#x40e;" horiz-adv-x="1333" 
d="M730 1820q-29 -24 -66 -22q-5 0 -40 5q-5 1 -9.5 2t-8.5 1q-3 0 -3.5 0.5t0.5 0.5t-6 4q-23 14 -35 39q-9 16 -7 42l-111 20q-6 -33 -6 -59q0 -41 18 -80q23 -29 36.5 -42.5t34.5 -24.5q23 -12 59 -18.5t96 -9.5q20 -2 26 -2q13 0 25.5 2t19.5 3q9 1 23 7l28 12
q37 16 56 41q15 20 30 58q3 6 7.5 16t6.5 19.5t3 26.5l3 49l-140 -17q-11 -49 -40 -73zM240.5 220.5q48.5 13.5 68.5 35.5q19 13 43.5 51t44 77.5t21.5 50.5l21 93l69 279l-377 750l301 -4l223 -496l242 512l303 -8l-383 -784q-47 -158 -121 -361q-26 -74 -27 -78
q-14 -53 -38.5 -103.5t-49.5 -88.5q-35 -66 -72 -100q-49 -45 -116 -62l-55 -14q-17 -4 -22 -5q-14 -2 -23 -2q-8 -1 -25 -1q-48 0 -107 16l2 228q29 1 77.5 14.5z" />
    <glyph glyph-name="uni0410" unicode="&#x410;" 
d="M434 175l520 -31l33 -145l322 -13l-371 1590l-236 4l-636 -1544l299 -17zM780 1080l135 -672l-387 25z" />
    <glyph glyph-name="uni0411" unicode="&#x411;" horiz-adv-x="1346" 
d="M125 1574l35 -1602l565 17q60 2 203 24q29 5 40 10q10 5 14 9t9 12q4 6 19 16q86 53 136 136q31 52 42.5 109t11.5 131q0 162 -79 313q-35 33 -81 58q-39 21 -81 31t-92.5 13t-148.5 4l-82 2q-97 -3 -158.5 -3.5t-78.5 -0.5v493h705l54 247h-174q-192 0 -228 -1zM412 216
l-4 412l278 16q56 4 105 -15.5t85 -53.5q33 -31 52.5 -68t19.5 -68q0 -37 -15.5 -73t-45.5 -66q-32 -32 -78 -51t-102 -21z" />
    <glyph glyph-name="uni0412" unicode="&#x412;" horiz-adv-x="1346" 
d="M125 1574l35 -1602l565 17q60 2 203 24q29 5 40 10q10 5 14 9t9 12q4 6 19 16q94 57 143.5 148.5t46.5 206.5q-4 141 -48 248.5t-112 142.5q29 33 48 52l20 21q6 5 9 9l13 20q18 26 24 71.5t6 108.5q0 22 -2 66q-2 38 -2 52l-1 26q-7 151 -125 256q-32 29 -58 47.5
t-54 31.5q-63 28 -162 25zM406 921l-13 417l297 8q96 3 141.5 -40t47.5 -115v-94q0 -98 -69 -142q-38 -24 -112 -26zM412 216l-4 412l278 16q56 4 105 -15.5t85 -53.5q33 -31 52.5 -68t19.5 -68q0 -37 -15.5 -73t-45.5 -66q-32 -32 -78 -51t-102 -21z" />
    <glyph glyph-name="uni0413" unicode="&#x413;" horiz-adv-x="1291" 
d="M385 -6l-260 4l70 1571l980 -47l-57 -277l-616 33z" />
    <glyph glyph-name="uni0414" unicode="&#x414;" horiz-adv-x="1650" 
d="M1587 256l-47 -640l-277 37l33 356l-255 6l-684 -6l33 -356l-277 -37l-47 640l203 2q29 116 68 266l24 93q27 107 45 183q26 116 39 216q11 85 22 316t11 258l952 -4l-23 -275l-96 -1050zM1026 266h14l47 1055l-340 -3q-3 -34 -10 -120.5t-12 -163.5q-6 -85 -17 -161.5
t-34 -216.5q-23 -137 -39 -207q-17 -75 -51 -188l442 4v1z" />
    <glyph glyph-name="uni0415" unicode="&#x415;" horiz-adv-x="1288" 
d="M1075 1582l-907 -29l31 -1568l925 20l-8 164l-581 -19l-35 486l504 -4l-17 248l-508 -41l-41 503l629 4z" />
    <glyph glyph-name="uni0416" unicode="&#x416;" horiz-adv-x="2110" 
d="M1374 779l587 -833l-343 3l-416 549l-36 -528l-285 15l20 529l-470 -503l-342 34l671 767l-547 780l299 -14l444 -582l31 555l44 -3l195 -9l-27 -555l502 531l299 -17z" />
    <glyph glyph-name="uni0417" unicode="&#x417;" horiz-adv-x="1169" 
d="M489 1325q10 1 30 1q81 0 121.5 -40t46.5 -105q2 -24 2 -37q4 -50 4 -74q0 -84 -61 -128q-36 -27 -111 -33l-183 -28l16 -269l172 12q20 2 30 2q47 0 88.5 -16.5t74.5 -43.5q35 -28 56.5 -64.5t23.5 -67.5q2 -37 -11 -73.5t-42 -68.5q-30 -33 -75.5 -55t-100.5 -27
l-290 -30l-8 -232l330 24q59 5 201 36q28 6 40 12q9 5 13 10t8 12q3 5 19 18q82 56 126.5 139.5t44.5 186.5q0 13 -2 39q-12 140 -62 244.5t-120 136.5q27 36 45 55l18 22q6 5 9 9l3.5 7t8.5 14q12 20 16.5 52t4.5 77q0 50 -7 118q-3 21 -8 78q-16 150 -139 248
q-33 27 -60.5 44.5t-56.5 28.5q-51 18 -111 18q-23 0 -52 -3l-369 -22l44 -254z" />
    <glyph glyph-name="uni0418" unicode="&#x418;" horiz-adv-x="1366" 
d="M842 1563l278 30l131 -1552l-299 -29l-65 709l-342 -717l-240 -47l-133 1553l305 26l68 -702z" />
    <glyph glyph-name="uni0419" unicode="&#x419;" horiz-adv-x="1366" 
d="M696 1820q-29 -24 -66 -22q-5 0 -40 5q-5 1 -9.5 2t-8.5 1q-3 0 -3.5 0.5t0.5 0.5t-6 4q-23 14 -35 39q-9 16 -7 42l-111 20q-6 -33 -6 -59q0 -41 18 -80q23 -29 36.5 -42.5t34.5 -24.5q23 -12 59 -18.5t96 -9.5q20 -2 26 -2q13 0 25.5 2t19.5 3q9 1 23 7l28 12
q37 16 56 41q15 20 30 58q3 6 7.5 16t6.5 19.5t3 26.5l3 49l-140 -17q-11 -49 -40 -73zM842 1563l278 30l131 -1552l-299 -29l-65 709l-342 -717l-240 -47l-133 1553l305 26l68 -702z" />
    <glyph glyph-name="uni041A" unicode="&#x41a;" horiz-adv-x="1448" 
d="M1319 44l-342 -31l-467 506l16 -529l-282 -12l-94 1565l282 14l27 -555l448 578l299 12l-553 -776z" />
    <glyph glyph-name="uni041B" unicode="&#x41b;" horiz-adv-x="1988" 
d="M1804 1247l-117 -1284l-260 4l57 1290l-562 29q-28 -201 -74 -763l-8 -91q-10 -91 -59 -202q-26 -71 -57 -110q-42 -52 -105 -78l-53 -22q-14 -6 -21 -8q-10 -4 -22 -6q-40 -8 -78 -8q-24 0 -57 3q-95 5 -140.5 14.5t-94.5 29.5l73 208l2 -1q7 -4 23 -8.5t27 -6.5
q61 -9 77 -9q51 -3 98 29.5t77.5 96t35.5 150.5l5 85l44 988l1212 -55z" />
    <glyph glyph-name="uni041C" unicode="&#x41c;" horiz-adv-x="1589" 
d="M387 1511l-252 -17l103 -1503l251 12l-30 740l360 -662l277 678l45 -694l291 20l-103 1499l-254 -22l-301 -803z" />
    <glyph glyph-name="uni041D" unicode="&#x41d;" horiz-adv-x="1468" 
d="M436 1553l-286 -4l81 -1569l287 3l-14 647l446 30l37 -655l320 16l-82 1569l-320 -16l17 -627l-433 -37z" />
    <glyph glyph-name="uni041E" unicode="&#x41e;" horiz-adv-x="1419" 
d="M240 1344q-25 -49 -45.5 -136.5t-31.5 -195.5q-10 -93 -10 -205q0 -142 17 -267q16 -123 53 -228.5t94 -180.5q109 -145 282 -145q32 0 60 4q17 -1 50 -1q175 0 284 41t169 126q59 84 79.5 216.5t20.5 345.5q0 281 -24 444.5t-88 254.5q-44 63 -111 99.5t-161.5 52
t-230.5 15.5q-159 0 -278 -79q-48 -32 -80.5 -72t-48.5 -81v-8zM412 853q0 156 23 251t76 141t144 46q71 0 111 -3.5t74.5 -18.5t59.5 -49q41 -55 59 -169q18 -115 18 -329q0 -143 -17 -231q-11 -55 -24 -93.5t-33 -60.5q-72 -82 -252 -82q-55 0 -93 33t-65 90
q-21 45 -38 107q-12 43 -29 99z" />
    <glyph glyph-name="uni041F" unicode="&#x41f;" horiz-adv-x="1454" 
d="M1338 1514l-23 -275l-117 -1284l-260 4l57 1290l-493 29l-117 -1284l-260 4l70 1571z" />
    <glyph glyph-name="uni0420" unicode="&#x420;" horiz-adv-x="1217" 
d="M193 1582l-29 -1590h239l21 660l186 2q106 1 190.5 33.5t143.5 90.5q57 56 88 131t33 161q2 100 -16.5 189t-59.5 156q-45 72 -115.5 113t-168.5 43zM485 924l2 410l88 -2q60 -1 103.5 -24.5t68.5 -61.5q22 -33 31.5 -72.5t9.5 -77.5q-5 -83 -50 -124q-58 -53 -179 -50z
" />
    <glyph glyph-name="uni0421" unicode="&#x421;" horiz-adv-x="1325" 
d="M903 449q-14 -66 -34.5 -99t-51.5 -46q-28 -12 -68 -12l-118 1q-28 0 -56 -2l-19 -1q-29 0 -50 10q-22 9 -40 23.5t-30 45.5q-25 65 -28 186q-2 74 -2 117q0 59 -3 141q-2 52 -2 79q0 147 23 250q17 76 55 116q40 38 97 55q52 15 151 15q64 0 90.5 -11t44.5 -37
q13 -16 18 -27t10 -26q2 -7 4 -21q2 -13 7 -28l258 6q-10 138 -41 216.5t-93 117.5q-48 30 -122 41t-191 11q-67 0 -104 -1q-174 -4 -272 -56t-143 -152q-27 -61 -39.5 -140.5t-15.5 -167.5t-3 -231v-162q0 -201 30 -365q15 -79 45 -126.5t84 -82.5q93 -61 237 -81
q72 -10 118 -9q155 4 252.5 25.5t158.5 70.5q62 50 90 136t26 219z" />
    <glyph glyph-name="uni0422" unicode="&#x422;" horiz-adv-x="1374" 
d="M1202 1586l-1059 -88l13 -258l379 43l120 -1303l244 17l-84 1304l397 29z" />
    <glyph glyph-name="uni0423" unicode="&#x423;" horiz-adv-x="1333" 
d="M240.5 220.5q48.5 13.5 68.5 35.5q19 13 43.5 51t44 77.5t21.5 50.5l21 93l69 279l-377 750l301 -4l223 -496l242 512l303 -8l-383 -784q-47 -158 -121 -361q-26 -74 -27 -78q-14 -53 -38.5 -103.5t-49.5 -88.5q-35 -66 -72 -100q-49 -45 -116 -62l-55 -14q-17 -4 -22 -5
q-14 -2 -23 -2q-8 -1 -25 -1q-48 0 -107 16l2 228q29 1 77.5 14.5z" />
    <glyph glyph-name="uni0424" unicode="&#x424;" horiz-adv-x="1913" 
d="M1680 1034q76 -149 76 -315q0 -17 -2 -49l-5 -69q-9 -130 -61 -249t-141 -212q-82 -85 -254 -132q-48 -13 -164 -17l2 -180h-354v185q-123 19 -235.5 74.5t-237.5 150.5q-39 30 -66.5 70.5t-40.5 87.5q-20 74 -32 164t-12 184q0 77 9 152q15 96 64.5 181t107.5 132
q30 26 85 55.5t102 50.5t61 27q110 32 195 50v204h330l3 -179q171 -18 353 -117l5 -4q136 -96 212 -245zM1525 733q0 146 -101.5 231t-309.5 127l10 -771q104 23 188.5 73t138.5 119.5t68 147.5q6 39 6 73zM510.5 420q89.5 -80 266.5 -105v764q-200 -67 -287 -229l-69 -218
q0 -132 89.5 -212z" />
    <glyph glyph-name="uni0425" unicode="&#x425;" horiz-adv-x="1497" 
d="M504 1551l-326 8l432 -807l-467 -725l349 -20l280 487l252 -495h313l-376 768l372 780h-289l-272 -553z" />
    <glyph glyph-name="uni0426" unicode="&#x426;" horiz-adv-x="1823" 
d="M1315 214l348 -6l-47 -580l-247 37l33 296l-99 2v-2l-175 7v1l-978 46l30 277l117 1284l260 -4v-1h3l-57 -1290l493 -29l117 1284l260 -4z" />
    <glyph glyph-name="uni0427" unicode="&#x427;" 
d="M149 1223q0 -67 8 -119q19 -134 85 -211q39 -40 56 -54q16 -12 61 -32q19 -7 22 -8l21 -9q33 -12 62 -18l36 -8q18 -4 37 -8.5t36 -9.5t37 -7q24 -3 169 -3q68 0 81 1q46 3 72 6.5t49 10.5l-1 -9l-35 -718l246 -19l59 1176q3 27 10 178.5t9 205.5v16l-253 -16l-23 -368
q-4 -68 -48 -116.5t-111 -73.5t-139 -25q-75 0 -139.5 27t-103.5 79t-39 123q0 13 1 20l29 320l-274 34l-17 -243q-3 -40 -3 -122z" />
    <glyph glyph-name="uni0428" unicode="&#x428;" horiz-adv-x="2270" 
d="M1885 1500l260 -4l-70 -1571l-1959 95l23 275l117 1284l260 -4l-57 -1290l493 -29l117 1284l260 -4v-1h3l-57 -1290l493 -29z" />
    <glyph glyph-name="uni0429" unicode="&#x429;" horiz-adv-x="2629" 
d="M2121 175l348 -6l-47 -580l-247 37l33 296l-99 2v-2l-175 7v1l-1784 87l23 275l117 1284l260 -4l-57 -1290l493 -29l117 1284l260 -4v-1h3l-57 -1290l493 -29l117 1284l260 -4z" />
    <glyph glyph-name="uni042A" unicode="&#x42a;" horiz-adv-x="1576" 
d="M1460.5 631q24.5 -99 24.5 -195q0 -73 -11.5 -130.5t-42.5 -110.5q-48 -83 -136 -136q-15 -10 -19 -16q-5 -8 -9 -12t-14 -9q-11 -5 -40 -10q-143 -22 -203 -24l-615 -17l-31 1369l-312 24l-24 218l201 -12q35 1 220 1h181h1l3 -226v-453q25 0 112 1t175 3l82 -2
q98 -1 148.5 -4t92.5 -13t82 -31q46 -25 81 -58q29 -58 53.5 -157zM1216.5 381.5q16.5 54.5 16.5 96.5q0 31 -19.5 68t-52.5 68q-36 34 -85 53.5t-105 15.5l-328 -16l4 -452l345 12q56 2 102 21t78 51q28 28 44.5 82.5z" />
    <glyph glyph-name="uni042B" unicode="&#x42b;" horiz-adv-x="1924" 
d="M130 1561l35 -1582l615 17q60 2 203 24q29 5 40 10q10 5 14 9t9 12q4 6 19 16q88 54 136 136q31 53 42.5 110.5t11.5 130.5q0 96 -24.5 195.5t-53.5 157.5q-37 33 -82 57q-39 21 -81 31t-92.5 13t-148.5 4l-82 2q-104 -2 -183 -3t-104 -1v453l-3 226zM1751 1577h-330
v-1598h354zM417 223l-4 452l328 16q56 4 105 -15.5t85 -53.5q33 -31 52.5 -68t19.5 -68q0 -42 -16.5 -96.5t-44.5 -82.5q-32 -32 -78 -51t-102 -21z" />
    <glyph glyph-name="uni042C" unicode="&#x42c;" horiz-adv-x="1346" 
d="M130 1554l35 -1582l615 17q60 2 203 24q29 5 40 10q10 5 14 9t9 12q4 6 19 16q88 54 136 136q31 53 42.5 110.5t11.5 130.5q0 96 -24.5 195.5t-53.5 157.5q-37 33 -82 57q-39 21 -81 31t-92.5 13t-148.5 4l-82 2q-104 -2 -183 -3t-104 -1v453l-3 226zM417 216l-4 452
l328 16q56 4 105 -15.5t85 -53.5q33 -31 52.5 -68t19.5 -68q0 -42 -16.5 -96.5t-44.5 -82.5q-32 -32 -78 -51t-102 -21z" />
    <glyph glyph-name="uni042D" unicode="&#x42d;" horiz-adv-x="1337" 
d="M1149.5 1170q32.5 -162 47.5 -443q5 -107 5 -178q0 -133 -17 -227.5t-59 -161.5q-59 -94 -177 -141t-317 -51q-45 -8 -79 -8q-158 0 -270 132q-23 27 -52 72l241 143q55 -79 139 -75q181 11 247 96q18 22 29.5 60.5t19.5 95.5q7 50 7 119q0 37 -1 56q-93 -1 -154.5 -4
t-72.5 -4q-19 -2 -35 -2q-9 1 -49 -1t-54 -3l-106 211l37 4q21 5 22 5h7q10 0 28 3q25 1 62.5 4t53.5 4l246 22q-6 64 -22 146q-25 115 -67 165q-30 35 -69 48t-97 13q-38 0 -83 -3q-54 -3 -93 -21t-66 -52l-252 128q35 87 115 144q117 85 274 94q53 3 100 3
q154 0 252 -33.5t159 -110.5q68 -87 100.5 -249z" />
    <glyph glyph-name="uni042E" unicode="&#x42e;" horiz-adv-x="2281" 
d="M2139 681q-10 -143 -67 -274t-155 -234q-91 -93 -280 -145q-43 -12 -75 -15.5t-87 -5.5q-15 0 -61 -2q-44 -2 -61 -2q-99 0 -171 21.5t-129.5 59t-153.5 113.5q-17 13 -86 66q-43 32 -73.5 76.5t-44.5 97.5q-25 87 -36 185q-68 2 -164 2l9 -624h-354v1568h330l10 -627
l162 7q2 26 4 38q17 107 71.5 200.5t118.5 145.5q32 28 93 60t113 55.5t67 29.5l97 29q107 33 160.5 46t99.5 13q64 0 135.5 -28.5t212.5 -104.5q93 -50 166.5 -153t114.5 -230.5t41 -247.5q0 -15 -2 -45zM1740.5 459q112.5 107 144.5 287q12 75 12 136q0 113 -47 184.5
t-157 115.5t-303 67q-118 -15 -189 -52t-112.5 -90.5t-92.5 -151.5l-54 -240q0 -130 35 -207t136 -116.5t296 -39.5q219 0 331.5 107z" />
    <glyph glyph-name="uni042F" unicode="&#x42f;" 
d="M1159 1588l-575 -31q-45 -3 -83 -8q-58 -9 -92 -25q-13 -8 -45 -20q-110 -43 -170 -145q-14 -24 -24 -66t-15 -89q-6 -58 -6 -116q0 -23 2 -57q7 -120 64 -206.5t156 -133.5q29 -14 83 -18q41 -3 107 -13l-28 -44q-26 -42 -31 -51l-36 -58q-125 -202 -312 -535l309 21
l276 446q7 10 29 52l33 64q17 30 32.5 56t22.5 33q11 7 17 13q6 5 10.5 6.5t11.5 1.5q5 1 22 1l41 4l58 -614l260 25zM737 974l-32 -1q-30 -2 -52 -2q-73 0 -114 7q-46 4 -80.5 39.5t-38.5 85.5l-3 37q-2 34 17 71q11 22 30.5 42t43.5 31q42 19 115 26l55 6l223 14l29 -344z
" />
    <glyph glyph-name="uni0430" unicode="&#x430;" 
d="M434 175l520 -31l33 -145l322 -13l-371 1590l-236 4l-636 -1544l299 -17zM780 1080l135 -672l-387 25z" />
    <glyph glyph-name="uni0431" unicode="&#x431;" horiz-adv-x="1346" 
d="M125 1574l35 -1602l565 17q60 2 203 24q29 5 40 10q10 5 14 9t9 12q4 6 19 16q86 53 136 136q31 52 42.5 109t11.5 131q0 162 -79 313q-35 33 -81 58q-39 21 -81 31t-92.5 13t-148.5 4l-82 2q-97 -3 -158.5 -3.5t-78.5 -0.5v493h705l54 247h-174q-192 0 -228 -1zM412 216
l-4 412l278 16q56 4 105 -15.5t85 -53.5q33 -31 52.5 -68t19.5 -68q0 -37 -15.5 -73t-45.5 -66q-32 -32 -78 -51t-102 -21z" />
    <glyph glyph-name="uni0432" unicode="&#x432;" horiz-adv-x="1346" 
d="M125 1574l35 -1602l565 17q60 2 203 24q29 5 40 10q10 5 14 9t9 12q4 6 19 16q94 57 143.5 148.5t46.5 206.5q-4 141 -48 248.5t-112 142.5q29 33 48 52l20 21q6 5 9 9l13 20q18 26 24 71.5t6 108.5q0 22 -2 66q-2 38 -2 52l-1 26q-7 151 -125 256q-32 29 -58 47.5
t-54 31.5q-63 28 -162 25zM406 921l-13 417l297 8q96 3 141.5 -40t47.5 -115v-94q0 -98 -69 -142q-38 -24 -112 -26zM412 216l-4 412l278 16q56 4 105 -15.5t85 -53.5q33 -31 52.5 -68t19.5 -68q0 -37 -15.5 -73t-45.5 -66q-32 -32 -78 -51t-102 -21z" />
    <glyph glyph-name="uni0433" unicode="&#x433;" horiz-adv-x="1291" 
d="M385 -6l-260 4l70 1571l980 -47l-57 -277l-616 33z" />
    <glyph glyph-name="uni0434" unicode="&#x434;" horiz-adv-x="1650" 
d="M1587 256l-47 -640l-277 37l33 356l-255 6l-684 -6l33 -356l-277 -37l-47 640l203 2q29 116 68 266l24 93q27 107 45 183q26 116 39 216q11 85 22 316t11 258l952 -4l-23 -275l-96 -1050zM1026 266h14l47 1055l-340 -3q-3 -34 -10 -120.5t-12 -163.5q-6 -85 -17 -161.5
t-34 -216.5q-23 -137 -39 -207q-17 -75 -51 -188l442 4v1z" />
    <glyph glyph-name="uni0435" unicode="&#x435;" horiz-adv-x="1288" 
d="M1075 1582l-907 -29l31 -1568l925 20l-8 164l-581 -19l-35 486l504 -4l-17 248l-508 -41l-41 503l629 4z" />
    <glyph glyph-name="uni0436" unicode="&#x436;" horiz-adv-x="2110" 
d="M1374 779l587 -833l-343 3l-416 549l-36 -528l-285 15l20 529l-470 -503l-342 34l671 767l-547 780l299 -14l444 -582l31 555l44 -3l195 -9l-27 -555l502 531l299 -17z" />
    <glyph glyph-name="uni0437" unicode="&#x437;" horiz-adv-x="1169" 
d="M489 1325q10 1 30 1q81 0 121.5 -40t46.5 -105q2 -24 2 -37q4 -50 4 -74q0 -84 -61 -128q-36 -27 -111 -33l-183 -28l16 -269l172 12q20 2 30 2q47 0 88.5 -16.5t74.5 -43.5q35 -28 56.5 -64.5t23.5 -67.5q2 -37 -11 -73.5t-42 -68.5q-30 -33 -75.5 -55t-100.5 -27
l-290 -30l-8 -232l330 24q59 5 201 36q28 6 40 12q9 5 13 10t8 12q3 5 19 18q82 56 126.5 139.5t44.5 186.5q0 13 -2 39q-12 140 -62 244.5t-120 136.5q27 36 45 55l18 22q6 5 9 9l3.5 7t8.5 14q12 20 16.5 52t4.5 77q0 50 -7 118q-3 21 -8 78q-16 150 -139 248
q-33 27 -60.5 44.5t-56.5 28.5q-51 18 -111 18q-23 0 -52 -3l-369 -22l44 -254z" />
    <glyph glyph-name="uni0438" unicode="&#x438;" horiz-adv-x="1366" 
d="M842 1563l278 30l131 -1552l-299 -29l-65 709l-342 -717l-240 -47l-133 1553l305 26l68 -702z" />
    <glyph glyph-name="uni0439" unicode="&#x439;" horiz-adv-x="1366" 
d="M696 1820q-29 -24 -66 -22q-5 0 -40 5q-5 1 -9.5 2t-8.5 1q-3 0 -3.5 0.5t0.5 0.5t-6 4q-23 14 -35 39q-9 16 -7 42l-111 20q-6 -33 -6 -59q0 -41 18 -80q23 -29 36.5 -42.5t34.5 -24.5q23 -12 59 -18.5t96 -9.5q20 -2 26 -2q13 0 25.5 2t19.5 3q9 1 23 7l28 12
q37 16 56 41q15 20 30 58q3 6 7.5 16t6.5 19.5t3 26.5l3 49l-140 -17q-11 -49 -40 -73zM842 1563l278 30l131 -1552l-299 -29l-65 709l-342 -717l-240 -47l-133 1553l305 26l68 -702z" />
    <glyph glyph-name="uni043A" unicode="&#x43a;" horiz-adv-x="1448" 
d="M1319 44l-342 -31l-467 506l16 -529l-282 -12l-94 1565l282 14l27 -555l448 578l299 12l-553 -776z" />
    <glyph glyph-name="uni043B" unicode="&#x43b;" horiz-adv-x="1988" 
d="M1804 1247l-117 -1284l-260 4l57 1290l-562 29q-28 -201 -74 -763l-8 -91q-10 -91 -59 -202q-26 -71 -57 -110q-42 -52 -105 -78l-53 -22q-14 -6 -21 -8q-10 -4 -22 -6q-40 -8 -78 -8q-24 0 -57 3q-95 5 -140.5 14.5t-94.5 29.5l73 208l2 -1q7 -4 23 -8.5t27 -6.5
q61 -9 77 -9q51 -3 98 29.5t77.5 96t35.5 150.5l5 85l44 988l1212 -55z" />
    <glyph glyph-name="uni043C" unicode="&#x43c;" horiz-adv-x="1589" 
d="M387 1511l-252 -17l103 -1503l251 12l-30 740l360 -662l277 678l45 -694l291 20l-103 1499l-254 -22l-301 -803z" />
    <glyph glyph-name="uni043D" unicode="&#x43d;" horiz-adv-x="1468" 
d="M436 1553l-286 -4l81 -1569l287 3l-14 647l446 30l37 -655l320 16l-82 1569l-320 -16l17 -627l-433 -37z" />
    <glyph glyph-name="uni043E" unicode="&#x43e;" horiz-adv-x="1419" 
d="M240 1344q-25 -49 -45.5 -136.5t-31.5 -195.5q-10 -93 -10 -205q0 -142 17 -267q16 -123 53 -228.5t94 -180.5q109 -145 282 -145q32 0 60 4q17 -1 50 -1q175 0 284 41t169 126q59 84 79.5 216.5t20.5 345.5q0 281 -24 444.5t-88 254.5q-44 63 -111 99.5t-161.5 52
t-230.5 15.5q-159 0 -278 -79q-48 -32 -80.5 -72t-48.5 -81v-8zM412 853q0 156 23 251t76 141t144 46q71 0 111 -3.5t74.5 -18.5t59.5 -49q41 -55 59 -169q18 -115 18 -329q0 -143 -17 -231q-11 -55 -24 -93.5t-33 -60.5q-72 -82 -252 -82q-55 0 -93 33t-65 90
q-21 45 -38 107q-12 43 -29 99z" />
    <glyph glyph-name="uni043F" unicode="&#x43f;" horiz-adv-x="1454" 
d="M1338 1514l-23 -275l-117 -1284l-260 4l57 1290l-493 29l-117 -1284l-260 4l70 1571z" />
    <glyph glyph-name="uni0440" unicode="&#x440;" horiz-adv-x="1217" 
d="M193 1582l-29 -1590h239l21 660l186 2q106 1 190.5 33.5t143.5 90.5q57 56 88 131t33 161q2 100 -16.5 189t-59.5 156q-45 72 -115.5 113t-168.5 43zM485 924l2 410l88 -2q60 -1 103.5 -24.5t68.5 -61.5q22 -33 31.5 -72.5t9.5 -77.5q-5 -83 -50 -124q-58 -53 -179 -50z
" />
    <glyph glyph-name="uni0441" unicode="&#x441;" horiz-adv-x="1325" 
d="M903 449q-14 -66 -34.5 -99t-51.5 -46q-28 -12 -68 -12l-118 1q-28 0 -56 -2l-19 -1q-29 0 -50 10q-22 9 -40 23.5t-30 45.5q-25 65 -28 186q-2 74 -2 117q0 59 -3 141q-2 52 -2 79q0 147 23 250q17 76 55 116q40 38 97 55q52 15 151 15q64 0 90.5 -11t44.5 -37
q13 -16 18 -27t10 -26q2 -7 4 -21q2 -13 7 -28l258 6q-10 138 -41 216.5t-93 117.5q-48 30 -122 41t-191 11q-67 0 -104 -1q-174 -4 -272 -56t-143 -152q-27 -61 -39.5 -140.5t-15.5 -167.5t-3 -231v-162q0 -201 30 -365q15 -79 45 -126.5t84 -82.5q93 -61 237 -81
q72 -10 118 -9q155 4 252.5 25.5t158.5 70.5q62 50 90 136t26 219z" />
    <glyph glyph-name="uni0442" unicode="&#x442;" horiz-adv-x="1374" 
d="M1202 1586l-1059 -88l13 -258l379 43l120 -1303l244 17l-84 1304l397 29z" />
    <glyph glyph-name="uni0443" unicode="&#x443;" horiz-adv-x="1333" 
d="M240.5 220.5q48.5 13.5 68.5 35.5q19 13 43.5 51t44 77.5t21.5 50.5l21 93l69 279l-377 750l301 -4l223 -496l242 512l303 -8l-383 -784q-47 -158 -121 -361q-26 -74 -27 -78q-14 -53 -38.5 -103.5t-49.5 -88.5q-35 -66 -72 -100q-49 -45 -116 -62l-55 -14q-17 -4 -22 -5
q-14 -2 -23 -2q-8 -1 -25 -1q-48 0 -107 16l2 228q29 1 77.5 14.5z" />
    <glyph glyph-name="uni0444" unicode="&#x444;" horiz-adv-x="1913" 
d="M1680 1034q76 -149 76 -315q0 -17 -2 -49l-5 -69q-9 -130 -61 -249t-141 -212q-82 -85 -254 -132q-48 -13 -164 -17l2 -180h-354v185q-123 19 -235.5 74.5t-237.5 150.5q-39 30 -66.5 70.5t-40.5 87.5q-20 74 -32 164t-12 184q0 77 9 152q15 96 64.5 181t107.5 132
q30 26 85 55.5t102 50.5t61 27q110 32 195 50v204h330l3 -179q171 -18 353 -117l5 -4q136 -96 212 -245zM1525 733q0 146 -101.5 231t-309.5 127l10 -771q104 23 188.5 73t138.5 119.5t68 147.5q6 39 6 73zM510.5 420q89.5 -80 266.5 -105v764q-200 -67 -287 -229l-69 -218
q0 -132 89.5 -212z" />
    <glyph glyph-name="uni0445" unicode="&#x445;" horiz-adv-x="1497" 
d="M504 1551l-326 8l432 -807l-467 -725l349 -20l280 487l252 -495h313l-376 768l372 780h-289l-272 -553z" />
    <glyph glyph-name="uni0446" unicode="&#x446;" horiz-adv-x="1823" 
d="M1315 214l348 -6l-47 -580l-247 37l33 296l-99 2v-2l-175 7v1l-978 46l30 277l117 1284l260 -4v-1h3l-57 -1290l493 -29l117 1284l260 -4z" />
    <glyph glyph-name="uni0447" unicode="&#x447;" 
d="M149 1223q0 -67 8 -119q19 -134 85 -211q39 -40 56 -54q16 -12 61 -32q19 -7 22 -8l21 -9q33 -12 62 -18l36 -8q18 -4 37 -8.5t36 -9.5t37 -7q24 -3 169 -3q68 0 81 1q46 3 72 6.5t49 10.5l-1 -9l-35 -718l246 -19l59 1176q3 27 10 178.5t9 205.5v16l-253 -16l-23 -368
q-4 -68 -48 -116.5t-111 -73.5t-139 -25q-75 0 -139.5 27t-103.5 79t-39 123q0 13 1 20l29 320l-274 34l-17 -243q-3 -40 -3 -122z" />
    <glyph glyph-name="uni0448" unicode="&#x448;" horiz-adv-x="2270" 
d="M1885 1500l260 -4l-70 -1571l-1959 95l23 275l117 1284l260 -4l-57 -1290l493 -29l117 1284l260 -4v-1h3l-57 -1290l493 -29z" />
    <glyph glyph-name="uni0449" unicode="&#x449;" horiz-adv-x="2629" 
d="M2121 175l348 -6l-47 -580l-247 37l33 296l-99 2v-2l-175 7v1l-1784 87l23 275l117 1284l260 -4l-57 -1290l493 -29l117 1284l260 -4v-1h3l-57 -1290l493 -29l117 1284l260 -4z" />
    <glyph glyph-name="uni044A" unicode="&#x44a;" horiz-adv-x="1576" 
d="M1460.5 631q24.5 -99 24.5 -195q0 -73 -11.5 -130.5t-42.5 -110.5q-48 -83 -136 -136q-15 -10 -19 -16q-5 -8 -9 -12t-14 -9q-11 -5 -40 -10q-143 -22 -203 -24l-615 -17l-31 1369l-312 24l-24 218l201 -12q35 1 220 1h181h1l3 -226v-453q25 0 112 1t175 3l82 -2
q98 -1 148.5 -4t92.5 -13t82 -31q46 -25 81 -58q29 -58 53.5 -157zM1216.5 381.5q16.5 54.5 16.5 96.5q0 31 -19.5 68t-52.5 68q-36 34 -85 53.5t-105 15.5l-328 -16l4 -452l345 12q56 2 102 21t78 51q28 28 44.5 82.5z" />
    <glyph glyph-name="uni044B" unicode="&#x44b;" horiz-adv-x="1924" 
d="M130 1561l35 -1582l615 17q60 2 203 24q29 5 40 10q10 5 14 9t9 12q4 6 19 16q88 54 136 136q31 53 42.5 110.5t11.5 130.5q0 96 -24.5 195.5t-53.5 157.5q-37 33 -82 57q-39 21 -81 31t-92.5 13t-148.5 4l-82 2q-104 -2 -183 -3t-104 -1v453l-3 226zM1751 1577h-330
v-1598h354zM417 223l-4 452l328 16q56 4 105 -15.5t85 -53.5q33 -31 52.5 -68t19.5 -68q0 -42 -16.5 -96.5t-44.5 -82.5q-32 -32 -78 -51t-102 -21z" />
    <glyph glyph-name="uni044C" unicode="&#x44c;" horiz-adv-x="1346" 
d="M130 1554l35 -1582l615 17q60 2 203 24q29 5 40 10q10 5 14 9t9 12q4 6 19 16q88 54 136 136q31 53 42.5 110.5t11.5 130.5q0 96 -24.5 195.5t-53.5 157.5q-37 33 -82 57q-39 21 -81 31t-92.5 13t-148.5 4l-82 2q-104 -2 -183 -3t-104 -1v453l-3 226zM417 216l-4 452
l328 16q56 4 105 -15.5t85 -53.5q33 -31 52.5 -68t19.5 -68q0 -42 -16.5 -96.5t-44.5 -82.5q-32 -32 -78 -51t-102 -21z" />
    <glyph glyph-name="uni044D" unicode="&#x44d;" horiz-adv-x="1337" 
d="M1149.5 1170q32.5 -162 47.5 -443q5 -107 5 -178q0 -133 -17 -227.5t-59 -161.5q-59 -94 -177 -141t-317 -51q-45 -8 -79 -8q-158 0 -270 132q-23 27 -52 72l241 143q55 -79 139 -75q181 11 247 96q18 22 29.5 60.5t19.5 95.5q7 50 7 119q0 37 -1 56q-93 -1 -154.5 -4
t-72.5 -4q-19 -2 -35 -2q-9 1 -49 -1t-54 -3l-106 211l37 4q21 5 22 5h7q10 0 28 3q25 1 62.5 4t53.5 4l246 22q-6 64 -22 146q-25 115 -67 165q-30 35 -69 48t-97 13q-38 0 -83 -3q-54 -3 -93 -21t-66 -52l-252 128q35 87 115 144q117 85 274 94q53 3 100 3
q154 0 252 -33.5t159 -110.5q68 -87 100.5 -249z" />
    <glyph glyph-name="uni044E" unicode="&#x44e;" horiz-adv-x="2281" 
d="M2139 681q-10 -143 -67 -274t-155 -234q-91 -93 -280 -145q-43 -12 -75 -15.5t-87 -5.5q-15 0 -61 -2q-44 -2 -61 -2q-99 0 -171 21.5t-129.5 59t-153.5 113.5q-17 13 -86 66q-43 32 -73.5 76.5t-44.5 97.5q-25 87 -36 185q-68 2 -164 2l9 -624h-354v1568h330l10 -627
l162 7q2 26 4 38q17 107 71.5 200.5t118.5 145.5q32 28 93 60t113 55.5t67 29.5l97 29q107 33 160.5 46t99.5 13q64 0 135.5 -28.5t212.5 -104.5q93 -50 166.5 -153t114.5 -230.5t41 -247.5q0 -15 -2 -45zM1740.5 459q112.5 107 144.5 287q12 75 12 136q0 113 -47 184.5
t-157 115.5t-303 67q-118 -15 -189 -52t-112.5 -90.5t-92.5 -151.5l-54 -240q0 -130 35 -207t136 -116.5t296 -39.5q219 0 331.5 107z" />
    <glyph glyph-name="uni044F" unicode="&#x44f;" 
d="M1159 1588l-575 -31q-45 -3 -83 -8q-58 -9 -92 -25q-13 -8 -45 -20q-110 -43 -170 -145q-14 -24 -24 -66t-15 -89q-6 -58 -6 -116q0 -23 2 -57q7 -120 64 -206.5t156 -133.5q29 -14 83 -18q41 -3 107 -13l-28 -44q-26 -42 -31 -51l-36 -58q-125 -202 -312 -535l309 21
l276 446q7 10 29 52l33 64q17 30 32.5 56t22.5 33q11 7 17 13q6 5 10.5 6.5t11.5 1.5q5 1 22 1l41 4l58 -614l260 25zM737 974l-32 -1q-30 -2 -52 -2q-73 0 -114 7q-46 4 -80.5 39.5t-38.5 85.5l-3 37q-2 34 17 71q11 22 30.5 42t43.5 31q42 19 115 26l55 6l223 14l29 -344z
" />
    <glyph glyph-name="uni0450" unicode="&#x450;" horiz-adv-x="1288" 
d="M934 1747l-28 -70l-576 117l75 217zM1075 1582l-907 -29l31 -1568l925 20l-8 164l-581 -19l-35 486l504 -4l-17 248l-508 -41l-41 503l629 4z" />
    <glyph glyph-name="uni0451" unicode="&#x451;" horiz-adv-x="1288" 
d="M306 1717l232 -17l18 247l-232 17zM678 1690l232 -16l17 247l-231 16zM1075 1582l-907 -29l31 -1568l925 20l-8 164l-581 -19l-35 486l504 -4l-17 248l-508 -41l-41 503l629 4z" />
    <glyph glyph-name="uni0453" unicode="&#x453;" horiz-adv-x="1291" 
d="M407 1736l28 -70l576 117l-75 217zM385 -6l-260 4l70 1571l980 -47l-57 -277l-616 33z" />
    <glyph glyph-name="uni0454" unicode="&#x454;" horiz-adv-x="1337" 
d="M187.5 1210q-32.5 -162 -47.5 -443q-5 -107 -5 -178q0 -133 17 -227.5t59 -161.5q59 -94 177 -141t317 -51q45 -8 79 -8q158 0 270 132q23 27 52 72l-241 143q-55 -79 -139 -75q-181 11 -247 96q-18 22 -29.5 60.5t-19.5 95.5q-7 50 -7 119q0 37 1 56q93 -1 154.5 -4
t72.5 -4q19 -2 35 -2q9 1 49 -1t54 -3l106 211l-37 4q-21 5 -22 5h-7q-10 0 -28 3q-25 1 -62.5 4t-53.5 4l-246 22q6 64 22 146q25 115 67 165q30 35 69 48t97 13q38 0 83 -3q54 -3 93 -21t66 -52l252 128q-35 87 -115 144q-117 85 -274 94q-53 3 -100 3q-154 0 -252 -33.5
t-159 -110.5q-68 -87 -100.5 -249z" />
    <glyph glyph-name="uni0455" unicode="&#x455;" horiz-adv-x="1309" 
d="M158 371q4 -62 8.5 -95.5t13.5 -57.5q10 -27 29 -51.5t57 -61.5q39 -37 72 -57.5t75 -31.5q43 -11 103.5 -15.5t155.5 -4.5h78q25 0 39.5 2.5t29.5 9.5q17 8 49 21q140 62 218.5 179.5t78.5 260.5q0 124 -59 218q-60 95 -186 161q-30 16 -50.5 24t-54.5 18q-40 10 -72 16
q-33 6 -63 13l-53 11q-62 12 -123 57q-68 50 -82 111q-7 18 -7 60q0 18 1 28q3 37 9 65t21 52q13 21 37.5 39.5t54.5 29.5q39 14 84 14q31 0 60 -7q12 -4 29 -7q66 -17 113 -72q29 -35 42 -91h252q-21 114 -49.5 181.5t-76.5 104.5t-127 56t-218 31q-162 2 -258 -33
t-141 -101q-27 -39 -40.5 -88t-18 -96.5t-7.5 -124.5q0 -92 29 -177.5t88 -141.5q33 -32 59.5 -51t59.5 -34q34 -15 83.5 -25t133.5 -19q92 -10 155 -51q23 -15 42 -34l28 -30q20 -20 24 -75q1 -7 1 -22t-1 -23q-1 -15 -1 -38q0 -30 -17.5 -64t-48.5 -62q-73 -68 -162 -68
q-23 0 -61 -2l-28 -1q-41 0 -68 12q-20 9 -39 32l-18 23q-16 16 -26 50q-4 14 -9 41z" />
    <glyph glyph-name="uni0456" unicode="&#x456;" horiz-adv-x="752" 
d="M537 1578h-330v-1638h354z" />
    <glyph glyph-name="uni0457" unicode="&#x457;" horiz-adv-x="752" 
d="M57 1717l232 -17l18 247l-232 17zM429 1690l232 -16l17 247l-231 16zM537 1578h-330v-1638h354z" />
    <glyph glyph-name="uni0458" unicode="&#x458;" horiz-adv-x="1217" 
d="M827 1586l-61 -1078q-5 -87 -35.5 -150.5t-77.5 -96t-98 -29.5q-16 0 -77 9l-33 5q-5 1 -6.5 1.5t1.5 0.5q2 0 -12 8q-42 22 -66 73q-16 30 -14 81l-209 37q-12 -63 -12 -112q0 -79 35 -150q42 -55 68 -82t66 -46q44 -22 111.5 -34t180.5 -18q33 -3 57 -3q38 0 78 8
q19 4 43 14q6 3 53 22q63 26 105 78q31 39 57 110q28 64 33 166q4 96 12 227l51 942z" />
    <glyph glyph-name="uni045C" unicode="&#x45c;" horiz-adv-x="1448" 
d="M1015 1783l-576 -117l-28 70l529 264zM1319 44l-342 -31l-467 506l16 -529l-282 -12l-94 1565l282 14l27 -555l448 578l299 12l-553 -776z" />
    <glyph glyph-name="uni045D" unicode="&#x45d;" horiz-adv-x="1366" 
d="M916 1717l-28 -70l-576 117l75 217zM842 1563l278 30l131 -1552l-299 -29l-65 709l-342 -717l-240 -47l-133 1553l305 26l68 -702z" />
    <glyph glyph-name="uni045E" unicode="&#x45e;" horiz-adv-x="1333" 
d="M730 1820q-29 -24 -66 -22q-5 0 -40 5q-5 1 -9.5 2t-8.5 1q-3 0 -3.5 0.5t0.5 0.5t-6 4q-23 14 -35 39q-9 16 -7 42l-111 20q-6 -33 -6 -59q0 -41 18 -80q23 -29 36.5 -42.5t34.5 -24.5q23 -12 59 -18.5t96 -9.5q20 -2 26 -2q13 0 25.5 2t19.5 3q9 1 23 7l28 12
q37 16 56 41q15 20 30 58q3 6 7.5 16t6.5 19.5t3 26.5l3 49l-140 -17q-11 -49 -40 -73zM240.5 220.5q48.5 13.5 68.5 35.5q19 13 43.5 51t44 77.5t21.5 50.5l21 93l69 279l-377 750l301 -4l223 -496l242 512l303 -8l-383 -784q-47 -158 -121 -361q-26 -74 -27 -78
q-14 -53 -38.5 -103.5t-49.5 -88.5q-35 -66 -72 -100q-49 -45 -116 -62l-55 -14q-17 -4 -22 -5q-14 -2 -23 -2q-8 -1 -25 -1q-48 0 -107 16l2 228q29 1 77.5 14.5z" />
    <glyph glyph-name="uni0E3F" unicode="&#xe3f;" horiz-adv-x="1346" 
d="M1153.5 211.5q-49.5 -91.5 -143.5 -148.5q-15 -10 -19 -16q-5 -8 -9 -12t-14 -9q-11 -5 -40 -10q-111 -17 -171 -22l3 -198h-194v191l-406 -12l-35 1602l441 13v184h170l2 -180l18 1q99 3 162 -25q28 -13 54 -31.5t58 -47.5q118 -105 125 -256l1 -26q0 -14 2 -52
q2 -44 2 -66q0 -63 -6 -108.5t-24 -71.5l-13 -20q-3 -4 -9 -9l-20 -21q-19 -19 -48 -52q68 -35 112 -142.5t48 -248.5q3 -115 -46.5 -206.5zM843.5 1296q-33.5 41 -102.5 51l5 -411q38 6 64 22q69 44 69 142v94q-2 61 -35.5 102zM393 1341l13 -417l160 4v418zM932.5 369
q15.5 36 15.5 73q0 31 -19.5 68t-52.5 68q-54 51 -127 65l5 -407q83 17 133 67q30 30 45.5 66zM412 219l154 6v415l-158 -9z" />
    <glyph glyph-name="Wgrave" unicode="&#x1e80;" horiz-adv-x="1735" 
d="M1134 1736l-28 -70l-576 117l75 217zM406 1574l-252 8l211 -1557l151 -10l213 657l141 -677l127 -9l433 1512l-277 28l-203 -747l-112 758l-103 6l-235 -705z" />
    <glyph glyph-name="wgrave" unicode="&#x1e81;" horiz-adv-x="1735" 
d="M1134 1736l-28 -70l-576 117l75 217zM406 1574l-252 8l211 -1557l151 -10l213 657l141 -677l127 -9l433 1512l-277 28l-203 -747l-112 758l-103 6l-235 -705z" />
    <glyph glyph-name="Wacute" unicode="&#x1e82;" horiz-adv-x="1735" 
d="M434 1736l28 -70l576 117l-75 217zM406 1574l-252 8l211 -1557l151 -10l213 657l141 -677l127 -9l433 1512l-277 28l-203 -747l-112 758l-103 6l-235 -705z" />
    <glyph glyph-name="wacute" unicode="&#x1e83;" horiz-adv-x="1735" 
d="M434 1736l28 -70l576 117l-75 217zM406 1574l-252 8l211 -1557l151 -10l213 657l141 -677l127 -9l433 1512l-277 28l-203 -747l-112 758l-103 6l-235 -705z" />
    <glyph glyph-name="Wdieresis" unicode="&#x1e84;" horiz-adv-x="1735" 
d="M488 1717l232 -17l18 247l-232 17zM860 1690l232 -16l17 247l-231 16zM406 1574l-252 8l211 -1557l151 -10l213 657l141 -677l127 -9l433 1512l-277 28l-203 -747l-112 758l-103 6l-235 -705z" />
    <glyph glyph-name="wdieresis" unicode="&#x1e85;" horiz-adv-x="1735" 
d="M488 1717l232 -17l18 247l-232 17zM860 1690l232 -16l17 247l-231 16zM406 1574l-252 8l211 -1557l151 -10l213 657l141 -677l127 -9l433 1512l-277 28l-203 -747l-112 758l-103 6l-235 -705z" />
    <glyph glyph-name="Ygrave" unicode="&#x1ef2;" horiz-adv-x="1493" 
d="M1104 1736l-28 -70l-576 117l75 217zM432 1553l-301 4l471 -758l12 -819l273 16l-8 781l481 784l-303 8l-312 -512z" />
    <glyph glyph-name="endash" unicode="&#x2013;" horiz-adv-x="1110" 
d="M150 805v-261h787l12 261h-799z" />
    <glyph glyph-name="emdash" unicode="&#x2014;" horiz-adv-x="1971" 
d="M1804 667l6 -128l-1654 -3l-6 130z" />
    <glyph glyph-name="quoteleft" unicode="&#x2018;" horiz-adv-x="560" 
d="M172 1427q-5 -52 -5 -69q0 -26 2.5 -38t11.5 -27t37 -54l17 -24q8 6 36 45l32 41q-29 69 -29 81q0 15 5 40l107 -11l23 213l-214 22z" />
    <glyph glyph-name="quoteright" unicode="&#x2019;" horiz-adv-x="560" 
d="M388 1429q5 -52 5 -70q0 -25 -2.5 -37t-10.5 -25.5t-32 -47.5q-1 -2 -23 -33q-10 10 -31 39l-38 47q30 68 30 81q0 15 -5 40l-108 -11l-22 213l213 22z" />
    <glyph glyph-name="quotesinglbase" unicode="&#x201a;" horiz-adv-x="699" 
d="M560 393l-18 -391q-16 -140 -45.5 -218t-83.5 -115q-33 -23 -63 -34t-73 -16t-118 -6l-56 175q7 1 22 1q97 4 153 44q73 54 78 170l-242 11l19 401z" />
    <glyph glyph-name="quotedblleft" unicode="&#x201c;" horiz-adv-x="990" 
d="M564 1387l235 -431l-116 35l-211 399zM275 1298l246 -396l-103 -53l-211 400z" />
    <glyph glyph-name="quotedblright" unicode="&#x201d;" horiz-adv-x="937" 
d="M416 1410l79 -31l-203 -429l-101 59zM683 1263l47 -81l-237 -441l-33 118z" />
    <glyph glyph-name="quotedblbase" unicode="&#x201e;" horiz-adv-x="898" 
d="M391 1648l86 -57l-186 -334l-84 39zM632 1527l75 -40l-173 -349l-86 39z" />
    <glyph glyph-name="ellipsis" unicode="&#x2026;" horiz-adv-x="600" 
d="M120 423l427 -22l-20 -399l-426 20z" />
    <glyph glyph-name="perthousand" unicode="&#x2030;" horiz-adv-x="2054" 
d="M1080 1530l-959 -1208l205 -199l975 1264zM101 1237q0 -78 19 -147q11 -41 45 -67l36 -27q37 -29 59 -43t49.5 -22t65.5 -8l22 1l24 1q15 0 30 1.5t32 6.5q71 19 107 56q38 40 60 90t26 106l2 28l1 20q0 71 -32 134.5t-90 104.5l-2 1q-55 30 -82.5 41t-52.5 11
q-16 0 -39 -6t-50 -14l-48 -14q-6 -2 -26 -11t-43.5 -21.5t-35.5 -23.5q-25 -20 -46 -56t-27 -77q-4 -29 -4 -65zM264 1280q16 31 29.5 48t36 28.5t59.5 16.5q91 -10 126.5 -37t35.5 -80q0 -11 -4 -43q-22 -125 -152 -125q-62 0 -94 12.5t-43 37t-11 65.5zM720 444
q0 -79 19 -148q11 -41 45 -67l36 -27q37 -29 59 -43t49.5 -22t65.5 -8l22 1l24 1q15 0 30 1.5t32 6.5q71 19 107 56q38 40 60 90t26 105l2 29l1 20q0 71 -32 134.5t-90 104.5l-2 1q-55 30 -82.5 41t-52.5 11q-16 0 -39 -6t-50 -14l-48 -14q-6 -2 -26 -11t-43.5 -21.5
t-35.5 -23.5q-25 -20 -46 -56t-27 -77q-4 -42 -4 -64zM1411 444q0 -79 19 -148q11 -41 45 -67l36 -27q37 -29 59 -43t49.5 -22t65.5 -8l22 1l24 1q15 0 30 1.5t32 6.5q71 19 107 56q38 40 60 90t26 105l2 29l1 20q0 71 -32 134.5t-90 104.5l-2 1q-55 30 -82.5 41t-52.5 11
q-16 0 -39 -6t-50 -14l-48 -14q-6 -2 -26 -11t-43.5 -21.5t-35.5 -23.5q-25 -20 -46 -56t-27 -77q-4 -42 -4 -64zM883 485q16 31 29.5 48.5t36 29t59.5 16.5q91 -10 126.5 -37t35.5 -80q0 -11 -4 -43q-22 -125 -152 -125q-62 0 -94 12.5t-43 37t-11 65.5zM1574 485
q16 31 29.5 48.5t36 29t59.5 16.5q91 -10 126.5 -37t35.5 -80q0 -11 -4 -43q-22 -125 -152 -125q-62 0 -94 12.5t-43 37t-11 65.5z" />
    <glyph glyph-name="exclamdbl" unicode="&#x203c;" horiz-adv-x="1130" 
d="M186 1477l-12 -1011l243 -8l46 1023zM707 1408l-91 -971l230 -24l123 955zM159 271l-9 -251l255 -9l9 238zM591 240l-24 -226l242 -26l26 239z" />
    <glyph glyph-name="colonmonetary" unicode="&#x20a1;" horiz-adv-x="1325" 
d="M1050 1161l-272 -863l11 3q32 11 55 42.5t41 96.5l272 -22q-7 -133 -41 -216.5t-100 -129.5q-55 -38 -135 -54t-196 -15l-36 -113l-199 17l40 115l-8 1q-55 13 -85 24l-49 -157l-199 17l82 231q-41 36 -63 82.5t-30 118.5q-10 89 -10 200q0 84 6 166l12 162
q10 143 19.5 230t27.5 166t49 137q48 89 137.5 134t237.5 45q35 0 54 -1l66 -4l48 137l136 -4l-46 -145q91 -11 147 -32l64 181l136 -4l-84 -268q29 -45 42 -114t13 -171zM401 622l249 707q-20 -2 -29 -4q-58 -12 -101 -48q-40 -35 -63 -112q-39 -131 -44 -326
q-3 -70 -8 -141zM590 304l331 938q-9 18 -17 29q-14 24 -35 36.5t-68 18.5l-318 -1009q23 -11 64 -11q9 0 43 -2z" />
    <glyph glyph-name="lira" unicode="&#x20a4;" horiz-adv-x="1325" 
d="M1172 260l-51 -256l-850 -4l-80 259q47 16 93.5 59.5t68.5 104.5q-44 0 -62 0.5t-21 0.5q-22 3 -38 3q-9 0 -31 -2q-8 1 -15.5 0.5t-13.5 -0.5h-22l6 237q54 0 72 1q5 1 16 1q12 0 18 -1l101 -1l3 121l-96 2q-22 3 -38 3q-9 0 -31 -2q-8 1 -15.5 0.5t-13.5 -0.5h-22
l6 237q54 0 72 1q5 1 16 1q12 0 18 -1l109 -1l1 43l-9 91q-3 24 -3 64q0 54 9 82q20 76 48 118q37 55 99 90q44 23 52 28q25 13 42 18q23 8 29.5 9t26.5 2q70 2 95 2q72 0 121.5 -6t86.5 -20q42 -15 70 -39t80 -78q28 -45 40.5 -91.5t12.5 -104.5q0 -20 -4 -70l-217 17
q-3 51 -22 82q-29 48 -75 68q-7 3 -23 6t-29 4q-57 3 -59 3q-11 0 -21 -2q-44 -10 -68 -47.5t-38 -116.5l11 -155h25q80 -2 102 -2h58q11 0 21.5 0.5t17.5 -0.5t57 -1h46l96 -217q-27 -1 -38 -2q-16 -2 -23 -2l-35 -2l-116 -2l-196 -8q5 -80 3 -99l-2 -27q36 -1 93 -1h69
q14 0 26.5 0.5t19.5 -0.5t57 -1h46l96 -217q-27 -1 -38 -2q-16 -2 -23 -2l-35 -2l-116 -2l-221 -9q-18 -83 -62 -123q-2 -9 -3.5 -20.5t-3.5 -19.5z" />
    <glyph glyph-name="uni20A6" unicode="&#x20a6;" horiz-adv-x="1600" 
d="M1468 902h-176l-23 -260l199 3v-194h-215l-43 -501l-240 47l-217 454h-149l-41 -446l-299 29l35 417h-159v170l174 3l23 278h-197v170l212 4l43 510l278 -30l192 -471l130 3l43 441l305 -26l-35 -410l160 3v-194zM970 827l7 75h-38zM620 630l48 1l-40 83z" />
    <glyph glyph-name="peseta" unicode="&#x20a7;" horiz-adv-x="1404" 
d="M1332 1026h-177q-8 -73 -38 -136.5t-80 -111.5q-59 -58 -143.5 -90.5t-190.5 -33.5l-186 -2l-21 -660h-239l19 1034h-192v170l196 4l6 382l512 -11q98 -2 168.5 -43t115.5 -113q51 -81 68 -198l182 3v-194zM580 1206l279 5q-9 21 -19 35q-25 38 -68.5 61.5t-103.5 24.5
l-88 2v-128zM868 1026h-289l-1 -102l74 -2q121 -3 179 50q25 23 37 54z" />
    <glyph glyph-name="uni20A9" unicode="&#x20a9;" horiz-adv-x="1669" 
d="M1518 1498l-96 -334l60 1v-194h-115l-40 -140l155 3v-194h-210l-187 -654l-127 9l-134 645h-17l-203 -625l-151 10l-83 615h-216v170l192 3l-21 158h-171v170l147 3l-59 438l252 -8l54 -426l144 3l131 392l103 -6l56 -381l159 3l100 367zM632 971h-61l17 -133zM1051 826
l39 145h-80l21 -145h20z" />
    <glyph glyph-name="uni20AA" unicode="&#x20aa;" horiz-adv-x="1913" 
d="M418 1301l8 -1261l-264 1l-12 1496l771 18q99 3 162 -25q28 -13 54 -31.5t58 -47.5q118 -105 125 -256l1 -26q0 -14 2 -52q1 -9 1 -147q0 -427 -2 -453l-280 1l2 636q-2 72 -47.5 115t-141.5 40zM1752 58l-771 -18q-99 -3 -162 25q-28 13 -54 31.5t-58 47.5
q-118 105 -125 256l-1 26q0 14 -2 52q-1 9 -1 147q0 427 2 453l280 -1l-2 -636q2 -72 47.5 -115t141.5 -40l437 8l-8 1261l264 -1z" />
    <glyph glyph-name="dong" unicode="&#x20ab;" horiz-adv-x="1388" 
d="M1254 1765v-284h-209l-21 -1138l-512 11q-98 2 -168.5 43t-115.5 113q-76 122 -76 322q0 94 30.5 175t90.5 140q58 58 142.5 90t191.5 34l186 2l7 208h-204v260l212 8l6 184h239l-3 -175zM732 1001l-74 2q-120 4 -179 -50q-45 -41 -50 -124q0 -38 9.5 -77.5t31.5 -72.5
q26 -38 68.5 -61t103.5 -25l88 -2zM156 -30v260l878 24v-284h-878z" />
    <glyph glyph-name="Euro" unicode="&#x20ac;" horiz-adv-x="1422" 
d="M135 710l7 -237q53 0 71 -1l17 -1l17 1h18q9 -109 30.5 -189t62.5 -138q60 -85 169 -126t284 -41q33 0 50 1q28 -4 60 -4q173 0 282 145q25 33 48 76l-247 129q-53 -81 -135 -81q-180 0 -252 82q-36 39 -56 148q115 5 186 5q19 0 30 -0.5t13 -0.5l95 218q-34 2 -79 4.5
l-63 3.5l-200 3v4v94q103 4 184 4l92 -1q14 0 17 1q5 1 33 1l71 -1l95 218q-13 0 -22 0.5t-15 1.5l-24 2l-35 2l-116 2l-262 10q18 110 59 164q25 34 59.5 49t74.5 18.5t111 3.5q107 0 163 -65l245 141q-17 38 -47.5 74t-74.5 64q-119 79 -278 79q-136 0 -230.5 -15.5
t-161.5 -52t-111 -99.5q-42 -60 -66 -148.5t-35 -215.5h-14q-25 -3 -41 -3l-28 1l-51 1l7 -237q53 0 71 -1l17 -1l17 1h11v-92h-3q-25 -3 -41 -3l-28 1z" />
    <glyph glyph-name="uni20AD" unicode="&#x20ad;" horiz-adv-x="1433" 
d="M777 710l527 -671l-343 -16l-444 527l-8 -529l-232 1l-10 688h-117v170l115 2l-11 707l233 2l1 -556l474 557l299 -2l-547 -698l544 12v-194h-481z" />
    <glyph glyph-name="uni20B1" unicode="&#x20b1;" horiz-adv-x="1404" 
d="M1332 1166h-176q3 -39 3 -80l173 3v-114h-186q-26 -115 -109 -197q-59 -58 -143.5 -90.5t-190.5 -33.5l-186 -2l-21 -660h-239l18 983h-191v90l193 4l2 97h-195v90l196 4l6 322l512 -11q98 -2 168.5 -43t115.5 -113q38 -63 56 -138l194 3v-114zM580 1266l241 5
q-57 58 -153 61l-88 2v-68zM873 1166h-294v-91l301 6q1 5 1 15q0 38 -8 70zM835 975h-256l-1 -51l74 -2q121 -3 179 50z" />
    <glyph glyph-name="uni20B2" unicode="&#x20b2;" horiz-adv-x="1389" 
d="M790 -201h-194v207q-103 2 -157 13q-62 13 -100.5 39t-64.5 67q-28 45 -63 93q-53 68 -67 241q-7 83 -7 175q0 36 2 96q0 55 -2 157l-1 75l-1 52q0 84 9 157q12 104 50 179.5t112 126.5q72 48 148 71q53 17 142 22v207h170l2 -207q149 -4 233 -33q54 -18 86.5 -32.5
t52.5 -29.5t32 -32.5t23 -42.5q20 -46 26 -102t8 -150l-291 -1q2 79 -26 115q-43 59 -141 62l13 -1042q13 2 38 9l47 20q38 30 60.5 62t22.5 59q0 51 -96 61l1 171l393 6l-7 -349q-39 -114 -110 -182q-63 -61 -139.5 -86t-181.5 -39q-16 -2 -25 -2zM509.5 297
q34.5 -17 86.5 -19v1036q-75 -14 -111 -51q-43 -46 -61.5 -124t-16.5 -193q0 -77 -1 -119l-1 -147q0 -128 11 -206t36 -121q23 -39 57.5 -56z" />
    <glyph glyph-name="uni20B4" unicode="&#x20b4;" horiz-adv-x="1630" 
d="M981 709.5q-50 -10.5 -132 -18.5q-73 -8 -130 -36l767 13v-194h-887l1 -18q1 -15 1 -38q0 -30 17.5 -64t48.5 -62q73 -68 162 -68q23 0 61 -2q10 -1 29 -1q40 0 67 12q20 9 39 32l18 23q14 14 26 50q4 14 9 41l248 -8q-4 -62 -8.5 -95.5t-13.5 -57.5q-9 -26 -28 -50
t-58 -63q-39 -37 -72 -57.5t-75 -31.5q-43 -11 -103.5 -15.5t-155.5 -4.5h-78q-25 0 -39.5 2.5t-29.5 9.5q-17 8 -49 21q-140 62 -218.5 179.5t-78.5 260.5v5h-161v170l199 4q9 20 21 39q60 96 181 158h-401v170l870 16q26 32 34 67q7 18 7 60q0 18 -1 28q-6 76 -30 117
q-13 21 -37 39t-55 30q-39 14 -84 14q-31 0 -60 -7q-12 -4 -29 -7q-66 -17 -113 -72q-29 -35 -42 -91h-252q21 114 49.5 181t76.5 105q48 37 127 56t218 31q162 2 258 -33t141 -101q27 -39 40.5 -88t18 -96.5t7.5 -124.5q0 -52 -9 -103l193 3v-194h-276q-12 -13 -25 -25
q-34 -33 -60 -52t-59 -33q-35 -15 -85 -25.5z" />
    <glyph glyph-name="uni20B5" unicode="&#x20b5;" horiz-adv-x="1325" 
d="M1150 234q-28 -86 -90 -136q-50 -41 -125 -62t-185 -29l2 -207h-194v207l-27 4q-144 20 -237 81q-54 35 -84 82.5t-45 126.5q-30 164 -30 365v162q0 143 3 231t15.5 167.5t39.5 140.5q41 93 128 144.5t237 61.5v205h170l3 -202q107 -1 177.5 -12.5t116.5 -39.5
q62 -39 93 -117.5t41 -216.5l-258 -6q-5 15 -7 28q-2 14 -4 21q-5 15 -10 26t-18 27q-18 25 -43.5 36t-84.5 12l12 -1036q41 0 71 12q31 13 51.5 46t34.5 99l273 -2q2 -133 -26 -219zM558 296v1017q-47 -17 -79 -49q-38 -40 -55 -116q-23 -103 -23 -250q0 -27 2 -79
q3 -82 3 -141q0 -43 2 -117q3 -121 28 -186q12 -31 30 -45.5t40 -23.5q21 -10 52 -10z" />
    <glyph glyph-name="uni20B8" unicode="&#x20b8;" horiz-adv-x="1375" 
d="M1213 1900l-10 -256l-1060 -4l8 258zM143 1309l8 258l1062 2l-10 -256l-398 4l-23 -1307l-244 3l-14 1308z" />
    <glyph glyph-name="uni20B9" unicode="&#x20b9;" horiz-adv-x="1276" 
d="M910 1313l217 5l-20 -264h-204q-22 -121 -70 -222.5t-114 -137.5q-24 -14 -81 -24q-53 -7 -106 -20l30 -42l43 -61q14 -18 31 -43q133 -185 346 -514l-310 1l-304 428q-11 13 -32 50l-37 61q-19 29 -36 54t-25 32q-7 3 -11 6t-7 5q-6 5 -9.5 6t-12.5 1q-6 1 -11.5 0.5
t-10.5 -0.5l-41 1l3 315v2l198 1l32 1q33 0 52 1q73 4 113 14q23 4 47 27t44 58h-475v240l497 12q-12 33 -23 52q-12 21 -33 40.5t-46 28.5q-39 14 -110 18h-285v2h-5l4 241l303 6h48l628 15l-20 -264h-222q11 -39 17 -76q6 -34 8 -56z" />
    <glyph glyph-name="uni20BA" unicode="&#x20ba;" horiz-adv-x="1558" 
d="M1384 568q-2 -60 -7 -115.5t-18 -134.5q-5 -27 -28.5 -73t-51.5 -82q-26 -33 -77.5 -67.5t-73.5 -41.5q-32 -10 -79.5 -19.5t-92.5 -17.5q-93 -17 -158 -17h-391v720l-51 -15q-36 -8 -67 -20q-21 -8 -48 -17l-66 228q26 8 68 23q12 5 32 10l132 43v126l-162 -50
q-29 -6 -67 -20l-48 -16l-66 227l23 8l45 16q12 5 32 10l243 77v356h284l3 -267l32 10q9 1 81 26.5t98 34.5l157 -178l-35 -13l-21 -10q-10 -3 -33 -12l-110 -37l-167 -62l2 -137q100 33 159 54q57 20 60 20q21 6 53.5 16.5t45.5 14.5l157 -178q-14 -5 -22 -7.5t-13 -5.5
q-6 -3 -11.5 -5t-9.5 -4q-10 -3 -33 -12l-190 -68l-194 -71l4 -493l29 4l34 4q28 5 60 12q74 17 102 32l33 18q20 12 38 31q45 47 70 139q17 61 29 138l3 42l282 80v-66q0 -73 1 -101t-1 -87z" />
    <glyph glyph-name="uni20BD" unicode="&#x20bd;" horiz-adv-x="1281" 
d="M1152.5 1259q18.5 -89 16.5 -189q-2 -86 -33 -161t-88 -131q-59 -58 -143.5 -90.5t-190.5 -33.5l-186 -2l-3 -92l257 9v-284h-266l-9 -293h-239l5 293h-149v260l154 6l2 105h-156v260l161 2l12 664l512 -11q98 -2 168.5 -43t115.5 -113q41 -67 59.5 -156zM892 1096
q0 38 -9.5 77.5t-31.5 72.5q-25 38 -68.5 61.5t-103.5 24.5l-88 2l-2 -410l74 -2q121 -3 179 50q45 41 50 124z" />
    <glyph glyph-name="uni20BE" unicode="&#x20be;" horiz-adv-x="1521" 
d="M1139 962q0 2 0.5 8.5t0.5 17.5q0 82 -26 177.5t-101 157.5l-2 -349l-178 -5q-1 15 -3 417q-5 1 -16 1q-32 0 -62 -3l-2 -410l-178 -5q-1 8 -1 167l-1 193q-41 -25 -71 -63q-41 -55 -59 -169q-18 -115 -18 -329q0 -38 13.5 -97t31.5 -113t29 -75q92 -176 208 -250l531 1
q7 1 11 0h20l-11 -256l-1120 -4l8 258l210 1q-73 60 -118 137q-3 6 -30 50t-47.5 136t-20.5 208q0 281 24 444.5t88 254.5q41 59 128 108.5t191 78.5v129l187 -7l-1 -92h33q14 0 42 -2v101l187 -7l-1 -120q77 -17 135 -43t85 -61q48 -62 78.5 -189.5t44.5 -245.5t14 -140z
" />
    <glyph glyph-name="trademark" unicode="&#x2122;" horiz-adv-x="1746" 
d="M996 2024l-181 -12l74 -606l181 8l-22 324l216 -268l156 279l32 -290l209 14l-74 603l-182 -15l-174 -312zM700 2004l-618 -64l10 -185l200 31l58 -412l175 12l-31 413l213 21z" />
    <glyph glyph-name="uniE000" unicode="&#xe000;" horiz-adv-x="2424" 
d="M2252.5 1260.5q14.5 25.5 14.5 54.5q0 28 -15 55q-16 26 -41.5 40.5t-54.5 14.5q-30 0 -57 -15t-41.5 -41t-14.5 -55q0 -6 2 -20h-508l-270 463q25 15 40 40t15 55q0 46 -32.5 78t-79.5 32t-79.5 -32t-32.5 -78q0 -28 13 -52t35 -39l-270 -467h-501q2 14 2 21
q0 29 -14.5 54.5t-41.5 40.5t-57 15q-29 0 -54.5 -14.5t-41.5 -40.5q-15 -25 -15 -55q0 -29 14.5 -54.5t41.5 -40.5t56 -15q22 0 47 10l259 -443l-253 -434q-25 14 -54 14q-28 0 -55 -15t-41.5 -41t-14.5 -55t15 -55q16 -26 41.5 -40.5t55.5 -14.5q29 0 56 15q28 16 43 44
t13 59h499l267 -456q-21 -16 -33 -39t-12 -49q0 -46 33 -78.5t79 -32.5t79 32.5t33 78.5q0 28 -13.5 52t-36.5 39l265 453h507q-2 -31 12.5 -59t42.5 -44q27 -15 56 -15q30 0 55.5 14.5t41.5 40.5q15 27 15 55q0 29 -14.5 54.5t-41.5 41.5q-25 15 -55 15q-31 0 -59 -17
l-255 437l261 446q26 -13 53 -13q30 0 55 15q27 15 41.5 40.5z" />
    <glyph glyph-name="uniE001" unicode="&#xe001;" horiz-adv-x="2969" 
d="M2209 1286q-7 76 -16 127.5t-31.5 114t-63.5 129.5q-158 -26 -296 -63.5t-286 -105.5q-123 -94 -272.5 -155.5t-369.5 -114.5q-161 -95 -324 -192.5t-300 -178.5l-96 -57q91 -53 208.5 -123.5t239.5 -142.5l272 -162q221 -53 370.5 -114.5t271.5 -155.5
q149 -68 287.5 -105.5t294.5 -62.5q41 67 63.5 129.5t31.5 114t16 127.5l5 46q77 16 155 28t100 15l56 -301q16 4 71 21t115.5 40t84.5 43q1 34 3 70.5t3 73.5q15 287 16 459q-1 171 -16 458q-1 37 -3 74t-3 72q-24 20 -84.5 43t-115.5 40t-71 21l-56 -302q-22 3 -99.5 15.5
t-155.5 28.5z" />
    <glyph glyph-name="uniE002" unicode="&#xe002;" horiz-adv-x="2588" 
d="M2264.5 1348q68.5 98 120.5 212.5t52 210.5q0 90 -51 148q-166 -2 -324 -33t-253 -62t-201 -70q-55 -61 -191 -227q-26 -32 -71.5 -87t-58.5 -68l27 73q8 21 36.5 98.5t31.5 95.5q-296 -133 -508 -388.5t-321 -529.5t-113 -462l20 27q128 174 308.5 385t449 438
t540.5 318q-181 -115 -451.5 -389t-509.5 -550t-275 -331q179 7 360 88.5t333.5 190t365.5 279.5q165 133 262 203.5t181 105.5q-23 -2 -146.5 3.5t-147.5 10.5q23 10 199 73q35 12 110 39t101 38q56 62 124.5 160zM434 239q-76 -84 -140 -190t-101.5 -198t-38.5 -131
q26 25 146.5 172t215.5 265q-44 50 -82 82z" />
    <glyph glyph-name="uniE003" unicode="&#xe003;" horiz-adv-x="2461" 
d="M1505 1936.5q107 43.5 222 43.5q114 0 221 -43.5t191 -127.5q84 -83 127.5 -190t43.5 -221t-43.5 -221t-127.5 -191t-191 -127.5t-222 -43.5q-80 0 -158 22t-147 64l-566 -564l187 -186l-175 -175l-187 186l-85 -84l334 -333l-175 -175l-334 333l-74 -74l-192 192
l1075 1072q-43 69 -64.5 146.5t-21.5 157.5q0 114 43.5 221t127.5 191t191 127.5zM2063.5 1265.5q27.5 66.5 27.5 137.5t-27.5 138t-79.5 119t-119 79.5t-138 27.5q-72 0 -139 -27.5t-119 -79.5t-79 -119t-27 -138t27 -137.5t79 -118.5t119 -79t139 -27q71 0 138 27t119 79
t79.5 118.5z" />
    <glyph glyph-name="uniE004" unicode="&#xe004;" horiz-adv-x="2672" 
d="M1716.5 1235q7.5 32 10.5 44q19 84 43.5 130t99 88t227.5 80l-53 9q-107 18 -170.5 45t-111.5 107.5t-63 240.5q-16 -104 -43 -183.5t-112 -149t-243 -69.5q159 -15 241.5 -69t107.5 -117t36 -149q5 -49 13 -68q10 29 17.5 61zM1064 1370q9 42 21.5 65t50 44t114.5 41
q-10 2 -26 4q-54 9 -86 22.5t-56 54.5t-31 121q-10 -55 -23 -93.5t-55.5 -73.5t-121.5 -35q79 -7 120.5 -34t54 -58.5t18.5 -74.5q4 -24 7 -35q8 25 13 52zM1224 1127q59 -39 77 -84t26 -107q4 -36 9 -49q11 32 20 75q13 60 31 93t71 63.5t162 57.5l-38 7q-75 12 -120.5 32
t-80 78t-45.5 172q-12 -75 -31 -131.5t-79.5 -107t-173.5 -50.5q113 -10 172 -49zM1239.5 861.5q-48.5 40.5 -136 74t-183.5 33.5q-189 0 -401 -131q1 -9 1 -29q0 -93 -30.5 -276.5t-74 -360.5t-78.5 -253q70 37 207 79.5t302 42.5q254 0 452 -129l-4 904q-6 5 -54.5 45.5z
M2249.5 218.5q-40.5 194.5 -68 383t-24.5 236.5q-212 131 -400 131q-123 0 -208 -42.5t-151 -97.5l-16 -13l-4 -904q198 130 459 130q217 0 460 -93l27 -9q-34 84 -74.5 278.5zM2502.5 -272q18.5 25 18.5 66q0 24 -6 51q-59 243 -132 490.5t-131 402.5l52 -242
q14 -64 64 -297.5t59 -265.5q3 -12 3 -21q0 -19 -10 -30t-22.5 -16t-12.5 -4h-2097q0 -1 -12.5 4t-22.5 16t-10 30q0 9 3 21q19 69 80.5 332t94.5 434q-28 -93 -69 -213t-80 -248t-111 -393q-7 -27 -7 -52q0 -40 19 -65t55 -29q30 -3 544 -3l566 1l566 -1q514 0 544 3
q36 4 54.5 29z" />
    <glyph glyph-name="uniE005" unicode="&#xe005;" horiz-adv-x="2428" 
d="M2120 714q2 2 21 19q26 21 44.5 43t32.5 63.5t14 104.5q-41 139 -200 230.5t-377 134.5t-444 43q-261 0 -497 -62.5t-378.5 -163.5t-139.5 -211q-1 -25 3.5 -48.5t26.5 -62t70 -90.5q168 110 394 173t544 63q554 0 886 -236zM1645.5 43.5q239.5 43.5 412.5 144t209 261.5
v328q-33 -67 -149.5 -154.5t-344.5 -156.5t-562 -69q-262 0 -472 46t-357 131t-227 203l-1 -235q0 -70 1 -82q0 -115 132.5 -221.5t361.5 -172.5t503 -66q254 0 493.5 43.5z" />
    <glyph glyph-name="uniE006" unicode="&#xe006;" horiz-adv-x="1654" 
d="M1503 -58q0 26 -7 49t-19 50q-15 35 -124 72t-282 83q-32 8 -57 15q38 15 64 55.5t26 88.5q0 34 -16 66.5t-50 59.5q21 0 94.5 15t139.5 35t79 35q22 42 36 80t19 89q-19 40 -119 62t-194 31l8 414q7 320 7 372l-18 13.5t-33 21t-35 12.5q-72 6 -141 7v101l47 84l110 39
l-63 85l-125 -54l-87 -85l-12 -172l-207 2q-1 -124 -3 -468t-5 -380q-25 -2 -89.5 -19.5t-118 -38t-59.5 -34.5q-3 -7 -3 -18q0 -27 13 -70.5t29 -81.5q50 -36 132 -54.5t190 -30.5q-33 -28 -49 -62.5t-16 -71.5q0 -43 22 -79t59 -49q-27 -16 -72 -30.5t-114 -32.5
q-119 -33 -186.5 -59t-90.5 -63q-33 -52 -33 -103q0 -64 46 -108.5t105 -74.5q92 -45 218 -67t267 -22q131 0 257.5 17t222.5 46.5t140 64.5q97 78 97 163z" />
    <glyph glyph-name="uniE007" unicode="&#xe007;" horiz-adv-x="2926" 
d="M1959 1438q45 26 71.5 70t26.5 97q0 52 -26.5 96t-71.5 70t-99 26t-99.5 -26t-72 -70t-26.5 -96q0 -53 26.5 -97t72 -70t99.5 -26t99 26zM1420 1368q45 26 71.5 70t26.5 97q0 52 -26.5 96t-71.5 70t-99 26t-99.5 -26t-72 -70t-26.5 -96q0 -53 26.5 -97t72 -70t99.5 -26
t99 26zM2425.5 1263q45.5 26 72 70.5t26.5 96.5t-26.5 96t-72 70t-99.5 26t-99 -26t-71.5 -70t-26.5 -96t26.5 -96.5t71.5 -70.5t99 -26t99.5 26zM1204.5 1211q-26.5 44 -71.5 70t-99 26t-99.5 -26t-72 -70t-26.5 -96t26.5 -96t72 -70t99.5 -26t99 26t71.5 70t26.5 96
t-26.5 96zM2641 843q45 26 71.5 70.5t26.5 96.5t-26.5 96t-71.5 70t-99 26t-99.5 -26t-72 -70t-26.5 -96t26.5 -96.5t72 -70.5t99.5 -26t99 26zM169 130q15 -25 22.5 -32.5t28.5 -21.5l42 -28q170 229 645 503l5 -7q-24 -22 -118 -105q-168 -147 -282.5 -258t-177.5 -203
q21 -33 42 -49t54 -31t47 -25q92 158 194 282.5t234 265.5q21 24 37.5 41.5t28.5 30.5q2 0 2 -1q-49 -74 -120 -177q-125 -183 -199.5 -297.5t-104.5 -179.5q43 -32 79.5 -45.5t76.5 -19.5q5 -1 11.5 -2t12.5 -3q39 124 139.5 319t208.5 381q52 2 95.5 28t69 69.5t25.5 94.5
q0 52 -26.5 96.5t-71.5 70.5t-99 26t-99.5 -26t-72 -70.5t-26.5 -96.5q0 -19 5 -41q-225 -81 -425 -196t-298 -270zM2406.5 424q26.5 -44 72 -70t99.5 -26t99 26t71.5 70t26.5 96t-26.5 96t-71.5 70t-99 26t-99.5 -26t-72 -70t-26.5 -96t26.5 -96zM1492 144q45 26 71.5 70
t26.5 96t-26.5 96.5t-71.5 70.5t-99 26t-99.5 -26t-72 -70.5t-26.5 -96.5t26.5 -96t72 -70t99.5 -26t99 26zM2227 267q-45 -26 -71.5 -70t-26.5 -97q0 -52 26.5 -96t71.5 -70t99 -26t99.5 26t72 70t26.5 96q0 53 -26.5 97t-72 70t-99.5 26t-99 -26zM1724.5 232
q-45.5 -26 -72 -70.5t-26.5 -96.5t26.5 -96t72 -70t99.5 -26t99 26t71.5 70t26.5 96t-26.5 96.5t-71.5 70.5t-99 26t-99.5 -26z" />
    <glyph glyph-name="uniE008" unicode="&#xe008;" horiz-adv-x="1700" 
d="M1220.5 -47q100.5 104 193.5 214t135 175v777q0 73 -11 102.5t-36 36t-89 6.5h-334q4 53 4 123q0 40 -2 124q-2 90 -2 137q-6 54 -40 95.5t-84.5 64t-105.5 22.5q-80 0 -142.5 -48t-82.5 -142q0 -147 3 -246q1 -14 1 -35q0 -24 -4 -95h-343l-40 1q-29 0 -47.5 -7.5
t-29 -32.5t-10.5 -74v-801q46 -72 135.5 -190.5t205 -236t217.5 -166.5q42 -20 77 -30.5t70 -10.5q92 0 196 82q65 51 165.5 155zM1150 326q0 -48 -37.5 -72t-89.5 -24q-19 0 -75 2q-102 6 -268 6q-64 0 -94 28t-30 70q0 28 13 55.5t34 45t45 17.5l207 -1q70 0 80 1v185
q-10 6 -39 19q-71 33 -134.5 75.5t-137.5 129.5q-29 35 -29 66q0 37 36 61t80 24q23 0 42.5 -8t30.5 -23q13 -18 57 -48t93 -56t73 -32q7 -2 49.5 -11t68 -37t25.5 -72v-401z" />
    <glyph glyph-name="uniE009" unicode="&#xe009;" horiz-adv-x="2503" 
d="M847 1533h181v259q0 38 -26.5 64.5t-64.5 26.5q-37 0 -63.5 -26.5t-26.5 -64.5v-259zM1165 1533h182v259q0 38 -26.5 64.5t-64.5 26.5q-37 0 -64 -26.5t-27 -64.5v-259zM1478 1533h181v259q0 38 -26.5 64.5t-64.5 26.5q-37 0 -63.5 -26.5t-26.5 -64.5v-259zM1777.5 204
q34.5 20 55 54.5t20.5 75.5v899q0 41 -20.5 75.5t-55 54.5t-74.5 20h-900q-41 0 -75.5 -20t-54.5 -54.5t-20 -75.5v-899q0 -41 20 -75.5t54.5 -54.5t75.5 -20h900q40 0 74.5 20zM180.5 1034.5q26.5 -26.5 63.5 -26.5h259v181h-259q-37 0 -63.5 -26t-26.5 -64t26.5 -64.5z
M2325.5 1034.5q26.5 26.5 26.5 64.5t-26 64t-64 26h-253v-181h253q37 0 63.5 26.5zM180.5 716.5q26.5 -26.5 63.5 -26.5h259v181h-259q-37 0 -63.5 -26.5t-26.5 -64.5q0 -37 26.5 -63.5zM2326 716.5q26 26.5 26 63.5q0 38 -26.5 64.5t-63.5 26.5h-253v-181h253q38 0 64 26.5
zM180.5 403.5q26.5 -26.5 63.5 -26.5h259v181h-259q-37 0 -63.5 -26t-26.5 -64t26.5 -64.5zM2326 532q-26 26 -64 26h-253v-181h253q37 0 63.5 26.5t26.5 64.5t-26 64zM1028 28h-181v-253q0 -38 26.5 -64.5t63.5 -26.5q38 0 64.5 26.5t26.5 64.5v253zM1347 28h-182v-253
q0 -38 27 -64.5t64 -26.5q38 0 64.5 26.5t26.5 64.5v253zM1659 28h-181v-253q0 -38 26.5 -64.5t63.5 -26.5q38 0 64.5 26.5t26.5 64.5v253z" />
    <glyph glyph-name="uniE010" unicode="&#xe010;" horiz-adv-x="2462" 
d="M2242 803q69 91 69 171q0 60 -36 98t-95 38q-60 0 -131 -44t-144 -135q-24 -31 -54 -47t-56 -16q-22 0 -36 11.5t-14 32.5q0 38 45 90q108 127 159 250t51 226q0 60 -16.5 106t-46 71t-66.5 25q-53 0 -111 -54.5t-112 -173t-92 -298.5q-10 -49 -29 -85t-40.5 -54.5
t-40.5 -18.5q-17 0 -27.5 16t-10.5 47q0 52 31 132q63 161 63 316q0 124 -38.5 222.5t-98.5 153t-121 54.5q-46 0 -83.5 -33.5t-59.5 -104t-22 -176.5q0 -178 63 -419q8 -29 8 -60q0 -49 -22.5 -78t-50.5 -29q-24 0 -41 23.5t-16 67.5q3 181 -34.5 305t-98.5 184t-127 60
q-45 0 -83.5 -29t-61 -84t-22.5 -130q0 -158 100 -351q34 -66 52 -127.5t18 -109.5q0 -44 -16 -69.5t-47 -25.5q-43 0 -101 45q-87 67 -162 98t-133 31q-70 0 -110 -39.5t-40 -100.5q0 -49 27 -101t82.5 -98t135.5 -75q156 -57 281 -184.5t207.5 -276t124.5 -281.5h411
q33 157 130 249q29 28 61.5 54t41.5 33q62 48 97.5 84.5t62.5 91.5q26 53 52 133q20 60 36 94.5t46.5 68t81.5 60.5q141 75 210 166z" />
    <glyph glyph-name="uniE011" unicode="&#xe011;" horiz-adv-x="2503" 
d="M1569 -64h454v1229h-678v203q68 24 110 83t42 132q0 62 -31 114.5t-84 83.5t-116 31q-62 0 -115 -31t-84 -83.5t-31 -114.5q0 -75 44 -134.5t114 -82.5v-201h-685v-1229h455v-196h605v196zM1059.5 941.5q46.5 -27.5 74 -74t27.5 -101.5t-27.5 -101.5t-74 -74
t-102.5 -27.5t-102.5 27.5t-74 74t-27.5 101.5t27.5 101.5t74 74t102.5 27.5t102.5 -27.5zM1758.5 664.5q-27.5 -46.5 -74 -74t-102.5 -27.5q-55 0 -102 27.5t-74.5 74t-27.5 101.5t27.5 101.5t74.5 74t102 27.5q56 0 102.5 -27.5t74 -74t27.5 -101.5t-27.5 -101.5zM154 635
v-438h257v438h-257zM2096 197h256v438h-256v-438zM1628 86h-724v262h724v-262z" />
    <glyph glyph-name="uniE012" unicode="&#xe012;" horiz-adv-x="1996" 
d="M852.5 -283q55.5 -47 115.5 -47q49 0 92 30.5t68.5 87t25.5 130.5q0 89 -38 185q-21 54 -21 125q0 170 102.5 413t247.5 482q57 93 102.5 153t78 92t73.5 66q42 36 69 65t57 81q34 58 34 117q0 49 -22 90t-56 64.5t-67 23.5q-21 0 -40 -11q-37 -23 -64 -23
q-24 0 -43.5 19t-37.5 60q-15 32 -53.5 54t-84.5 22q-49 0 -92 -29.5t-70.5 -98.5t-27.5 -179q0 -24 1 -37q9 -216 -139.5 -446.5t-306 -383.5t-282.5 -255q-93 -76 -167.5 -144.5t-153.5 -182t-79 -221.5q0 -144 161 -240q95 -56 181 -56q66 0 119 26t114 71q33 24 52 35.5
t35 11.5q14 0 24 -9q37 -94 92.5 -141z" />
    <glyph glyph-name="uniE013" unicode="&#xe013;" horiz-adv-x="2504" 
d="M2343 1450.5q72 67.5 88 83.5q-75 68 -282.5 256t-225.5 207l-153 -157q21 -23 80 -88t73 -78q-23 -32 -109 -108q-49 -47 -52 -50q-61 64 -295 319l-44 48q-11 -11 -76 -128q-37 -64 -43 -73q36 -43 152 -166q-61 -40 -259.5 -214t-368.5 -353.5t-193 -270.5
q-1 -9 -4.5 -41t-7 -79t-3.5 -92q0 -87 15 -129q-71 -73 -238.5 -245.5t-278.5 -287.5q-12 -31 -12 -57q0 -44 31 -60t71 -16q11 0 18.5 1t9.5 1q14 15 175 165q104 97 214 201.5t154 149.5q8 -1 36.5 -5t71.5 -7.5t85 -3.5q84 0 129 16q85 31 259.5 198.5t342.5 363.5
t220 285q52 -58 161 -166q23 18 101 64q35 21 65.5 40.5t36.5 26.5q-18 21 -122 120t-120 114q-113 106 -122 115q39 44 161 166q26 -30 100 -98q55 -52 61 -59q26 24 98 91.5zM1482 1018l-102 -104l-178 183q25 23 71 72l31 33zM1044 933l31 33l178 -183
q-12 -13 -43.5 -45.5t-58.5 -59.5l-178 183q25 23 71 72zM813 695l33 35l178 -183l-101 -105l-178 183q19 17 68 70z" />
    <glyph glyph-name="uniE014" unicode="&#xe014;" horiz-adv-x="1774" 
d="M907 238.5q305 186.5 453.5 334.5t178.5 204l-168 544l-119 385q-98 -183 -285.5 -305t-340 -175t-245.5 -74l-35 -188q-35 -189 -112 -606t-80 -444q448 138 753 324.5zM1224 1101l-64 -127l74 -49l-58 -32l-49 31l-48 -84l-65 -33l82 130l-85 48l60 32l53 -36l46 91z
M948 949l-63 -126l74 -50l-58 -32l-49 31l-49 -84l-64 -33l81 130l-84 49l60 32l53 -37l46 91zM673 797l-63 -126l74 -50l-58 -31l-49 30l-49 -84l-64 -33l81 130l-84 49l60 32l53 -37l46 91zM1307.5 417q-136.5 -106 -309.5 -209.5t-354 -187.5l26 8q148 47 291.5 98.5
t319 137t303.5 188.5q-8 17 -30 75q-28 72 -34 87q-76 -91 -212.5 -197zM1153 124.5q-258 -104.5 -554 -180.5l33 3q253 22 520.5 64.5t475.5 130.5q-3 18 -17.5 56.5t-31.5 78.5l-23 55q-145 -103 -403 -207.5zM1589 41q-198 -91 -1051 -148l-63 -5q2 0 8.5 -0.5t21.5 -0.5
q128 0 622 12t506 15q-25 78 -44 127z" />
    <glyph glyph-name="uniE015" unicode="&#xe015;" horiz-adv-x="2140" 
d="M1158 1718q33 19 52.5 52t19.5 72t-19.5 72t-52.5 52t-72 19t-72 -19t-52.5 -52t-19.5 -72t19.5 -72t52.5 -52t72 -19t72 19zM1989 828h-153q5 303 13 369q-44 3 -538 3q-12 77 -59 133.5t-114 73.5v243h-105v-245q-64 -19 -109.5 -75t-56.5 -131h-182q-281 0 -383 3
q15 -90 20 -374h-168v-440h169q-5 -310 -21 -418q63 -10 490 -10q284 0 635.5 4t421.5 6q-11 124 -15 418h155v440zM1049 757.5q16 -35.5 16 -77.5q0 -40 -14 -80t-41 -75q-37 -48 -87.5 -74.5t-101.5 -26.5q-56 0 -97 31q-31 24 -47 60t-16 78q0 39 14 79t41 75
q37 48 87.5 74.5t101.5 26.5q56 0 97 -31q31 -24 47 -59.5zM1482 672q14 -40 14 -79q0 -42 -16 -78t-47 -60q-41 -31 -97 -31q-51 0 -101.5 26.5t-87.5 74.5q-27 35 -41 75.5t-14 79.5q0 42 16 77.5t47 59.5q41 31 97 31q51 0 101.5 -26.5t87.5 -74.5q27 -35 41 -75z
M1172.5 338q38.5 -16 62 -39.5t23.5 -42.5q0 -27 -53.5 -41.5t-125.5 -14.5q-166 0 -166 49q0 20 26 45t67.5 42.5t84.5 17.5t81.5 -16z" />
    <glyph glyph-name="uniE016" unicode="&#xe016;" horiz-adv-x="2051" 
d="M1460 21.5q200 121.5 317 328.5t117 452t-117 452t-317 328.5t-436 121.5q-237 0 -437 -121.5t-317 -328.5t-117 -452t117 -452t317 -328.5t437 -121.5q236 0 436 121.5zM1515 645q0 -70 -31 -127t-88 -85q-43 -21 -90 -21q-72 0 -138 44.5t-104 120.5q-29 61 -32 123
q-9 -71 -51 -135q-43 -63 -105 -98t-127 -35t-116 35q-45 30 -69 80t-24 108q0 44 14 88.5t41 84.5q43 64 105 99t127 35q63 0 116 -35q41 -28 64 -72t27 -97q8 58 38 103.5t78 68.5q44 21 91 21q72 0 137.5 -44.5t103.5 -121.5q33 -66 33 -140zM902.5 660q8.5 9 8.5 21
q0 13 -8.5 21.5t-21.5 8.5q-12 0 -21 -8.5t-9 -21.5q0 -12 9 -21t21 -9q13 0 21.5 9zM1190 649q9 9 9 21q0 13 -9 21.5t-21 8.5q-13 0 -21.5 -8.5t-8.5 -21.5q0 -12 8.5 -21t21.5 -9q12 0 21 9zM899 142q47 13 97 13q49 0 91.5 -11t69.5 -29v-31q-27 18 -69.5 29t-91.5 11
q-53 0 -97 -12v30z" />
    <glyph glyph-name="uniE017" unicode="&#xe017;" horiz-adv-x="2109" 
d="M1223 1445l-1 3q0 7 6 10t13 0q36 -24 44 -67q2 -6 8 -9t10 1q16 16 16 48q0 8 -1 12q-2 18 -2 29q0 21 7 32q5 6 11 6q7 0 10 -6q25 -49 49 -128l12 -47q12 -49 22.5 -80.5t27.5 -58.5q21 -36 57 -59.5t74 -23.5q18 0 34 6q1 3 1 9q0 11 -8 22.5t-22 25.5
q-35 35 -50.5 80.5t-28.5 117.5l-6 31q-32 148 -103 262q-12 25 -31 39q-5 5 -41 9.5t-79 4.5q-50 0 -91.5 -7t-63.5 -22q-23 -17 -52 -54q-52 -70 -96 -148t-97 -187q-117 -247 -232 -539v-0.5t-1 -0.5l-13 -23q-20 -26 -50 -37q-187 -57 -296 -151t-109 -205
q0 -117 121.5 -215.5t329 -156.5t451.5 -58t451.5 58t329 156.5t121.5 215.5q0 105 -99 195.5t-270 149.5q-21 8 -37.5 24.5t-24.5 37.5q-16 44 -37.5 87t-54.5 103q-32 58 -57 109q-91 177 -152 399zM1157 1236l69 11l-35 -60l32 -62l-68 15l-49 -50l-7 70l-62 31l63 28
l11 69zM884 1063l114 -115l158 34l-74 -144l82 -139l-160 26l-108 -121l-24 160l-149 65l145 73zM760.5 532.5q108.5 -37.5 248.5 -37.5q31 0 47 1q117 5 217 36t161 79.5t67 102.5q33 -36 33 -76q0 -56 -62 -103.5t-167.5 -75t-230.5 -27.5q-122 0 -226 26.5t-167 72
t-67 99.5q38 -60 146.5 -97.5z" />
    <glyph glyph-name="uniE018" unicode="&#xe018;" horiz-adv-x="1988" 
d="M1589.5 223q38.5 123 104.5 305q44 118 74.5 208t58.5 189q-51 187 -160 372.5t-281 347.5t-398 265q-226 -103 -397.5 -264.5t-280.5 -347.5t-160 -373q27 -99 57.5 -188t75.5 -211q65 -179 104 -302.5t70 -275.5q95 28 232 48t299 29q163 -9 300 -29t232 -48
q31 152 69.5 275zM1398 1196v-150h-311v-674h-197v674h-311v150l311 3v403h197v-403zM1247.5 240q111.5 -14 225.5 -51q-4 -14 -13 -56q-4 -14 -7.5 -30t-8.5 -33q-157 46 -456 57q-299 -11 -455 -57q-5 16 -21 84l-8 35q121 40 239 52.5t265 12.5q128 0 239.5 -14z" />
    <glyph glyph-name="uniE019" unicode="&#xe019;" horiz-adv-x="2747" 
d="M1041.5 549q155.5 -22 320.5 -22q178 0 339 24t265 65q-11 85 -63.5 222.5t-113.5 262t-85 154.5q-60 73 -134 73q-40 0 -83 -21l-22 -11q-33 -18 -52 -25t-40 -7q-22 0 -50.5 10t-74.5 33q-43 22 -86 22q-50 0 -91 -29t-70 -75q-36 -58 -89 -193.5t-95.5 -257.5
t-54.5 -158q124 -45 279.5 -67zM1477 673q-12 12 -12 29q0 10 4 17l-109 61l-97 -55q7 -10 7 -23q0 -17 -12 -29t-29 -12t-29 12t-12 29q0 16 12 28t29 12q9 0 16 -3l18 107l-77 82q-12 -15 -32 -15q-17 0 -29 12t-12 29t12 29t29 12q15 0 26 -9t14 -23l106 17l49 96
q-9 5 -14 14t-5 20q0 17 12.5 29t28.5 12q17 0 29 -12t12 -29q0 -13 -7 -23t-18 -15l48 -99l113 -12q2 14 13.5 24t26.5 10q17 0 29 -12t12 -29t-12 -29t-29 -12q-11 0 -20.5 5.5t-14.5 15.5l-81 -80l18 -115q8 3 16 3q17 0 29 -11.5t12 -28.5t-12 -29t-29 -12t-29 12z
M2565 705q-21 29 -70 29q-57 0 -148 -44q-241 -115 -482 -175t-489 -60q-503 0 -1033 258q-52 26 -100 26q-42 0 -67.5 -26t-25.5 -86q0 -27 6 -63q20 -111 142 -241t275 -223.5t249 -99.5q107 62 247.5 91.5t292.5 29.5q177 0 333 -34.5t226 -86.5q84 5 247.5 111.5
t290.5 251t127 266.5q0 47 -21 76z" />
    <glyph glyph-name="uniE020" unicode="&#xe020;" horiz-adv-x="2310" 
d="M1468.5 238.5q206.5 274.5 396 579.5t284.5 529q-27 14 -202 112l-178 100l-6 -11q-34 -60 -92.5 -93t-124.5 -33q-63 0 -122 33q-59 34 -91.5 91.5t-32.5 123.5q0 65 33 125q-290 151 -405 187q-53 -150 -195.5 -473t-295 -630t-243.5 -437q-40 -59 -40 -126
q0 -48 18.5 -87.5t46.5 -55.5l116 -68q34 30 76 45.5t87 15.5q66 0 124 -33q59 -34 91.5 -91.5t32.5 -123.5q0 -28 -6 -53l139 -83q43 -24 89 -24q79 0 155 73q139 133 345.5 407.5zM776 1395l93 -52l-45 -76l-92 52zM956 1293l93 -52l-45 -77l-93 53zM1136 1191l92 -52
l-44 -77l-93 53zM1315 1089l93 -53l-45 -76l-92 53zM1495 987l92 -53l-44 -76l-93 53zM656 511q0 103 28 196.5t62.5 161.5t34.5 62q0 -4 25 -31.5t66 -51t94 -23.5q76 0 157 57q-1 -10 -1 -29q0 -104 43.5 -157.5t98 -71t54.5 -11.5q0 -16 -66.5 -117t-187.5 -188t-291 -87
q-27 0 -41 1q-76 132 -76 289zM1666 889l92 -52l-44 -77l-93 53z" />
    <glyph glyph-name="uniE021" unicode="&#xe021;" horiz-adv-x="2488" 
d="M521 -140l1806 482l-185 1232l-1992 -579zM2008 1372l168 -950l-1584 -437l-271 946zM2044 494l-121 744l-486 -126q103 -38 179 -120.5t105 -192.5q16 -58 16 -119q0 -84 -30 -162.5t-85 -141.5zM1253 870q46 0 83 -57l82 62q-52 88 -147 88q-20 0 -31 -2l-23 89
l-67 -18l24 -89q-71 -30 -94 -86q-13 -36 -13 -66q0 -25 7 -47q12 -44 40 -72q25 -26 63 -38q31 -9 96 -14q66 -4 88 -14q21 -9 29 -36q3 -9 3 -19q0 -15 -9 -30q-12 -23 -50 -34q-15 -4 -31 -4q-57 0 -87 65l-96 -55q58 -109 164 -109q19 0 38 3l23 -88l67 18l-24 88
q76 30 106 87q18 36 18 75q0 27 -7 51q-12 44 -41 73q-29 27 -68 38q-48 11 -104 15q-63 6 -79 14q-19 8 -27 34q-2 10 -2 16q0 14 8 30q14 22 41 29q10 3 20 3zM950.5 360.5q-81.5 84.5 -112.5 200.5q-16 58 -16 120q0 83 29 160t83 140l-462 -120l200 -751l470 131
q-110 35 -191.5 119.5z" />
    <glyph glyph-name="uniE022" unicode="&#xe022;" horiz-adv-x="2209" 
d="M1578 1557.5q218 -129.5 346 -350t128 -481.5t-127.5 -482t-346 -350t-476.5 -129t-476 129t-345.5 350t-127.5 482t127.5 481.5t345.5 350t476 129.5t476 -129.5zM1531.5 -18q195.5 116 310 314t114.5 432t-114.5 432.5t-310 314.5t-426.5 116t-427 -116t-310.5 -314.5
t-114.5 -432.5t114.5 -432t310.5 -314t427 -116t426.5 116zM1488.5 1373.5q175.5 -104.5 279 -283t103.5 -388.5t-103.5 -388.5t-279 -283.5t-383.5 -105t-384 104.5t-279.5 283t-103.5 389.5q0 210 103.5 388.5t279.5 283t384 104.5t383.5 -104.5zM1246 998.5
q22 -17.5 22 -54.5v-91q0 -37 -72 -77h385q0 -1 -22 10t-39.5 28t-17.5 39v163q0 62 -35.5 111t-90 75.5t-106.5 26.5h-327q-100 0 -167.5 -51t-68.5 -162v-193v-62q0 -39 -21 -57.5t-73 -28.5q48 -11 71 -28.5t23 -52.5v-240q0 -54 33 -103t88 -79.5t118 -30.5h322
q56 0 109.5 21t89 68.5t35.5 123.5v120v8v1q1 29 22.5 50t56.5 30h-385q5 -3 22.5 -15t33.5 -30t16 -36v-49q0 -39 -22.5 -58.5t-69.5 -20.5l-73 -1l-63 1q-95 2 -94 87v170q-1 32 21.5 44.5t72.5 19.5q-93 14 -94 68v51v144q0 46 21.5 62t72.5 16h136q48 0 70 -17.5z" />
    <glyph glyph-name="uniE023" unicode="&#xe023;" horiz-adv-x="2232" 
d="M153 997q0 -31 7.5 -58.5t21.5 -59.5q13 -35 19.5 -57.5t6.5 -48.5q0 -41 -7.5 -73.5t-22.5 -72.5q-12 -36 -18 -59.5t-6 -51.5q0 -23 4 -44q8 -43 27 -73.5t41.5 -50t59.5 -44.5q34 -23 53.5 -39t35.5 -39q17 -24 25.5 -45.5t16.5 -51.5q12 -48 31.5 -86t71.5 -91
q28 -29 70 -37.5t117 -11.5q71 -3 114 -10t77 -31q30 -21 60 -46q39 -33 69.5 -48t86.5 -18q49 -2 81.5 14t75.5 50q32 26 57.5 42.5t58.5 27.5q49 17 117 17h45q45 0 80.5 8.5t74.5 36.5q43 31 61 66.5t34 94.5q14 53 29 87t48 65q22 21 74 53q35 21 57 37.5t39.5 42.5
t24.5 63q4 21 4 47q0 33 -7 64.5t-20 72.5q-14 48 -20.5 76.5t-6.5 61.5q0 27 6.5 51t19.5 61q14 40 20.5 64.5t6.5 54.5q0 29 -9 63q-11 39 -40.5 70t-83.5 73q-38 30 -62 51.5t-42 45.5q-21 27 -30.5 54.5t-17.5 65.5q-8 36 -15.5 57t-24 44t-45.5 43q-36 24 -81 31
t-115 9q-51 2 -77.5 4.5t-49.5 10.5q-27 9 -47.5 24t-46.5 39q-28 24 -48 38t-49 24t-68 10q-45 0 -87.5 -20.5t-104.5 -60.5q-55 -36 -82 -48q-50 -22 -113 -22q-14 0 -42 2l-39 1q-35 0 -64.5 -9t-58.5 -33q-41 -34 -61.5 -72.5t-41.5 -98.5q-12 -34 -22.5 -58t-24.5 -46
q-14 -21 -34 -38t-53 -39q-52 -35 -83.5 -67.5t-46.5 -86.5q-11 -37 -11 -72z" />
    <glyph glyph-name="uniE024" unicode="&#xe024;" horiz-adv-x="2209" 
d="M2025 1172l57 126l-979 727l-980 -727l58 -126l922 683zM1818 1159l-715 520l-716 -520v-1159h578v577h275v-577h578v1159zM813 1144v-259h-230v259h230zM990 1144h225v-259h-225v259zM1392 885v259h230v-259h-230zM813 572v-259h-230v259h230zM1392 313v259h230v-259
h-230z" />
    <glyph glyph-name="uniE025" unicode="&#xe025;" horiz-adv-x="2315" 
d="M2126.5 1089.5q27.5 47.5 27.5 92.5q0 65 -70 115q-37 27 -302 212q-324 228 -364 257q-48 35 -80 51.5t-63 16.5q-33 0 -68 -21.5t-78 -68.5q-148 -164 -451.5 -485t-417.5 -431q-57 -55 -83.5 -93.5t-26.5 -73.5q0 -28 16 -57.5t50 -66.5q68 -74 268.5 -226.5
t331.5 -242.5q123 -85 215 -85q65 0 119 40q77 56 265.5 248.5t376 400t248.5 290.5q59 80 86.5 127.5zM1567.5 1350.5q210.5 -138.5 316.5 -210.5q-46 -77 -210.5 -271.5t-326 -356.5t-219.5 -176q-25 0 -179.5 100.5t-295.5 209t-148 137.5q183 189 425 445t309 337
q118 -76 328.5 -214.5zM1550 1543l178 -135l-44 -44l-178 134zM593.5 307.5q-30.5 16.5 -48.5 45t-18 61.5t18 61.5t48.5 45t66.5 16.5t67 -16.5t49 -45t18 -61.5t-18 -61.5t-49 -45t-67 -16.5t-66.5 16.5z" />
    <glyph glyph-name="uniE026" unicode="&#xe026;" horiz-adv-x="2638" 
d="M1981 1808q55 -54 55 -141q0 -9 -2 -29l-197 -1163q0 30 -2.5 48t-11.5 43l-383 1100q-23 70 -74 108t-117 38q-42 0 -83 -14l-448 -150l4 114q4 58 34.5 102t79.5 68t108 24q10 0 30 -2l859 -82q93 -10 148 -64zM2425.5 1572q30.5 -45 30.5 -99q0 -53 -28 -111
q0 -8 -74 -179t-196.5 -409t-281.5 -483q36 211 115 681.5t117 698.5q1 3 1 10q0 28 -13 54t-14 29l249 -119q64 -28 94.5 -73zM1860 167q0 -76 -45.5 -138.5t-121.5 -86.5l-734 -243q-33 -11 -74 -11q-77 0 -141 44.5t-88 118.5l-516 1312q-12 36 -12 71q0 70 44.5 125.5
t120.5 79.5l820 275q45 14 84 14q68 0 119 -38t75 -108l457 -1343q12 -36 12 -72z" />
    <glyph glyph-name="A.96" 
d="M434 175l520 -31l33 -145l322 -13l-371 1590l-236 4l-636 -1544l299 -17zM780 1080l135 -672l-387 25z" />
    <glyph glyph-name="B.97" horiz-adv-x="1346" 
d="M125 1576l35 -1602l565 17q49 0 203 24q29 5 40 10q10 5 14 9t9 12q4 6 19 16q91 56 140.5 143t49.5 197q0 96 -20.5 180t-56.5 143t-83 83q29 33 48 52l20 21q6 5 9 9l13 20q18 26 24 71.5t6 108.5q0 22 -2 66q-3 45 -3 78q-4 148 -125 256q-32 29 -58 47.5t-54 31.5
q-30 13 -69 19t-93 6zM406 923l-13 417l297 8q96 3 141.5 -40t47.5 -115v-94q0 -100 -69 -142q-38 -24 -112 -26zM412 218l-4 412l278 16q56 2 104.5 -17t85.5 -52q33 -31 52.5 -68t19.5 -68q0 -37 -15.5 -73t-45.5 -66q-32 -32 -78 -51t-102 -21z" />
    <glyph glyph-name="C.98" horiz-adv-x="1325" 
d="M903 448q-14 -67 -34 -100t-52 -45q-28 -12 -68 -12l-118 1q-28 0 -56 -2q-7 -1 -20 -1q-29 0 -49 10q-22 9 -40 23.5t-30 45.5q-23 60 -28 186q-2 74 -2 117q0 59 -3 141q-2 52 -2 78q0 140 23 251q17 76 55 116q40 38 97 55q52 15 151 15q64 0 90.5 -11t44.5 -37
q13 -16 18 -27t10 -26q2 -7 4 -21q2 -13 7 -28l258 6q-10 138 -41 216.5t-93 117.5q-48 30 -121 41.5t-186 11.5q-32 0 -110 -2q-174 -4 -272 -56t-143 -152q-25 -56 -37 -129.5t-15.5 -152.5t-4.5 -210q-1 -15 -1 -47v-162q0 -201 30 -365q15 -79 45 -127t84 -82
q96 -63 237 -81q63 -9 118 -9q153 2 251.5 24t159.5 72q62 50 90 136t26 219z" />
    <glyph glyph-name="D.99" horiz-adv-x="1317" 
d="M166 1586v-1606h391q65 0 158 17q45 8 92.5 17.5t79.5 19.5q96 27 161 106q28 36 46 77t24 81q20 150 25 250q2 59 1 87t-1 101v170q0 204 -39 361q-19 74 -54.5 124t-86.5 94q-83 72 -221 91q-69 10 -171 10h-405zM453 1281q29 3 81 3q45 0 69 -2q47 -3 85 -15t55 -31
q22 -28 35.5 -50.5t24.5 -58.5q26 -83 43 -256q2 -30 2 -47q0 -57 -10 -124q-9 -55 -29 -138q-25 -92 -70 -139q-18 -19 -38 -31l-33 -18q-28 -15 -102 -32q-31 -7 -60 -12q-24 -4 -43 -8z" />
    </font>
</defs>
</svg>
