<svg xmlns="http://www.w3.org/2000/svg" width="189.753" height="33.907" viewBox="0 0 189.753 33.907"><g transform="translate(0 -0.009)"><path d="M928.051,401.764h-5.262l-1.26-3.892h-5.18l-1.206,3.892H909.88l6.77-19.4h4.467Zm-7.7-8.249-1.34-5.674h-.137l-1.423,5.674Z" transform="translate(-849.427 -372.208)" fill="#fff"/><path d="M1123.327,382.36h5.071l-5.591,19.4h-4.549l-1.726-5.367-.685-4.438h-.084l-.739,4.413-1.535,5.4h-4.55l-5.618-19.4h5.1l2.3,9.294.493,4.111h.137l.466-4.083,2.165-6.8h3.727l2,6.825.63,4.056h.084l.548-4.056Z" transform="translate(-1026.67 -372.208)" fill="#fff"/><path d="M1426.12,389.979h7.866v4.248h-7.866v2.9h8.55v4.632H1421.16v-19.4h13.511v4.605h-8.55Z" transform="translate(-1317.898 -372.208)" fill="#fff"/><path d="M1605.569,392.628c1.946,2.357,6.221,2.467,6.359.383.054-1.1-1.727-1.727-3.317-1.945-3.124-.494-5.974-2.467-5.974-6.167,0-3.81,3.453-5.81,7.016-5.81a7.969,7.969,0,0,1,6.632,3.1l-3.207,2.467c-2.028-2.164-5.509-2.082-5.591.167.054.932,1.069,1.48,2.576,1.809,3.453.626,6.906,1.829,6.685,6.6-.167,3.755-4.11,5.81-7.674,5.81a8.5,8.5,0,0,1-6.6-3.507Z" transform="translate(-1484.026 -369.212)" fill="#fff"/><path d="M1792.66,385.75c0-4.468,4-6.66,8.031-6.66s8.057,2.22,8.057,6.66v6.632c0,4.438-4,6.659-8.031,6.659s-8.057-2.22-8.057-6.659Zm4.906,6.632c0,1.423,1.591,2.11,3.152,2.11s3.125-.713,3.125-2.11V385.75c0-1.507-1.617-2.193-3.207-2.193-1.535,0-3.07.768-3.07,2.193Z" transform="translate(-1658.292 -369.212)" fill="#fff"/><path d="M2015.835,382.36h4.906l4.083,9.482,4.111-9.482h4.906v19.4h-4.935l.028-5.591.3-3.919-.167-.028-2.55,6.66h-3.37l-2.6-6.66-.137.028.329,3.919v5.591h-4.906Z" transform="translate(-1862.776 -372.208)" fill="#fff"/><path d="M2262,385.75c0-4.468,4-6.66,8.03-6.66s8.057,2.22,8.057,6.66v6.632c0,4.438-4,6.659-8.03,6.659s-8.057-2.22-8.057-6.659Zm4.9,6.632c0,1.423,1.591,2.11,3.152,2.11s3.125-.713,3.125-2.11V385.75c0-1.507-1.617-2.193-3.207-2.193-1.535,0-3.07.768-3.07,2.193Z" transform="translate(-2088.334 -369.212)" fill="#fff"/><path d="M533.859,602.579a5.082,5.082,0,0,0-1.129-.419v3.19c.405-.039.788-.089,1.129-.151Z" transform="translate(-503.856 -573.605)" fill="#fff"/><path d="M551.35,610.29v2.267c.67-.16,1.1-.374,1.1-.641A2.535,2.535,0,0,0,551.35,610.29Z" transform="translate(-520.917 -581.054)" fill="#fff"/><path d="M515.229,599.864a7.076,7.076,0,0,0-1.129-.1v3.477c.383-.009.762-.028,1.129-.054Z" transform="translate(-486.786 -571.406)" fill="#fff"/><path d="M476.85,605.883c.341.051.723.09,1.129.115V602.81a5.2,5.2,0,0,0-1.129.458Z" transform="translate(-452.655 -574.2)" fill="#fff"/><path d="M496.64,599.87a7.1,7.1,0,0,0-1.13.141v3.317c.367.016.747.022,1.13.019Z" transform="translate(-469.752 -571.506)" fill="#fff"/><path d="M459.679,611.59a2.678,2.678,0,0,0-1.1,1.66c0,.264.433.464,1.1.6Z" transform="translate(-435.914 -582.245)" fill="#fff"/><path d="M266.469,323.37c-2.376-.056-21.3-.041-34.848-.023h0l-9.88.016-3.986.007q.116,1.366.2,2.733h0v.016q.047.711.084,1.423h0q.045.831.084,1.654v.033c.014.3.027.605.039.907v.031q.023.563.041,1.121v.015q.032.931.053,1.846v.011q.02.849.033,1.68v.008h0a142.887,142.887,0,0,1-.543,16.956s39.968-.375,48.946.234C264.918,335.6,266.7,328.975,266.469,323.37Zm-32.818,20.187c-4.465-2.4-2-7.743-2-7.743s2.311-5.247,7.244-4.059c4.747,1.685,3.06,7.117,2.779,7.743S238.772,345.556,233.651,343.557Zm3.664,5.579c1.723-4.892,9.685-3.377,10.085-.187C247.4,351.052,237.2,350.88,237.315,349.136Zm14.166-5.76c-5.024,2.388-8.058-2.921-8.386-3.533s-2.419-5.991,2.247-8.033c4.891-1.553,7.6,3.589,7.6,3.589s2.875,5.225-1.456,7.977Zm3.255-16.681h-2.385v-2.612h2.384Zm3.349,0h-2.38v-2.612h2.383Zm3.353,0h-2.38v-2.612h2.384Z" transform="translate(-215.249 -318.121)" fill="#fff"/><path d="M275.273,288.8l-2.545-.028a3.02,3.02,0,0,0-5.275,0H265.39v1.507h0l9.88-.016Z" transform="translate(-258.9 -285.035)" fill="#fff"/><path d="M416.769,265.434v.995h2.612v-1.037h-.45c.492-.78.687-4.251-1.031-4.161-1.21,0-1.452,3.052-.8,4.2Z" transform="translate(-397.585 -261.22)" fill="#fff"/><path d="M190.9,363.457v-.011l-.053-1.846v-.015l-.041-1.121v-.031l-.039-.907v-.033l-.084-1.654h0l-.084-1.423V356.4H187.88v8.746h3.051v-.008Z" transform="translate(-187.88 -348.422)" fill="#fff"/></g></svg>