<svg xmlns="http://www.w3.org/2000/svg" width="28.439" height="37" viewBox="0 0 28.439 37"><g transform="translate(0)"><path d="M229.358,122.764c-3.512,1.479,1.591,7.686,2.376,8.948h4.537C236.225,128.329,232.922,121.264,229.358,122.764Zm14.04,8.948h.78v-9.983H241.1A19.819,19.819,0,0,1,243.4,131.712ZM218.017,104v22.007c0,1.464-.007,7.528-.007,7.528a10.385,10.385,0,0,0,.628,2.874c.66,1.732,2.546,5.075,5.13,4.532,2.439-.514,2-3.292,1.107-5.117-1.915-3.9-6.972-8.531-4.617-14.932a10.432,10.432,0,0,1,5.427-6.152c1.939-.811,4.891-.587,7.614-.587h13.149V104Z" transform="translate(-218.01 -104)" fill="#ff594f"/></g></svg>