<svg xmlns="http://www.w3.org/2000/svg" width="528.849" height="337.977" viewBox="0 0 528.849 337.977"><defs><style>.a{fill:#fff;}</style></defs><g transform="translate(-695 -98.543)"><g transform="translate(695 204.573)"><path class="a" d="M615.813,702.586q-1.749,3.058-7.092,4.91a30.987,30.987,0,0,1-10.147,1.855q-5.677,0-8.4-2.291t-.109-6.656l-.218.436a77.952,77.952,0,0,0,4.255-11.457,39.766,39.766,0,0,0,1.637-10.8,15.509,15.509,0,0,0-3.055-9.816q-3.058-3.924-10.038-3.5-6.113.44-14.621,6.874A106.825,106.825,0,0,0,550.454,689.6a194.493,194.493,0,0,0-17.567,25.641,212.581,212.581,0,0,0-14.839,31.206,148.49,148.49,0,0,0-5.019,19.64,107.936,107.936,0,0,0-1.964,19.858q0,11.784,5.019,19.968t15.712,8.4a47.66,47.66,0,0,0,17.894-5.346,79.715,79.715,0,0,0,15.494-10.584A99.348,99.348,0,0,0,577.4,785.729a90.266,90.266,0,0,0,8.074-11.566,7.593,7.593,0,0,1,4.474-3.055,8.367,8.367,0,0,1,5.019.218,5.71,5.71,0,0,1,3.273,2.946q.982,2.076-.546,4.91-2.183,3.713-5.892,8.947a119.643,119.643,0,0,1-8.838,10.911,140.131,140.131,0,0,1-11.457,11.238,114.31,114.31,0,0,1-13.421,10.148,74.56,74.56,0,0,1-14.839,7.419,45.739,45.739,0,0,1-15.821,2.837Q506.7,830.9,495.9,817.716T485.1,782.3a106.612,106.612,0,0,1,1.637-17.87,135.586,135.586,0,0,1,5.128-20.057,206.117,206.117,0,0,1,19.095-41.411,144.346,144.346,0,0,1,23.677-29.751,92.657,92.657,0,0,1,26.514-17.873,68.577,68.577,0,0,1,27.387-5.995,36.209,36.209,0,0,1,14.185,2.585,29.783,29.783,0,0,1,10.256,7,28.94,28.94,0,0,1,6.219,10.291,37.131,37.131,0,0,1,2.073,12.425,44.841,44.841,0,0,1-1.309,10.475A40.376,40.376,0,0,1,615.813,702.586Z" transform="translate(-485.096 -649.339)"/><path class="a" d="M669.93,758.835q5.891.44,9.056,4.255a22.571,22.571,0,0,1,4.474,9.056,18.2,18.2,0,0,1,8.839,1.637q3.815,1.857,2.728,5.128c-.294.729-.655,1.712-1.091,2.946s-.8,2.22-1.091,2.946q-2.839,6.986-5.347,13.2a103.9,103.9,0,0,0-4.037,11.893q-1.963,6.547-3.164,11.893t-.764,6.438q1.09-.215,4.364-2.837a99.775,99.775,0,0,0,7.857-7.2,43.337,43.337,0,0,0,6-6.983,74.866,74.866,0,0,0,4.691-7.638,9.44,9.44,0,0,1,5.237-3.6,8.849,8.849,0,0,1,5.347.109,4.946,4.946,0,0,1,3.054,3.383q.763,2.511-1.418,6a65.516,65.516,0,0,0-4.365,5.892q-1.75,2.4-3.6,5.128a46.286,46.286,0,0,1-3.6,4.692,119.005,119.005,0,0,1-15.057,13.966q-7.422,5.672-13.094,5.892-7.422.215-11.239-3.055a17.266,17.266,0,0,1-5.347-8.511,37.61,37.61,0,0,1-9.384,8.183,23.58,23.58,0,0,1-11.783,3.6q-10.916.434-15.057-6.11t-4.147-16.367a67.5,67.5,0,0,1,1.747-15.058A73.175,73.175,0,0,1,627.7,788.95a78.116,78.116,0,0,1,12.221-15.712,58.052,58.052,0,0,1,14.73-10.693A31.92,31.92,0,0,1,669.93,758.835Zm-28.588,69.4q5.673-.215,10.911-7.311a82.16,82.16,0,0,0,9.384-16.912v.218q1.31-3.928,2.946-8.293t2.946-8.511a20.739,20.739,0,0,0,1.746-8.074,4.665,4.665,0,0,0-.546-2.291,2.827,2.827,0,0,0-2.291-1.2q-3.058-.215-6.655,2.51a35.61,35.61,0,0,0-6.984,7.31,63.2,63.2,0,0,0-6.219,10.584,54.711,54.711,0,0,0-4.146,12.33q-.219.655-.654,2.4t-.983,3.928q-.547,2.183-.982,4.583a23.479,23.479,0,0,0-.436,4.146,10.424,10.424,0,0,0,.436,3.273Q640.25,828.23,641.342,828.23Z" transform="translate(-521.321 -679.183)"/><path class="a" d="M778.435,826.407q0-4.363.327-8.947a87.25,87.25,0,0,1,1.2-9.384q-5.458,8.511-10.583,17.131T759.23,842.556a8.039,8.039,0,0,1-.109,1.309,6.37,6.37,0,0,0-.108.873,15.521,15.521,0,0,1-6.111.655,32.127,32.127,0,0,1-7.092-1.2,17.183,17.183,0,0,1-5.674-2.728,4.07,4.07,0,0,1-1.854-4.146l3.273-17.458q.214-2.179-1.309-2.837a15.389,15.389,0,0,0-3.383-.982,15.293,15.293,0,0,1-3.382-.982q-1.529-.655-1.091-2.837a4.253,4.253,0,0,1-.327-3.492,29.622,29.622,0,0,1,1.2-3.819q.656-1.637.983-2.291t-.983,1.309a6.757,6.757,0,0,1,1.2-1.964,6.792,6.792,0,0,0,1.2-1.964q1.525-2.618,3.6-6.219t4.256-7.311q2.178-3.709,4.255-7.2t3.383-6.11q1.308-1.524,4.91-2.619a49.479,49.479,0,0,1,7.528-1.637,42.686,42.686,0,0,1,7.2-.436q3.273.112,3.927.982a148.46,148.46,0,0,0-4.146,15.93q-1.748,8.511-3.492,17.676,5.672-10.475,11.457-21.168t10.8-19.859l4.146-2.182-.218.218a18.513,18.513,0,0,1,3.6-1.528q2.072-.655,4.147-1.2t3.927-.873a17.885,17.885,0,0,1,2.947-.327q3.708,0,5.237,1.091t.437,4.146q-.441,2.619-1.2,5.456t-1.2,5.456q-1.309,5.677-3.055,12.766t-3.165,14.294q-1.422,7.2-2.4,13.966a82.546,82.546,0,0,0-.981,11.566q0,5.677.654,6.547,1.965-.215,5.565-3.273a77.185,77.185,0,0,0,7.42-7.31q3.816-4.255,7.31-8.947t5.456-7.965l-.218.218q.654-1.524,3.055-1.637a11.641,11.641,0,0,1,4.691.764,10.009,10.009,0,0,1,3.819,2.51,2.794,2.794,0,0,1,.655,3.383,103.056,103.056,0,0,1-7.638,12,120.109,120.109,0,0,1-11.129,13.312,81.35,81.35,0,0,1-12.876,10.911q-6.766,4.583-13.311,4.583a14.408,14.408,0,0,1-7.748-1.528,13.86,13.86,0,0,1-5.128-4.91,22.5,22.5,0,0,1-2.837-7.529A48.982,48.982,0,0,1,778.435,826.407Z" transform="translate(-552.358 -678.451)"/><path class="a" d="M911.725,758.835q5.891.44,9.056,4.255a22.571,22.571,0,0,1,4.474,9.056,18.2,18.2,0,0,1,8.839,1.637q3.815,1.857,2.728,5.128-.441,1.094-1.091,2.946t-1.091,2.946q-2.839,6.986-5.347,13.2a103.923,103.923,0,0,0-4.037,11.893q-1.963,6.547-3.164,11.893t-.764,6.438q1.09-.215,4.364-2.837a99.766,99.766,0,0,0,7.857-7.2,43.323,43.323,0,0,0,6-6.983,74.832,74.832,0,0,0,4.691-7.638,9.441,9.441,0,0,1,5.237-3.6,8.849,8.849,0,0,1,5.347.109,4.946,4.946,0,0,1,3.054,3.383q.763,2.511-1.418,6a65.493,65.493,0,0,0-4.365,5.892q-1.75,2.4-3.6,5.128a46.277,46.277,0,0,1-3.6,4.692,119.013,119.013,0,0,1-15.057,13.966q-7.422,5.672-13.094,5.892-7.422.215-11.239-3.055a17.266,17.266,0,0,1-5.346-8.511,37.612,37.612,0,0,1-9.384,8.183,23.58,23.58,0,0,1-11.783,3.6q-10.915.434-15.057-6.11t-4.147-16.367a67.5,67.5,0,0,1,1.747-15.058A73.171,73.171,0,0,1,869.5,788.95a78.111,78.111,0,0,1,12.221-15.712,58.049,58.049,0,0,1,14.73-10.693A31.921,31.921,0,0,1,911.725,758.835Zm-28.588,69.4q5.673-.215,10.911-7.311a82.16,82.16,0,0,0,9.384-16.912v.218q1.31-3.928,2.946-8.293t2.946-8.511a20.739,20.739,0,0,0,1.746-8.074,4.665,4.665,0,0,0-.546-2.291,2.826,2.826,0,0,0-2.291-1.2q-3.059-.215-6.655,2.51a35.609,35.609,0,0,0-6.984,7.31,63.2,63.2,0,0,0-6.219,10.584,54.711,54.711,0,0,0-4.146,12.33q-.219.655-.654,2.4t-.983,3.928q-.547,2.183-.982,4.583a23.468,23.468,0,0,0-.436,4.146,10.421,10.421,0,0,0,.436,3.273Q882.045,828.23,883.137,828.23Z" transform="translate(-587.231 -679.183)"/><path class="a" d="M1020.343,843.5a36.342,36.342,0,0,1-11.348-1.527,19.319,19.319,0,0,1-7.42-4.256,15.24,15.24,0,0,1-4.037-6.547,27.1,27.1,0,0,1-1.2-8.184,42.1,42.1,0,0,1,1.091-9.384,68.8,68.8,0,0,1,2.946-9.6q1.85-4.8,4.036-9.165t4.365-8.074a29.565,29.565,0,0,1-7.2-2.837l-.437.655q-1.309,2.184-3.055,5.128t-4.365,7.965l-7.2,10.911a8.541,8.541,0,0,1-4.038,2.837,8.828,8.828,0,0,1-4.691.436,4.674,4.674,0,0,1-3.273-2.291q-1.1-1.852.436-5.783a10.775,10.775,0,0,1,1.2-2.182q.762-1.09,1.418-2.182,1.09-1.964,3.6-6.11a96.167,96.167,0,0,0,4.583-8.511,61.512,61.512,0,0,0,3.165-7.856q1.089-3.488-.655-4.146-3.273-7.416-.873-11.784a12.637,12.637,0,0,1,6.766-6,16.964,16.964,0,0,1,9.383-.655q5.018.982,6.984,4.037a12.529,12.529,0,0,0,2.946,3.928,48.206,48.206,0,0,0,4.255,3.6,30.918,30.918,0,0,0,4.037,2.619,20.652,20.652,0,0,0,2.51,1.2,25.489,25.489,0,0,1,7.965,3.164,9.5,9.5,0,0,1,3.6,3.928,6.621,6.621,0,0,1,.327,4.255,13.283,13.283,0,0,1-2.074,4.364l.218-.218q-2.618,4.583-5.128,9.6t-4.473,9.929a83.5,83.5,0,0,0-3.165,9.384,31.139,31.139,0,0,0-1.2,7.965q0,5.677,5.018,5.456a12.378,12.378,0,0,0,6.438-2.073,37.113,37.113,0,0,0,6.765-5.456,67.2,67.2,0,0,0,6.655-7.856q3.273-4.47,6.328-9.275v.218a3.33,3.33,0,0,1,3.165-1.527,14.464,14.464,0,0,1,4.583.764,7.941,7.941,0,0,1,3.6,2.291,2.474,2.474,0,0,1,.436,3.055q-3.713,6.332-8.292,12.657A80.168,80.168,0,0,1,1045,831.821a54.467,54.467,0,0,1-11.565,8.4A27.32,27.32,0,0,1,1020.343,843.5ZM986.3,809.234l-.218.218.437-.873a.445.445,0,0,1-.11.327A.442.442,0,0,0,986.3,809.234Z" transform="translate(-618.38 -677.863)"/><path class="a" d="M1130.341,773.977q.656-1.744,4.474-3.164a32.883,32.883,0,0,1,8.184-1.855,37.559,37.559,0,0,1,8.073,0q3.709.439,3.71,2.182-3.273,18.551-8.838,38.3a312.6,312.6,0,0,1-14.295,39.826q7.637-9.6,15.386-20.077t14.73-20.731a4.656,4.656,0,0,1,3.6-1.746,13.226,13.226,0,0,1,4.8.437,9.255,9.255,0,0,1,3.819,2.073,2.466,2.466,0,0,1,.655,3.164q-5.458,9.165-13.421,20.077T1144.526,854.5q-8.73,11.129-17.24,21.5t-15.057,18l-18.549,17.021a8.962,8.962,0,0,1-4.256,2.51,8.548,8.548,0,0,1-4.037.109,3.809,3.809,0,0,1-2.51-1.746,2.818,2.818,0,0,1,.328-3.055q11.343-20.081,18.549-36.443t12.22-31.206q-8.951,6.547-17.458,6.547a30.017,30.017,0,0,1-10.038-1.418,15.591,15.591,0,0,1-6.329-4.037,14.791,14.791,0,0,1-3.382-6.219,30.23,30.23,0,0,1-.983-7.965,50.841,50.841,0,0,1,.874-9.275q.868-4.689,1.964-9.274a61.378,61.378,0,0,1,2.509-7.965q1.637-4.255,3.274-8.183t3.273-7.311q1.637-3.381,2.728-5.565,1.308-2.179,5.347-3.055a28.715,28.715,0,0,1,8.293-.546,23.071,23.071,0,0,1,7.31,1.637q3.053,1.309,2.4,3.492l-2.4,5.456q-1.964,4.583-4.692,11.02t-5.128,14.075q-1.309,4.148-2.182,7.747a28.312,28.312,0,0,0-.873,6.656q0,3.928,2.837,3.928a9.923,9.923,0,0,0,5.892-2.291,48.522,48.522,0,0,0,7.42-7.529,39.954,39.954,0,0,0,5.564-7.747,49.891,49.891,0,0,0,4.038-9.275,77.857,77.857,0,0,0,2.291-10.475q.763-5.237,1.855-10.475.435-2.4.873-4.474t.874-4.474Z" transform="translate(-646.109 -681.886)"/></g><path class="a" d="M81.2,147.789h0c-3.924,0-8.059-.107-12.292-.32-4.176-.208-8.6-.526-13.154-.945-4.482-.413-9.21-.935-14.05-1.553-4.76-.607-9.8-1.326-14.98-2.139,2.322-1.113,4.542-2.3,6.6-3.52a65.372,65.372,0,0,0,5.618-3.737,52.108,52.108,0,0,0,4.688-3.931,42.712,42.712,0,0,0,3.808-4.106,36.642,36.642,0,0,0,2.979-4.259,33.155,33.155,0,0,0,2.2-4.39,32.138,32.138,0,0,0,1.47-4.5,33.159,33.159,0,0,0,.789-4.59c.116-1.15.176-2.343.176-3.547,0-1.174-.056-2.378-.167-3.577-.109-1.174-.273-2.384-.489-3.6-.211-1.177-.476-2.391-.788-3.61-.308-1.191-.667-2.407-1.066-3.612-.393-1.184-.837-2.4-1.321-3.6A77.077,77.077,0,0,0,47.9,81.1C43.5,72.735,37.1,63.84,28.858,54.661c-3.237-3.605-6.769-7.264-10.5-10.874-2.985-2.889-6.1-5.752-9.256-8.509-2.81-2.455-5.137-4.371-6.593-5.546S.166,27.878,0,27.752c4.518.9,9,1.914,13.32,3.02,4.016,1.029,7.988,2.16,11.807,3.362a191.292,191.292,0,0,1,19.13,7.123C46.8,42.371,49.274,43.53,51.61,44.7c2.072,1.042,4.056,2.107,5.9,3.163,1.616.928,3.116,1.844,4.458,2.722,1.161.761,2.181,1.476,3.031,2.126a29.348,29.348,0,0,1-1.263-4.93c-.365-1.968-.7-4.335-1.009-7.035-.55-4.867-.989-10.787-1.27-17.121-.128-2.886-.217-5.729-.266-8.449-.049-2.671-.057-5.122-.024-7.285.067-4.5.3-7.274.666-7.8.044-.063.087-.094.133-.094A.1.1,0,0,1,62,.005c2.536,2.026,5.051,4.154,7.473,6.323,2.313,2.072,4.6,4.233,6.792,6.423,2.092,2.088,4.157,4.259,6.138,6.453,1.878,2.08,3.733,4.237,5.512,6.413a169.718,169.718,0,0,1,16.335,23.848c1.843,3.262,3.567,6.58,5.124,9.86,1.245,2.623,2.385,5.227,3.389,7.737.9,2.245,1.513,3.987,1.872,5.053.392,1.168.573,1.805.574,1.809v-.006c.016-.094.079-.445.211-.988a27.03,27.03,0,0,1,.8-2.62,30.216,30.216,0,0,1,1.621-3.7,29.575,29.575,0,0,1,2.685-4.245,27.612,27.612,0,0,1,9.518-7.948,30.214,30.214,0,0,1,3.419-1.48,33.557,33.557,0,0,1,3.894-1.14,38.613,38.613,0,0,1,4.4-.734,45.875,45.875,0,0,1,4.935-.259,35.582,35.582,0,0,1,4.921.332,30,30,0,0,1,4.359.941A26.841,26.841,0,0,1,159.8,53.54a25.651,25.651,0,0,1,3.337,1.9,28.722,28.722,0,0,1,9.08,10.188,38.659,38.659,0,0,1,2.45,5.442,43.213,43.213,0,0,1,1.417,4.747c.34,1.43.542,2.615.652,3.357.1.675.143,1.112.157,1.269v.006l18.08,6.505L175.243,93.6c-1.11,2.375-2.273,4.692-3.456,6.884-1.193,2.209-2.44,4.355-3.707,6.378s-2.612,4.015-3.973,5.881-2.8,3.687-4.254,5.391-2.99,3.36-4.55,4.91-3.195,3.041-4.864,4.438c-.942.788-1.92,1.566-2.905,2.311,1.808-7.869-1.482-14.061-5.647-21.9l-.014-.025q-.4-.759-.815-1.537c-1.249-2.364-2.466-4.312-3.539-6.031-2.963-4.745-5.1-8.174-5.626-15.9a1.226,1.226,0,0,0,.648-1.081V79.181a2.876,2.876,0,1,0-2.451-.049v4.19a1.224,1.224,0,0,0,.747,1.129C131.683,92.869,132.683,94.5,136,99.9c1.213,1.977,2.722,4.436,4.652,7.912,3.78,6.507,5.867,12.172,6.2,16.837.273,3.771-.715,5.795-1.153,6.49l-.453.319c-1.78,1.244-3.642,2.428-5.535,3.52s-3.875,2.126-5.894,3.074-4.124,1.833-6.269,2.636-4.383,1.545-6.659,2.207-4.648,1.262-7.064,1.786-4.931.986-7.485,1.374-5.215.714-7.923.971c-2.688.255-5.5.449-8.374.576C87.2,147.725,84.223,147.789,81.2,147.789Zm73.235-80.51a7.408,7.408,0,1,0,7.405,7.409A7.415,7.415,0,0,0,154.436,67.279Zm-.053,11.938a4.264,4.264,0,1,1,0-8.527,4.292,4.292,0,0,1,.86.086,2.719,2.719,0,1,0,3.315,3.316,4.307,4.307,0,0,1,.086.86,4.258,4.258,0,0,1-4.261,4.264Z" transform="translate(862.514 98.543)"/></g></svg>