<svg id="Layer_1" data-name="Layer 1" xmlns="http://www.w3.org/2000/svg" viewBox="0 0 2476.55 480.22"><defs><style>.cls-1{fill:#fff;}</style></defs><title>awesomo_dash</title><path class="cls-1" d="M1117,485.85h-60l-14.37-44.36h-59l-13.75,44.36h-60L987,264.68H1038Zm-87.78-94-15.31-64.67h-1.56L996.1,391.82Z" transform="translate(-187.88 -261.22)"/><path class="cls-1" d="M1322.56,264.68h57.79l-63.73,221.17h-51.85l-19.68-61.23L1237.28,374h-.94l-8.44,50.3-17.49,61.54h-51.86l-64-221.17h58.11l26.24,105.9,5.62,46.86H1186l5.31-46.55L1216,293.42h42.49l22.8,77.78,7.19,46.24h.94l6.24-46.24Z" transform="translate(-187.88 -261.22)"/><path class="cls-1" d="M1454.39,351.52h89.66v48.42h-89.66v33.12h97.47v52.79h-154V264.68h154v52.48h-97.47Z" transform="translate(-187.88 -261.22)"/><path class="cls-1" d="M1606.22,415.87c22.18,26.87,70.91,28.12,72.47,4.38.63-12.5-19.68-19.68-37.8-22.18-35.61-5.63-68.1-28.12-68.1-70.29,0-43.42,39.36-66.23,80-66.23,26.87,0,52.8,7.5,75.6,35.3L1691.81,325c-23.12-24.68-62.79-23.74-63.73,1.87.63,10.62,12.19,16.87,29.37,20.62,39.36,7.18,78.72,20.93,76.22,75.29-1.87,42.79-46.86,66.22-87.47,66.22-26.55,0-54.67-13.43-75.28-40Z" transform="translate(-187.88 -261.22)"/><path class="cls-1" d="M1752.42,337.46c0-50.92,45.61-75.91,91.53-75.91s91.84,25.31,91.84,75.91v75.6c0,50.61-45.61,75.91-91.53,75.91s-91.84-25.3-91.84-75.91Zm55.92,75.6c0,16.25,18.12,24.06,35.92,24.06s35.61-8.13,35.61-24.06v-75.6c0-17.18-18.43-25-36.55-25-17.49,0-35,8.75-35,25Z" transform="translate(-187.88 -261.22)"/><path class="cls-1" d="M1965.47,264.68h55.92l46.55,108.08,46.85-108.08h55.92V485.85h-56.23l.31-63.73,3.44-44.67-1.87-.31-29.06,75.91h-38.42l-29.68-75.91-1.56.31,3.75,44.67v63.73h-55.92Z" transform="translate(-187.88 -261.22)"/><path class="cls-1" d="M2200.39,337.46c0-50.92,45.61-75.91,91.53-75.91s91.85,25.31,91.85,75.91v75.6c0,50.61-45.61,75.91-91.53,75.91s-91.85-25.3-91.85-75.91Zm55.92,75.6c0,16.25,18.12,24.06,35.93,24.06s35.61-8.13,35.61-24.06v-75.6c0-17.18-18.43-25-36.55-25-17.5,0-35,8.75-35,25Z" transform="translate(-187.88 -261.22)"/><path class="cls-1" d="M546.21,607.16a60.75,60.75,0,0,0-13.48-5v38.1c4.84-.46,9.41-1.06,13.48-1.8Z" transform="translate(-187.88 -261.22)"/><path class="cls-1" d="M551.35,610.29v27.07c8-1.91,13.17-4.47,13.12-7.66C563,621.56,558.16,615.1,551.35,610.29Z" transform="translate(-187.88 -261.22)"/><path class="cls-1" d="M527.58,601a84.56,84.56,0,0,0-13.48-1.24v41.53c4.57-.11,9.1-.33,13.48-.65Z" transform="translate(-187.88 -261.22)"/><path class="cls-1" d="M476.85,639.51c4.07.61,8.63,1.07,13.48,1.38V602.81a62.17,62.17,0,0,0-13.48,5.47Z" transform="translate(-187.88 -261.22)"/><path class="cls-1" d="M509,599.87a84.75,84.75,0,0,0-13.49,1.68v39.62c4.38.19,8.92.26,13.49.23Z" transform="translate(-187.88 -261.22)"/><path class="cls-1" d="M471.7,611.59c-6.76,5-11.57,11.63-13.12,19.83.05,3.15,5.17,5.54,13.12,7.18Z" transform="translate(-187.88 -261.22)"/><path class="cls-1" d="M799.61,323.8c-28.38-.67-254.4-.49-416.19-.27h0l-118,.19-47.6.08q1.38,16.31,2.43,32.64h0v.19q.56,8.49,1,17h0q.54,9.92,1,19.75v.39c.17,3.62.32,7.23.47,10.83v.37q.27,6.72.49,13.39v.18q.38,11.12.63,22.05v.13q.24,10.14.39,20.07v.1h0c1.63,109.51-4.63,197.67-6.48,202.51,0,0,477.35-4.48,584.57,2.79C781.09,469.81,802.41,390.75,799.61,323.8ZM407.66,564.9c-53.33-28.71-23.87-92.48-23.87-92.48s27.6-62.66,86.52-48.48c56.69,20.13,36.55,85,33.19,92.48S468.82,588.77,407.66,564.9Zm43.76,66.63C472,573.11,567.09,591.2,571.87,629.3,571.87,654.41,450,652.36,451.42,631.53Zm169.19-68.79c-60,28.52-96.24-34.88-100.16-42.19S491.56,449,547.29,424.61C605.71,406.06,638,467.47,638,467.47S672.34,529.87,620.61,562.74Zm38.87-199.22H631v-31.2h28.47Zm40,0H671.06v-31.2h28.46Zm40.05,0H711.1v-31.2h28.47Z" transform="translate(-187.88 -261.22)"/><path class="cls-1" d="M383.42,306.06l-30.4-.34c-11-24.43-50.53-24.9-63,0H265.39v18h.05l118-.19Z" transform="translate(-187.88 -261.22)"/><path class="cls-1" d="M417,311.45v11.88h31.2V310.94h-5.37c5.87-9.32,8.2-50.77-12.31-49.69-14.45,0-17.34,36.45-9.56,50.2Z" transform="translate(-187.88 -261.22)"/><path class="cls-1" d="M223.93,440.68v-.13l-.63-22.05v-.18l-.49-13.39c0-.12,0-.25,0-.37l-.47-10.83c0-.13,0-.26,0-.39l-1-19.75h0l-1-17v-.19H187.88V460.85h36.44v-.1Z" transform="translate(-187.88 -261.22)"/><path class="cls-1" d="M993.09,516.42c44.5,0,86.18,22.57,86.18,74.28v74.59c0,51.08-41.68,73.33-86.18,73H910V516.42ZM995,685.66c19.11,0,27.89-9.72,27.89-24.14V592.26c0-14.41-9.09-23.5-27.89-23.5H966.45v116.9Z" transform="translate(-187.88 -261.22)"/><path class="cls-1" d="M1291.75,738.31h-60.17l-14.42-44.5h-59.23l-13.79,44.5H1084l77.41-221.89h51.08ZM1203.69,644l-15.36-64.87h-1.57L1170.47,644Z" transform="translate(-187.88 -261.22)"/><path class="cls-1" d="M1327.8,668.11c22.25,26.95,71.14,28.2,72.7,4.38.63-12.53-19.74-19.74-37.92-22.25-35.73-5.64-68.32-28.2-68.32-70.51,0-43.57,39.49-66.44,80.23-66.44,27,0,53,7.52,75.84,35.41l-36.66,28.21c-23.19-24.76-63-23.82-63.94,1.88.63,10.65,12.23,16.92,29.46,20.68,39.49,7.21,79,21,76.47,75.53-1.88,42.94-47,66.44-87.75,66.44-26.64,0-54.84-13.47-75.53-40.11Z" transform="translate(-187.88 -261.22)"/><path class="cls-1" d="M1536.2,738.31h-56.41V516.42h56.41v84h63.94v-84h56.41V738.31h-56.41V654.63H1536.2Z" transform="translate(-187.88 -261.22)"/><path class="cls-1" d="M1829.86,620.16c30.4,15.35,34.16,43.87,31.34,60.8-5.64,35.72-29.78,57.35-79,57.35h-90.57V516.42h89c42.31,0,73.34,25.39,72.08,67.69C1852.42,594.14,1845.84,612,1829.86,620.16Zm-49.21-16.93c27.27,0,28.21-39.49,0-39.49h-32.59v39.49Zm0,85.87c33.85,0,33.22-45.44,0-45.44h-32.59V689.1Z" transform="translate(-187.88 -261.22)"/><path class="cls-1" d="M1881.88,589.44c0-51.08,45.75-76.15,91.82-76.15s92.14,25.38,92.14,76.15v75.85c0,50.77-45.75,76.15-91.82,76.15s-92.14-25.38-92.14-76.15Zm56.1,75.85c0,16.29,18.17,24.13,36,24.13s35.72-8.15,35.72-24.13V589.44c0-17.23-18.49-25.07-36.66-25.07-17.55,0-35.1,8.78-35.1,25.07Z" transform="translate(-187.88 -261.22)"/><path class="cls-1" d="M2278,738.31h-60.17l-14.42-44.5h-59.23l-13.79,44.5h-60.17l77.41-221.89h51.08ZM2190,644l-15.36-64.87H2173L2156.73,644Z" transform="translate(-187.88 -261.22)"/><path class="cls-1" d="M2359.49,667.79h-10v70.52h-56.72V516.42h88.69c45.76,0,81.17,21,82.43,73,0,41.06-16.61,64.25-43.57,72.71l60.49,76.16h-69.89Zm22.88-48.26c35.42,0,35.42-50.77,0-50.77h-32.91v50.77Z" transform="translate(-187.88 -261.22)"/><path class="cls-1" d="M2578.24,516.42c44.51,0,86.19,22.57,86.19,74.28v74.59c0,51.08-41.68,73.33-86.19,73h-83V516.42Zm1.88,169.24c19.12,0,27.9-9.72,27.9-24.14V592.26c0-14.41-9.09-23.5-27.9-23.5h-28.51v116.9Z" transform="translate(-187.88 -261.22)"/></svg>