<svg id="Layer_1" data-name="Layer 1" xmlns="http://www.w3.org/2000/svg" viewBox="0 0 2191.1 480.43"><defs><style>.cls-1{fill:#fff;}</style></defs><title>awesomo_docs</title><path class="cls-1" d="M1113.83,483h-59.91l-14.35-44.31h-59L966.88,483H907L984,262.13h50.85Zm-87.67-93.91-15.29-64.59h-1.56l-16.23,64.59Z" transform="translate(-187.88 -259.01)"/><path class="cls-1" d="M1319.12,262.13h57.72L1313.2,483h-51.79l-19.66-61.15-7.8-50.55H1233l-8.42,50.23L1207.12,483h-51.79l-64-220.9h58l26.21,105.77,5.61,46.8h1.56l5.31-46.49,24.64-77.37h42.44l22.77,77.69,7.18,46.17h.93l6.24-46.17Z" transform="translate(-187.88 -259.01)"/><path class="cls-1" d="M1450.79,348.87h89.54v48.36h-89.54V430.3h97.34V483H1394.32V262.13h153.81v52.42h-97.34Z" transform="translate(-187.88 -259.01)"/><path class="cls-1" d="M1602.42,413.14c22.15,26.83,70.82,28.08,72.38,4.37.63-12.48-19.65-19.66-37.75-22.15-35.57-5.62-68-28.08-68-70.2,0-43.37,39.31-66.15,79.87-66.15,26.83,0,52.72,7.49,75.5,35.26l-36.5,28.08c-23.09-24.65-62.71-23.71-63.65,1.87.62,10.61,12.17,16.85,29.33,20.59,39.31,7.18,78.62,20.91,76.12,75.19-1.87,42.75-46.79,66.15-87.35,66.15-26.52,0-54.6-13.42-75.19-39.94Z" transform="translate(-187.88 -259.01)"/><path class="cls-1" d="M1748.43,334.83c0-50.86,45.56-75.82,91.42-75.82s91.73,25.28,91.73,75.82v75.5c0,50.55-45.56,75.82-91.42,75.82s-91.73-25.27-91.73-75.82Zm55.85,75.5c0,16.23,18.1,24,35.88,24s35.57-8.12,35.57-24v-75.5c0-17.16-18.41-25-36.5-25-17.48,0-35,8.74-35,25Z" transform="translate(-187.88 -259.01)"/><path class="cls-1" d="M1961.22,262.13h55.84l46.49,108,46.8-108h55.85V483H2110l.31-63.65,3.43-44.61-1.87-.32-29,75.82h-38.38l-29.64-75.82-1.56.32,3.74,44.61V483h-55.84Z" transform="translate(-187.88 -259.01)"/><path class="cls-1" d="M2195.84,334.83c0-50.86,45.55-75.82,91.41-75.82S2379,284.29,2379,334.83v75.5c0,50.55-45.55,75.82-91.41,75.82s-91.73-25.27-91.73-75.82Zm55.85,75.5c0,16.23,18.09,24,35.88,24s35.56-8.12,35.56-24v-75.5c0-17.16-18.4-25-36.5-25-17.47,0-34.94,8.74-34.94,25Z" transform="translate(-187.88 -259.01)"/><path class="cls-1" d="M546.21,607.16a60.75,60.75,0,0,0-13.48-5v38.1c4.84-.46,9.41-1.06,13.48-1.8Z" transform="translate(-187.88 -259.01)"/><path class="cls-1" d="M551.35,610.29v27.07c8-1.91,13.17-4.47,13.12-7.66C563,621.56,558.16,615.1,551.35,610.29Z" transform="translate(-187.88 -259.01)"/><path class="cls-1" d="M527.58,601a84.56,84.56,0,0,0-13.48-1.24v41.53c4.57-.11,9.1-.33,13.48-.65Z" transform="translate(-187.88 -259.01)"/><path class="cls-1" d="M476.85,639.51c4.07.61,8.63,1.07,13.48,1.38V602.81a62.17,62.17,0,0,0-13.48,5.47Z" transform="translate(-187.88 -259.01)"/><path class="cls-1" d="M509,599.87a84.75,84.75,0,0,0-13.49,1.68v39.62c4.38.19,8.92.26,13.49.23Z" transform="translate(-187.88 -259.01)"/><path class="cls-1" d="M471.7,611.59c-6.76,5-11.57,11.63-13.12,19.83.05,3.15,5.17,5.54,13.12,7.18Z" transform="translate(-187.88 -259.01)"/><path class="cls-1" d="M799.61,323.8c-28.38-.67-254.4-.49-416.19-.27h0l-118,.19-47.6.08q1.38,16.31,2.43,32.64h0v.19q.56,8.49,1,17h0q.54,9.92,1,19.75v.39c.17,3.62.32,7.23.47,10.83v.37q.27,6.72.49,13.39v.18q.38,11.12.63,22.05v.13q.24,10.14.39,20.07v.1h0c1.63,109.51-4.63,197.67-6.48,202.51,0,0,477.35-4.48,584.57,2.79C781.09,469.81,802.41,390.75,799.61,323.8ZM407.66,564.9c-53.33-28.71-23.87-92.48-23.87-92.48s27.6-62.66,86.52-48.48c56.69,20.13,36.55,85,33.19,92.48S468.82,588.77,407.66,564.9Zm43.76,66.63C472,573.11,567.09,591.2,571.87,629.3,571.87,654.41,450,652.36,451.42,631.53Zm169.19-68.79c-60,28.52-96.24-34.88-100.16-42.19S491.56,449,547.29,424.61C605.71,406.06,638,467.47,638,467.47S672.34,529.87,620.61,562.74Zm38.87-199.22H631v-31.2h28.47Zm40,0H671.06v-31.2h28.46Zm40.05,0H711.1v-31.2h28.47Z" transform="translate(-187.88 -259.01)"/><path class="cls-1" d="M383.42,306.06l-30.4-.34c-11-24.43-50.53-24.9-63,0H265.39v18h.05l118-.19Z" transform="translate(-187.88 -259.01)"/><path class="cls-1" d="M417,311.45v11.88h31.2V310.94h-5.37c5.87-9.32,8.2-50.77-12.31-49.69-14.45,0-17.34,36.45-9.56,50.2Z" transform="translate(-187.88 -259.01)"/><path class="cls-1" d="M223.93,440.68v-.13l-.63-22.05v-.18l-.49-13.39c0-.12,0-.25,0-.37l-.47-10.83c0-.13,0-.26,0-.39l-1-19.75h0l-1-17v-.19H187.88V460.85h36.44v-.1Z" transform="translate(-187.88 -259.01)"/><path class="cls-1" d="M989.38,515.43c44.3,0,85.8,22.46,85.8,73.94v74.26c0,50.85-41.5,73-85.8,72.69H906.7V515.43Zm1.87,168.48c19,0,27.77-9.68,27.77-24v-69c0-14.35-9-23.4-27.77-23.4H962.86V683.91Z" transform="translate(-187.88 -259.01)"/><path class="cls-1" d="M1099.83,588.12c0-50.85,45.55-75.81,91.41-75.81S1283,537.58,1283,588.12v75.51c0,50.54-45.55,75.81-91.42,75.81s-91.72-25.27-91.72-75.81Zm55.84,75.51c0,16.22,18.1,24,35.88,24s35.57-8.11,35.57-24V588.12c0-17.16-18.41-25-36.5-25-17.48,0-34.95,8.74-34.95,25Z" transform="translate(-187.88 -259.01)"/><path class="cls-1" d="M1473.91,689.83c-18.41,35.88-51.79,49.61-79.56,49.61-43.37,0-87-25.27-87-75.5V587.81c0-49.92,43.68-75.5,88-75.5,27.14,0,59.9,11.54,77.68,50.85l-45.55,18.41c-15-27.45-64.27-21.21-64.27,6.24v76.13c0,26.52,49.92,34,62.09,3.43Z" transform="translate(-187.88 -259.01)"/><path class="cls-1" d="M1518.83,666.43c22.16,26.84,70.83,28.08,72.39,4.37.62-12.48-19.66-19.65-37.76-22.15-35.56-5.62-68-28.08-68-70.2,0-43.37,39.31-66.14,79.87-66.14,26.83,0,52.73,7.49,75.5,35.25l-36.5,28.08c-23.09-24.64-62.71-23.71-63.65,1.87.63,10.61,12.17,16.85,29.33,20.6,39.31,7.17,78.62,20.9,76.13,75.19-1.87,42.74-46.8,66.14-87.36,66.14-26.52,0-54.6-13.41-75.19-39.93Z" transform="translate(-187.88 -259.01)"/></svg>