<?xml version="1.0" encoding="utf-8"?>
<!-- Generator: Adobe Illustrator 23.0.0, SVG Export Plug-In . SVG Version: 6.00 Build 0)  -->
<svg version="1.1" xmlns="http://www.w3.org/2000/svg" xmlns:xlink="http://www.w3.org/1999/xlink" x="0px" y="0px"
	 viewBox="0 0 2801 1013" style="enable-background:new 0 0 2801 1013;" xml:space="preserve">
<style type="text/css">
	.st0{enable-background:new    ;}
	.st1{fill:#FF594F;}
	.st2{fill:#FFFFFF;}
</style>
<g id="Shape_1_1_" class="st0">
	<g id="Shape_1">
		<g>
			<path class="st1" d="M450.64,505.64c-72.02,31.65,32.61,164.52,48.71,191.54h92.99C591.42,624.76,523.71,473.53,450.64,505.64z
				 M738.46,697.18h16.05V483.5h-63.1C720.27,541.89,739.51,604.73,738.46,697.18z M218.16,104.01v471.06
				c0,31.34-0.15,161.14-0.15,161.14s1.31,29.81,12.88,61.52c13.52,37.07,52.19,108.64,105.17,96.97
				c49.96-11.01,41.07-70.46,22.69-109.54c-39.26-83.47-142.93-182.6-94.65-319.63c20.22-57.39,58.99-108.85,111.26-131.68
				c39.75-17.36,100.27-12.57,156.09-12.57h269.56V104.01H218.16z"/>
		</g>
	</g>
</g>
<g id="FEINWARU_x0D_Software">
	<g>
		<path class="st2" d="M965.57,355.88h83.81v51.27h-83.81v74.91H910V264.69h151.35v52.19h-95.79V355.88z"/>
		<path class="st2" d="M1150.99,350.04h88.11v47.59h-88.11v32.54h95.79v51.88h-151.35V264.69h151.35v51.58h-95.79V350.04z"/>
		<path class="st2" d="M1339.49,482.06h-54.95V264.69h54.95V482.06z"/>
		<path class="st2" d="M1382.47,264.69h52.19l52.5,92.72l18.42,43.59l1.54-0.31c-0.31,0-5.83-37.45-6.14-37.45v-98.55h54.65v217.36
			h-55.57l-49.12-85.65l-19.03-43.6l-1.54,0.31l7.06,42.06v86.88h-54.95V264.69z"/>
		<path class="st2" d="M1805.52,264.69h56.8l-62.63,217.36h-50.96l-19.34-60.17l-7.67-49.73h-0.92l-8.29,49.43l-17.19,60.48h-50.96
			l-62.94-217.36h57.1l25.79,104.08l5.53,46.05h1.54l5.22-45.74l24.25-76.14h41.75l22.41,76.44l7.06,45.44h0.92l6.14-45.44
			L1805.52,264.69z"/>
		<path class="st2" d="M2053.27,482.06h-58.95l-14.12-43.59h-58.02l-13.51,43.59h-58.95l75.83-217.36h50.04L2053.27,482.06z
			 M1967,389.65l-15.04-63.55h-1.54l-15.96,63.55H1967z"/>
		<path class="st2" d="M2141.68,412.98h-9.82v69.08h-55.57V264.69h86.88c44.82,0,79.51,20.57,80.74,71.53
			c0,40.22-16.27,62.94-42.67,71.23l59.25,74.6h-68.46L2141.68,412.98z M2164.09,365.7c34.69,0,34.69-49.74,0-49.74h-32.24v49.74
			H2164.09z"/>
		<path class="st2" d="M2336.01,409.29c0,35,62.02,35,62.32,0v-144.6h55.57v144.6c-0.31,101.93-173.77,101.93-173.46,0v-144.6h55.57
			V409.29z"/>
		<path class="st2" d="M934.26,665.99c21.8,26.4,69.69,27.63,71.23,4.3c0.61-12.28-19.34-19.34-37.15-21.8
			c-35-5.53-66.93-27.63-66.93-69.08c0-42.67,38.68-65.08,78.59-65.08c26.4,0,51.88,7.37,74.3,34.69l-35.92,27.63
			c-22.72-24.25-61.71-23.33-62.63,1.84c0.61,10.44,11.97,16.58,28.86,20.26c38.68,7.06,77.37,20.57,74.91,73.99
			c-1.84,42.06-46.05,65.09-85.96,65.09c-26.1,0-53.73-13.2-73.99-39.3L934.26,665.99z"/>
		<path class="st2" d="M1077.93,588.93c0-50.04,44.82-74.6,89.95-74.6s90.26,24.87,90.26,74.6v74.29c0,49.74-44.82,74.6-89.95,74.6
			s-90.26-24.87-90.26-74.6V588.93z M1132.88,663.22c0,15.96,17.81,23.64,35.31,23.64s35-7.98,35-23.64v-74.29
			c0-16.89-18.11-24.56-35.92-24.56c-17.19,0-34.38,8.6-34.38,24.56V663.22z"/>
		<path class="st2" d="M1342.87,608.58h83.81v51.27h-83.81v74.91h-55.57V517.39h151.35v52.19h-95.79V608.58z"/>
		<path class="st2" d="M1564.52,569.28v165.48h-55.57V569.28h-57.72v-52.19h171v52.19H1564.52z"/>
		<path class="st2" d="M1850.64,517.39h56.8l-62.63,217.36h-50.96l-19.34-60.17l-7.68-49.73h-0.92l-8.29,49.43l-17.19,60.48h-50.96
			l-62.94-217.36h57.1l25.79,104.08l5.53,46.05h1.54l5.22-45.74l24.25-76.14h41.75l22.41,76.44l7.06,45.44h0.92l6.14-45.44
			L1850.64,517.39z"/>
		<path class="st2" d="M2089.8,734.76h-58.95l-14.12-43.59h-58.02l-13.51,43.59h-58.95l75.83-217.36h50.04L2089.8,734.76z
			 M2003.53,642.35l-15.04-63.55h-1.53l-15.96,63.55H2003.53z"/>
		<path class="st2" d="M2169.62,665.68h-9.82v69.08h-55.57V517.39h86.88c44.82,0,79.51,20.57,80.74,71.53
			c0,40.22-16.27,62.94-42.67,71.23l59.25,74.6h-68.46L2169.62,665.68z M2192.03,618.4c34.69,0,34.69-49.74,0-49.74h-32.24v49.74
			H2192.03z"/>
		<path class="st2" d="M2358.11,602.74h88.11v47.59h-88.11v32.54h95.79v51.88h-151.35V517.39h151.35v51.58h-95.79V602.74z"/>
	</g>
</g>
</svg>
