<svg id="Layer_1" data-name="Layer 1" xmlns="http://www.w3.org/2000/svg" viewBox="0 0 2266.29 522.91"><defs><style>.cls-1{fill:#fff;}.cls-2{isolation:isolate;}</style></defs><title>awesomo full</title><path class="cls-1" d="M1126.9,614.1h-62.85L1049,567.62H987.13l-14.4,46.48H909.88l80.85-231.74h53.35Zm-92-98.52-16-67.76h-1.64l-17,67.76Z" transform="translate(-187.88 -261.22)"/><path class="cls-1" d="M1342.27,382.36h60.56L1336.05,614.1h-54.33L1261.1,550l-8.18-53h-1l-8.83,52.7-18.33,64.48h-54.34l-67.1-231.74h60.88l27.5,111,5.89,49.1h1.64l5.56-48.77,25.86-81.18h44.51l23.9,81.51,7.53,48.44h1l6.54-48.44Z" transform="translate(-187.88 -261.22)"/><path class="cls-1" d="M1480.4,473.35h93.94v50.74H1480.4v34.69h102.12V614.1H1421.16V382.36h161.36v55H1480.4Z" transform="translate(-187.88 -261.22)"/><path class="cls-1" d="M1639.48,540.78c23.24,28.15,74.3,29.46,75.94,4.58.65-13.09-20.63-20.62-39.61-23.23-37.31-5.9-71.35-29.46-71.35-73.65,0-45.5,41.24-69.39,83.79-69.39,28.15,0,55.31,7.85,79.21,37l-38.3,29.46c-24.22-25.85-65.79-24.87-66.77,2,.65,11.13,12.77,17.67,30.77,21.6C1734.4,476.63,1775.64,491,1773,548c-2,44.85-49.09,69.39-91.65,69.39-27.82,0-57.28-14.07-78.88-41.89Z" transform="translate(-187.88 -261.22)"/><path class="cls-1" d="M1792.66,458.63c0-53.36,47.79-79.54,95.91-79.54s96.23,26.51,96.23,79.54v79.21c0,53-47.79,79.53-95.91,79.53s-96.23-26.51-96.23-79.53Zm58.59,79.21c0,17,19,25.2,37.64,25.2s37.32-8.51,37.32-25.2V458.63c0-18-19.31-26.19-38.3-26.19-18.33,0-36.66,9.17-36.66,26.19Z" transform="translate(-187.88 -261.22)"/><path class="cls-1" d="M2015.89,382.36h58.59l48.77,113.25,49.1-113.25h58.59V614.1H2172l.33-66.77,3.6-46.81-2-.33-30.45,79.54h-40.25l-31.1-79.54-1.64.33,3.93,46.81V614.1h-58.59Z" transform="translate(-187.88 -261.22)"/><path class="cls-1" d="M2262,458.63c0-53.36,47.78-79.54,95.9-79.54s96.23,26.51,96.23,79.54v79.21c0,53-47.79,79.53-95.9,79.53S2262,590.86,2262,537.84Zm58.58,79.21c0,17,19,25.2,37.65,25.2s37.31-8.51,37.31-25.2V458.63c0-18-19.31-26.19-38.3-26.19-18.33,0-36.66,9.17-36.66,26.19Z" transform="translate(-187.88 -261.22)"/><path class="cls-1" d="M546.21,607.16a60.75,60.75,0,0,0-13.48-5v38.1c4.84-.46,9.41-1.06,13.48-1.8Z" transform="translate(-187.88 -261.22)"/><path class="cls-1" d="M551.35,610.29v27.07c8-1.91,13.17-4.47,13.12-7.66C563,621.56,558.16,615.1,551.35,610.29Z" transform="translate(-187.88 -261.22)"/><path class="cls-1" d="M527.58,601a84.56,84.56,0,0,0-13.48-1.24v41.53c4.57-.11,9.1-.33,13.48-.65Z" transform="translate(-187.88 -261.22)"/><path class="cls-1" d="M476.85,639.51c4.07.61,8.63,1.07,13.48,1.38V602.81a62.17,62.17,0,0,0-13.48,5.47Z" transform="translate(-187.88 -261.22)"/><path class="cls-1" d="M509,599.87a84.75,84.75,0,0,0-13.49,1.68v39.62c4.38.19,8.92.26,13.49.23Z" transform="translate(-187.88 -261.22)"/><path class="cls-1" d="M471.7,611.59c-6.76,5-11.57,11.63-13.12,19.83.05,3.15,5.17,5.54,13.12,7.18Z" transform="translate(-187.88 -261.22)"/><path class="cls-1" d="M799.61,323.8c-28.38-.67-254.4-.49-416.19-.27h0l-118,.19-47.6.08q1.38,16.31,2.43,32.64h0v.19q.56,8.49,1,17h0q.54,9.92,1,19.75v.39c.17,3.62.32,7.23.47,10.83v.37q.27,6.72.49,13.39v.18q.38,11.12.63,22.05v.13q.24,10.14.39,20.07v.1h0c1.63,109.51-4.63,197.67-6.48,202.51,0,0,477.35-4.48,584.57,2.79C781.09,469.81,802.41,390.75,799.61,323.8ZM407.66,564.9c-53.33-28.71-23.87-92.48-23.87-92.48s27.6-62.66,86.52-48.48c56.69,20.13,36.55,85,33.19,92.48S468.82,588.77,407.66,564.9Zm43.76,66.63C472,573.11,567.09,591.2,571.87,629.3,571.87,654.41,450,652.36,451.42,631.53Zm169.19-68.79c-60,28.52-96.24-34.88-100.16-42.19S491.56,449,547.29,424.61C605.71,406.06,638,467.47,638,467.47S672.34,529.87,620.61,562.74Zm38.87-199.22H631v-31.2h28.47Zm40,0H671.06v-31.2h28.46Zm40.05,0H711.1v-31.2h28.47Z" transform="translate(-187.88 -261.22)"/><path class="cls-1" d="M383.42,306.06l-30.4-.34c-11-24.43-50.53-24.9-63,0H265.39v18h.05l118-.19Z" transform="translate(-187.88 -261.22)"/><path class="cls-1" d="M417,311.45v11.88h31.2V310.94h-5.37c5.87-9.32,8.2-50.77-12.31-49.69-14.45,0-17.34,36.45-9.56,50.2Z" transform="translate(-187.88 -261.22)"/><path class="cls-1" d="M223.93,440.68v-.13l-.63-22.05v-.18l-.49-13.39c0-.12,0-.25,0-.37l-.47-10.83c0-.13,0-.26,0-.39l-1-19.75h0l-1-17v-.19H187.88V460.85h36.44v-.1Z" transform="translate(-187.88 -261.22)"/><g id="Shape_1" data-name="Shape 1" class="cls-2"><g id="Shape_1-2" data-name="Shape 1"><path class="cls-1" d="M2139.66,722.88c-11.3,5,5.12,25.82,7.65,30.06h14.59C2161.75,741.58,2151.13,717.84,2139.66,722.88Zm45.17,30.06h2.52V719.41h-9.91C2182,728.57,2185,738.43,2184.83,752.94Zm-81.65-93.08v73.92c0,4.92,0,25.28,0,25.28a36,36,0,0,0,2,9.66c2.12,5.81,8.19,17,16.5,15.21,7.84-1.72,6.45-11,3.56-17.19-6.16-13.09-22.42-28.65-14.85-50.15,3.17-9,9.26-17.08,17.46-20.66,6.24-2.73,15.73-2,24.49-2h42.3V659.86Z" transform="translate(-187.88 -261.22)"/></g></g><g id="FEINWARU_Software" data-name="FEINWARUSoftware"><path class="cls-1" d="M2220.46,699.38h13.16v8h-13.16v11.75h-8.72V685.07h23.75v8.19h-15v6.12Z" transform="translate(-187.88 -261.22)"/><path class="cls-1" d="M2249.56,698.47h13.83v7.46h-13.83V711h15v8.14h-23.75V685.07h23.75v8.1h-15Z" transform="translate(-187.88 -261.22)"/><path class="cls-1" d="M2279.14,719.18h-8.62V685.07h8.62Z" transform="translate(-187.88 -261.22)"/><path class="cls-1" d="M2285.88,685.07h8.19l8.24,14.55,2.89,6.84.24-.05s-.91-5.87-1-5.87V685.07h8.58v34.11h-8.72l-7.71-13.44-3-6.84-.24.05,1.11,6.6v13.63h-8.62V685.07Z" transform="translate(-187.88 -261.22)"/><path class="cls-1" d="M2352.27,685.07h8.91l-9.83,34.11h-8l-3-9.44-1.2-7.8H2339l-1.3,7.75-2.69,9.49h-8l-9.88-34.1h9l4.05,16.33.87,7.22h.24l.82-7.17,3.8-12h6.55l3.52,12,1.11,7.13h.14l1-7.13Z" transform="translate(-187.88 -261.22)"/><path class="cls-1" d="M2391.14,719.18h-9.25l-2.21-6.84h-9.11l-2.12,6.84h-9.25l11.9-34.1H2379Zm-13.53-14.5-2.36-10H2375l-2.51,10Z" transform="translate(-187.88 -261.22)"/><path class="cls-1" d="M2405,708.34h-1.54v10.84h-8.72V685.07h13.63c7,0,12.48,3.23,12.67,11.23,0,6.31-2.55,9.87-6.7,11.18l9.3,11.7h-10.74Zm3.51-7.42a3.9,3.9,0,1,0,0-7.8h-5.05v7.8Z" transform="translate(-187.88 -261.22)"/><path class="cls-1" d="M2435.51,707.76c0,5.5,9.73,5.5,9.78,0V685.07H2454v22.69c-.05,16-27.27,16-27.22,0V685.07h8.72v22.69Z" transform="translate(-187.88 -261.22)"/><path class="cls-1" d="M2215.55,748c3.42,4.15,10.94,4.34,11.18.68.09-1.93-3-3-5.83-3.42-5.49-.87-10.5-4.34-10.5-10.84,0-6.7,6.07-10.21,12.33-10.21a14,14,0,0,1,11.66,5.44l-5.64,4.34c-3.56-3.81-9.68-3.67-9.83.28.1,1.64,1.88,2.61,4.53,3.18,6.07,1.11,12.14,3.23,11.76,11.61-.29,6.6-7.23,10.22-13.49,10.22a14.93,14.93,0,0,1-11.61-6.17Z" transform="translate(-187.88 -261.22)"/><path class="cls-1" d="M2238.1,736c0-7.85,7-11.7,14.11-11.7s14.16,3.9,14.16,11.7v11.66c0,7.81-7,11.71-14.11,11.71s-14.16-3.91-14.16-11.71Zm8.62,11.66c0,2.5,2.79,3.71,5.54,3.71s5.49-1.25,5.49-3.71V736c0-2.65-2.84-3.85-5.63-3.85s-5.4,1.35-5.4,3.85v11.66Z" transform="translate(-187.88 -261.22)"/><path class="cls-1" d="M2279.67,739h13.15v8h-13.15v11.76H2271V724.73h23.75v8.19h-15V739Z" transform="translate(-187.88 -261.22)"/><path class="cls-1" d="M2314.45,732.87v26h-8.72v-26h-9.06v-8.19h26.84v8.19Z" transform="translate(-187.88 -261.22)"/><path class="cls-1" d="M2359.35,724.73h8.91l-9.83,34.1h-8l-3-9.44-1.2-7.8h-.15l-1.3,7.76-2.7,9.49h-8l-9.88-34.11h9l4.05,16.33.87,7.23h.24l.82-7.18,3.8-12h6.55l3.52,12,1.11,7.13h.14l1-7.13Z" transform="translate(-187.88 -261.22)"/><path class="cls-1" d="M2396.88,758.84h-9.25l-2.22-6.84h-9.1l-2.12,6.84h-9.25l11.9-34.11h7.85Zm-13.54-14.5-2.36-10h-.24l-2.5,10Z" transform="translate(-187.88 -261.22)"/><path class="cls-1" d="M2409.4,748h-1.54v10.84h-8.72V724.73h13.63c7,0,12.48,3.22,12.67,11.22,0,6.31-2.55,9.88-6.69,11.18l9.3,11.7H2417.3Zm3.52-7.42a3.91,3.91,0,1,0,0-7.81h-5.06v7.81Z" transform="translate(-187.88 -261.22)"/><path class="cls-1" d="M2439,738.12h13.83v7.47H2439v5.1h15v8.14h-23.75v-34.1H2454v8.09h-15Z" transform="translate(-187.88 -261.22)"/></g></svg>