<svg id="Layer_1" data-name="Layer 1" xmlns="http://www.w3.org/2000/svg" viewBox="0 0 614.53 404.93"><defs><style>.cls-1{fill:#ffffff;}</style></defs><title>favicon</title><path class="cls-1" d="M546.21,607.16a60.75,60.75,0,0,0-13.48-5v38.1c4.84-.46,9.41-1.06,13.48-1.8Z" transform="translate(-187.88 -261.22)"/><path class="cls-1" d="M551.35,610.29v27.07c8-1.91,13.17-4.47,13.12-7.66C563,621.56,558.16,615.1,551.35,610.29Z" transform="translate(-187.88 -261.22)"/><path class="cls-1" d="M527.58,601a84.56,84.56,0,0,0-13.48-1.24v41.53c4.57-.11,9.1-.33,13.48-.65Z" transform="translate(-187.88 -261.22)"/><path class="cls-1" d="M476.85,639.51c4.07.61,8.63,1.07,13.48,1.38V602.81a62.17,62.17,0,0,0-13.48,5.47Z" transform="translate(-187.88 -261.22)"/><path class="cls-1" d="M509,599.87a84.75,84.75,0,0,0-13.49,1.68v39.62c4.38.19,8.92.26,13.49.23Z" transform="translate(-187.88 -261.22)"/><path class="cls-1" d="M471.7,611.59c-6.76,5-11.57,11.63-13.12,19.83.05,3.15,5.17,5.54,13.12,7.18Z" transform="translate(-187.88 -261.22)"/><path class="cls-1" d="M799.61,323.8c-28.38-.67-254.4-.49-416.19-.27h0l-118,.19-47.6.08q1.38,16.31,2.43,32.64h0v.19q.56,8.49,1,17h0q.54,9.92,1,19.75v.39c.17,3.62.32,7.23.47,10.83v.37q.27,6.72.49,13.39v.18q.38,11.12.63,22.05v.13q.24,10.14.39,20.07v.1h0c1.63,109.51-4.63,197.67-6.48,202.51,0,0,477.35-4.48,584.57,2.79C781.09,469.81,802.41,390.75,799.61,323.8ZM407.66,564.9c-53.33-28.71-23.87-92.48-23.87-92.48s27.6-62.66,86.52-48.48c56.69,20.13,36.55,85,33.19,92.48S468.82,588.77,407.66,564.9Zm43.76,66.63C472,573.11,567.09,591.2,571.87,629.3,571.87,654.41,450,652.36,451.42,631.53Zm169.19-68.79c-60,28.52-96.24-34.88-100.16-42.19S491.56,449,547.29,424.61C605.71,406.06,638,467.47,638,467.47S672.34,529.87,620.61,562.74Zm38.87-199.22H631v-31.2h28.47Zm40,0H671.06v-31.2h28.46Zm40.05,0H711.1v-31.2h28.47Z" transform="translate(-187.88 -261.22)"/><path class="cls-1" d="M383.42,306.06l-30.4-.34c-11-24.43-50.53-24.9-63,0H265.39v18h.05l118-.19Z" transform="translate(-187.88 -261.22)"/><path class="cls-1" d="M417,311.45v11.88h31.2V310.94h-5.37c5.87-9.32,8.2-50.77-12.31-49.69-14.45,0-17.34,36.45-9.56,50.2Z" transform="translate(-187.88 -261.22)"/><path class="cls-1" d="M223.93,440.68v-.13l-.63-22.05v-.18l-.49-13.39c0-.12,0-.25,0-.37l-.47-10.83c0-.13,0-.26,0-.39l-1-19.75h0l-1-17v-.19H187.88V460.85h36.44v-.1Z" transform="translate(-187.88 -261.22)"/></svg>