<svg id="Layer_1" data-name="Layer 1" xmlns="http://www.w3.org/2000/svg" viewBox="0 0 583 791.96"><defs><style>.cls-1{isolation:isolate;}.cls-2{fill:#fff;}</style></defs><title>feinwaru_mini</title><g id="Shape_1" data-name="Shape 1" class="cls-1"><g id="Shape_1-2" data-name="Shape 1"><path class="cls-2" d="M450.64,505.64c-72,31.65,32.61,164.52,48.71,191.54h93C591.42,624.76,523.71,473.53,450.64,505.64ZM738.46,697.18h16V483.5h-63.1C720.27,541.89,739.51,604.73,738.46,697.18ZM218.16,104V575.07c0,31.34-.15,161.14-.15,161.14a230.73,230.73,0,0,0,12.88,61.52c13.52,37.07,52.19,108.64,105.17,97,50-11,41.07-70.46,22.69-109.54-39.26-83.47-142.93-182.6-94.65-319.63,20.22-57.39,59-108.85,111.26-131.68,39.75-17.36,100.27-12.57,156.09-12.57H801V104Z" transform="translate(-218.01 -104.01)"/></g></g></svg>