<svg id="Layer_1" data-name="Layer 1" xmlns="http://www.w3.org/2000/svg" viewBox="0 0 2235.89 791.96"><defs><style>.cls-1{isolation:isolate;}.cls-2{fill:#ff594f;}.cls-3{fill:#222;}</style></defs><title>feinwaru_logo</title><g id="Shape_1" data-name="Shape 1" class="cls-1"><g id="Shape_1-2" data-name="Shape 1"><path class="cls-2" d="M450.64,505.64c-72,31.65,32.61,164.52,48.71,191.54h93C591.42,624.76,523.71,473.53,450.64,505.64ZM738.46,697.18h16V483.5h-63.1C720.27,541.89,739.51,604.73,738.46,697.18ZM218.16,104V575.07c0,31.34-.15,161.14-.15,161.14a230.73,230.73,0,0,0,12.88,61.52c13.52,37.07,52.19,108.64,105.17,97,50-11,41.07-70.46,22.69-109.54-39.26-83.47-142.93-182.6-94.65-319.63,20.22-57.39,59-108.85,111.26-131.68,39.75-17.36,100.27-12.57,156.09-12.57H801V104Z" transform="translate(-218.01 -104.01)"/></g></g><g id="FEINWARU_Software" data-name="FEINWARU
Software"><path class="cls-3" d="M965.57,355.88h83.81v51.27H965.57v74.91H910V264.69h151.35v52.19H965.56v39Z" transform="translate(-218.01 -104.01)"/><path class="cls-3" d="M1151,350h88.11v47.59H1151v32.54h95.79v51.88H1095.43V264.69h151.35v51.58H1151Z" transform="translate(-218.01 -104.01)"/><path class="cls-3" d="M1339.49,482.06h-55V264.69h55Z" transform="translate(-218.01 -104.01)"/><path class="cls-3" d="M1382.47,264.69h52.19l52.5,92.72L1505.58,401l1.54-.31c-.31,0-5.83-37.45-6.14-37.45V264.69h54.65V482.05h-55.57l-49.12-85.65-19-43.6-1.54.31,7.06,42.06v86.88h-55V264.69Z" transform="translate(-218.01 -104.01)"/><path class="cls-3" d="M1805.52,264.69h56.8l-62.63,217.36h-51l-19.34-60.17-7.67-49.73h-.92l-8.29,49.43-17.19,60.48h-51L1581.42,264.7h57.1l25.79,104.08,5.53,46.05h1.54l5.22-45.74L1700.85,293h41.75L1765,369.39l7.06,45.44h.92l6.14-45.44Z" transform="translate(-218.01 -104.01)"/><path class="cls-3" d="M2053.27,482.06h-59l-14.12-43.59h-58l-13.51,43.59h-59l75.83-217.36h50ZM1967,389.65l-15-63.55h-1.54l-16,63.55Z" transform="translate(-218.01 -104.01)"/><path class="cls-3" d="M2141.68,413h-9.82v69.08h-55.57V264.69h86.88c44.82,0,79.51,20.57,80.74,71.53,0,40.22-16.27,62.94-42.67,71.23l59.25,74.6H2192Zm22.41-47.28c34.69,0,34.69-49.74,0-49.74h-32.24V365.7Z" transform="translate(-218.01 -104.01)"/><path class="cls-3" d="M2336,409.29c0,35,62,35,62.32,0V264.69h55.57v144.6c-.31,101.93-173.77,101.93-173.46,0V264.69H2336v144.6Z" transform="translate(-218.01 -104.01)"/><path class="cls-3" d="M934.26,666c21.8,26.4,69.69,27.63,71.23,4.3.61-12.28-19.34-19.34-37.15-21.8-35-5.53-66.93-27.63-66.93-69.08,0-42.67,38.68-65.08,78.59-65.08,26.4,0,51.88,7.37,74.3,34.69l-35.92,27.63c-22.72-24.25-61.71-23.33-62.63,1.84.61,10.44,12,16.58,28.86,20.26,38.68,7.06,77.37,20.57,74.91,74-1.84,42.06-46,65.09-86,65.09-26.1,0-53.73-13.2-74-39.3Z" transform="translate(-218.01 -104.01)"/><path class="cls-3" d="M1077.93,588.93c0-50,44.82-74.6,90-74.6s90.26,24.87,90.26,74.6v74.29c0,49.74-44.82,74.6-90,74.6s-90.26-24.87-90.26-74.6Zm55,74.29c0,16,17.81,23.64,35.31,23.64s35-8,35-23.64V588.93c0-16.89-18.11-24.56-35.92-24.56-17.19,0-34.38,8.6-34.38,24.56v74.29Z" transform="translate(-218.01 -104.01)"/><path class="cls-3" d="M1342.87,608.58h83.81v51.27h-83.81v74.91H1287.3V517.39h151.35v52.19h-95.79v39Z" transform="translate(-218.01 -104.01)"/><path class="cls-3" d="M1564.52,569.28V734.76H1509V569.28h-57.72V517.09h171v52.19Z" transform="translate(-218.01 -104.01)"/><path class="cls-3" d="M1850.64,517.39h56.8l-62.63,217.36h-51l-19.34-60.17-7.68-49.73h-.92l-8.29,49.43-17.19,60.48h-51L1626.53,517.4h57.1l25.79,104.08,5.53,46h1.54l5.22-45.74L1746,545.65h41.75l22.41,76.44,7.06,45.44h.92l6.14-45.44Z" transform="translate(-218.01 -104.01)"/><path class="cls-3" d="M2089.8,734.76h-59l-14.12-43.59h-58l-13.51,43.59h-59l75.83-217.36h50Zm-86.27-92.41-15-63.55H1987l-16,63.55Z" transform="translate(-218.01 -104.01)"/><path class="cls-3" d="M2169.62,665.68h-9.82v69.08h-55.57V517.39h86.88c44.82,0,79.51,20.57,80.74,71.53,0,40.22-16.27,62.94-42.67,71.23l59.25,74.6H2220ZM2192,618.4c34.69,0,34.69-49.74,0-49.74h-32.24V618.4Z" transform="translate(-218.01 -104.01)"/><path class="cls-3" d="M2358.11,602.74h88.11v47.59h-88.11v32.54h95.79v51.88H2302.55V517.39H2453.9V569h-95.79Z" transform="translate(-218.01 -104.01)"/></g></svg>